%TF.GenerationSoftware,KiCad,Pcbnew,7.0.5*%
%TF.CreationDate,2023-07-02T13:32:01-04:00*%
%TF.ProjectId,Nixie Clock,4e697869-6520-4436-9c6f-636b2e6b6963,rev?*%
%TF.SameCoordinates,Original*%
%TF.FileFunction,Soldermask,Bot*%
%TF.FilePolarity,Negative*%
%FSLAX46Y46*%
G04 Gerber Fmt 4.6, Leading zero omitted, Abs format (unit mm)*
G04 Created by KiCad (PCBNEW 7.0.5) date 2023-07-02 13:32:01*
%MOMM*%
%LPD*%
G01*
G04 APERTURE LIST*
G04 Aperture macros list*
%AMRoundRect*
0 Rectangle with rounded corners*
0 $1 Rounding radius*
0 $2 $3 $4 $5 $6 $7 $8 $9 X,Y pos of 4 corners*
0 Add a 4 corners polygon primitive as box body*
4,1,4,$2,$3,$4,$5,$6,$7,$8,$9,$2,$3,0*
0 Add four circle primitives for the rounded corners*
1,1,$1+$1,$2,$3*
1,1,$1+$1,$4,$5*
1,1,$1+$1,$6,$7*
1,1,$1+$1,$8,$9*
0 Add four rect primitives between the rounded corners*
20,1,$1+$1,$2,$3,$4,$5,0*
20,1,$1+$1,$4,$5,$6,$7,0*
20,1,$1+$1,$6,$7,$8,$9,0*
20,1,$1+$1,$8,$9,$2,$3,0*%
G04 Aperture macros list end*
%ADD10RoundRect,0.250000X0.450000X-0.262500X0.450000X0.262500X-0.450000X0.262500X-0.450000X-0.262500X0*%
%ADD11C,1.137920*%
%ADD12R,1.000000X2.510000*%
G04 APERTURE END LIST*
D10*
%TO.C,R4*%
X203200000Y-77747500D03*
X203200000Y-75922500D03*
%TD*%
%TO.C,R3*%
X187960000Y-77747500D03*
X187960000Y-75922500D03*
%TD*%
%TO.C,R2*%
X167640000Y-77874500D03*
X167640000Y-76049500D03*
%TD*%
%TO.C,R1*%
X152400000Y-77747500D03*
X152400000Y-75922500D03*
%TD*%
D11*
%TO.C,IN2*%
X169382440Y-80497680D03*
X165897560Y-80497680D03*
X170129200Y-86629240D03*
X163913820Y-83367880D03*
X165150800Y-86629240D03*
X166743380Y-87464900D03*
X168536620Y-87464900D03*
X164551360Y-81688940D03*
X171366180Y-83367880D03*
X170728640Y-81688940D03*
X167640000Y-80065880D03*
X171150280Y-85150960D03*
X164129720Y-85150960D03*
%TD*%
%TO.C,IN1*%
X154142440Y-80497680D03*
X150657560Y-80497680D03*
X154889200Y-86629240D03*
X148673820Y-83367880D03*
X149910800Y-86629240D03*
X151503380Y-87464900D03*
X153296620Y-87464900D03*
X149311360Y-81688940D03*
X156126180Y-83367880D03*
X155488640Y-81688940D03*
X152400000Y-80065880D03*
X155910280Y-85150960D03*
X148889720Y-85150960D03*
%TD*%
%TO.C,IN4*%
X204942440Y-80497680D03*
X201457560Y-80497680D03*
X205689200Y-86629240D03*
X199473820Y-83367880D03*
X200710800Y-86629240D03*
X202303380Y-87464900D03*
X204096620Y-87464900D03*
X200111360Y-81688940D03*
X206926180Y-83367880D03*
X206288640Y-81688940D03*
X203200000Y-80065880D03*
X206710280Y-85150960D03*
X199689720Y-85150960D03*
%TD*%
%TO.C,IN3*%
X189702440Y-80497680D03*
X186217560Y-80497680D03*
X190449200Y-86629240D03*
X184233820Y-83367880D03*
X185470800Y-86629240D03*
X187063380Y-87464900D03*
X188856620Y-87464900D03*
X184871360Y-81688940D03*
X191686180Y-83367880D03*
X191048640Y-81688940D03*
X187960000Y-80065880D03*
X191470280Y-85150960D03*
X184449720Y-85150960D03*
%TD*%
D12*
%TO.C,J1*%
X205740000Y-64139000D03*
X203200000Y-60829000D03*
X200660000Y-64139000D03*
X198120000Y-60829000D03*
X195580000Y-64139000D03*
X193040000Y-60829000D03*
X190500000Y-64139000D03*
X187960000Y-60829000D03*
X185420000Y-64139000D03*
X182880000Y-60829000D03*
X180340000Y-64139000D03*
X177800000Y-60829000D03*
X175260000Y-64139000D03*
X172720000Y-60829000D03*
X170180000Y-64139000D03*
X167640000Y-60829000D03*
X165100000Y-64139000D03*
X162560000Y-60829000D03*
X160020000Y-64139000D03*
X157480000Y-60829000D03*
X154940000Y-64139000D03*
X152400000Y-60829000D03*
X149860000Y-64139000D03*
%TD*%
%TO.C,J2*%
X149860000Y-103501000D03*
X152400000Y-106811000D03*
X154940000Y-103501000D03*
X157480000Y-106811000D03*
X160020000Y-103501000D03*
X162560000Y-106811000D03*
X165100000Y-103501000D03*
X167640000Y-106811000D03*
X170180000Y-103501000D03*
X172720000Y-106811000D03*
X175260000Y-103501000D03*
X177800000Y-106811000D03*
X180340000Y-103501000D03*
X182880000Y-106811000D03*
X185420000Y-103501000D03*
X187960000Y-106811000D03*
X190500000Y-103501000D03*
X193040000Y-106811000D03*
X195580000Y-103501000D03*
X198120000Y-106811000D03*
X200660000Y-103501000D03*
X203200000Y-106811000D03*
X205740000Y-103501000D03*
%TD*%
M02*
