%TF.GenerationSoftware,KiCad,Pcbnew,7.0.5*%
%TF.CreationDate,2023-07-02T13:32:01-04:00*%
%TF.ProjectId,Nixie Clock,4e697869-6520-4436-9c6f-636b2e6b6963,rev?*%
%TF.SameCoordinates,Original*%
%TF.FileFunction,Copper,L2,Bot*%
%TF.FilePolarity,Positive*%
%FSLAX46Y46*%
G04 Gerber Fmt 4.6, Leading zero omitted, Abs format (unit mm)*
G04 Created by KiCad (PCBNEW 7.0.5) date 2023-07-02 13:32:01*
%MOMM*%
%LPD*%
G01*
G04 APERTURE LIST*
G04 Aperture macros list*
%AMRoundRect*
0 Rectangle with rounded corners*
0 $1 Rounding radius*
0 $2 $3 $4 $5 $6 $7 $8 $9 X,Y pos of 4 corners*
0 Add a 4 corners polygon primitive as box body*
4,1,4,$2,$3,$4,$5,$6,$7,$8,$9,$2,$3,0*
0 Add four circle primitives for the rounded corners*
1,1,$1+$1,$2,$3*
1,1,$1+$1,$4,$5*
1,1,$1+$1,$6,$7*
1,1,$1+$1,$8,$9*
0 Add four rect primitives between the rounded corners*
20,1,$1+$1,$2,$3,$4,$5,0*
20,1,$1+$1,$4,$5,$6,$7,0*
20,1,$1+$1,$6,$7,$8,$9,0*
20,1,$1+$1,$8,$9,$2,$3,0*%
G04 Aperture macros list end*
%TA.AperFunction,SMDPad,CuDef*%
%ADD10RoundRect,0.250000X0.450000X-0.262500X0.450000X0.262500X-0.450000X0.262500X-0.450000X-0.262500X0*%
%TD*%
%TA.AperFunction,ComponentPad*%
%ADD11C,1.137920*%
%TD*%
%TA.AperFunction,SMDPad,CuDef*%
%ADD12R,1.000000X2.510000*%
%TD*%
%TA.AperFunction,ViaPad*%
%ADD13C,0.600000*%
%TD*%
%TA.AperFunction,Conductor*%
%ADD14C,0.150000*%
%TD*%
%TA.AperFunction,Conductor*%
%ADD15C,0.200000*%
%TD*%
%TA.AperFunction,Conductor*%
%ADD16C,0.250000*%
%TD*%
G04 APERTURE END LIST*
D10*
%TO.P,R4,1*%
%TO.N,Net-(IN4-PadA)*%
X203200000Y-77747500D03*
%TO.P,R4,2*%
%TO.N,+170v*%
X203200000Y-75922500D03*
%TD*%
%TO.P,R3,1*%
%TO.N,Net-(IN3-PadA)*%
X187960000Y-77747500D03*
%TO.P,R3,2*%
%TO.N,+170v*%
X187960000Y-75922500D03*
%TD*%
%TO.P,R2,1*%
%TO.N,Net-(IN2-PadA)*%
X167640000Y-77874500D03*
%TO.P,R2,2*%
%TO.N,+170v*%
X167640000Y-76049500D03*
%TD*%
%TO.P,R1,1*%
%TO.N,Net-(IN1-PadA)*%
X152400000Y-77747500D03*
%TO.P,R1,2*%
%TO.N,+170v*%
X152400000Y-75922500D03*
%TD*%
D11*
%TO.P,IN2,0,0*%
%TO.N,2_0*%
X169382440Y-80497680D03*
%TO.P,IN2,1,1*%
%TO.N,2_1*%
X165897560Y-80497680D03*
%TO.P,IN2,2,2*%
%TO.N,2_2*%
X170129200Y-86629240D03*
%TO.P,IN2,3,3*%
%TO.N,2_3*%
X163913820Y-83367880D03*
%TO.P,IN2,4,4*%
%TO.N,2_4*%
X165150800Y-86629240D03*
%TO.P,IN2,5,5*%
%TO.N,2_5*%
X166743380Y-87464900D03*
%TO.P,IN2,6,6*%
%TO.N,2_6*%
X168536620Y-87464900D03*
%TO.P,IN2,7,7*%
%TO.N,2_7*%
X164551360Y-81688940D03*
%TO.P,IN2,8,8*%
%TO.N,2_8*%
X171366180Y-83367880D03*
%TO.P,IN2,9,9*%
%TO.N,2_9*%
X170728640Y-81688940D03*
%TO.P,IN2,A,A*%
%TO.N,Net-(IN2-PadA)*%
X167640000Y-80065880D03*
%TO.P,IN2,RHDP,RHDP*%
%TO.N,RDP*%
X164129720Y-85150960D03*
%TD*%
%TO.P,IN1,0,0*%
%TO.N,1_0*%
X154142440Y-80497680D03*
%TO.P,IN1,1,1*%
%TO.N,1_1*%
X150657560Y-80497680D03*
%TO.P,IN1,2,2*%
%TO.N,1_2*%
X154889200Y-86629240D03*
%TO.P,IN1,3,3*%
%TO.N,1_3*%
X148673820Y-83367880D03*
%TO.P,IN1,4,4*%
%TO.N,1_4*%
X149910800Y-86629240D03*
%TO.P,IN1,5,5*%
%TO.N,1_5*%
X151503380Y-87464900D03*
%TO.P,IN1,6,6*%
%TO.N,1_6*%
X153296620Y-87464900D03*
%TO.P,IN1,7,7*%
%TO.N,1_7*%
X149311360Y-81688940D03*
%TO.P,IN1,8,8*%
%TO.N,1_8*%
X156126180Y-83367880D03*
%TO.P,IN1,9,9*%
%TO.N,1_9*%
X155488640Y-81688940D03*
%TO.P,IN1,A,A*%
%TO.N,Net-(IN1-PadA)*%
X152400000Y-80065880D03*
%TD*%
%TO.P,IN4,0,0*%
%TO.N,4_0*%
X204942440Y-80497680D03*
%TO.P,IN4,1,1*%
%TO.N,4_1*%
X201457560Y-80497680D03*
%TO.P,IN4,2,2*%
%TO.N,4_2*%
X205689200Y-86629240D03*
%TO.P,IN4,3,3*%
%TO.N,4_3*%
X199473820Y-83367880D03*
%TO.P,IN4,4,4*%
%TO.N,4_4*%
X200710800Y-86629240D03*
%TO.P,IN4,5,5*%
%TO.N,4_5*%
X202303380Y-87464900D03*
%TO.P,IN4,6,6*%
%TO.N,4_6*%
X204096620Y-87464900D03*
%TO.P,IN4,7,7*%
%TO.N,4_7*%
X200111360Y-81688940D03*
%TO.P,IN4,8,8*%
%TO.N,4_8*%
X206926180Y-83367880D03*
%TO.P,IN4,9,9*%
%TO.N,4_9*%
X206288640Y-81688940D03*
%TO.P,IN4,A,A*%
%TO.N,Net-(IN4-PadA)*%
X203200000Y-80065880D03*
%TD*%
%TO.P,IN3,0,0*%
%TO.N,3_0*%
X189702440Y-80497680D03*
%TO.P,IN3,1,1*%
%TO.N,3_1*%
X186217560Y-80497680D03*
%TO.P,IN3,2,2*%
%TO.N,3_2*%
X190449200Y-86629240D03*
%TO.P,IN3,3,3*%
%TO.N,3_3*%
X184233820Y-83367880D03*
%TO.P,IN3,4,4*%
%TO.N,3_4*%
X185470800Y-86629240D03*
%TO.P,IN3,5,5*%
%TO.N,3_5*%
X187063380Y-87464900D03*
%TO.P,IN3,6,6*%
%TO.N,3_6*%
X188856620Y-87464900D03*
%TO.P,IN3,7,7*%
%TO.N,3_7*%
X184871360Y-81688940D03*
%TO.P,IN3,8,8*%
%TO.N,3_8*%
X191686180Y-83367880D03*
%TO.P,IN3,9,9*%
%TO.N,3_9*%
X191048640Y-81688940D03*
%TO.P,IN3,A,A*%
%TO.N,Net-(IN3-PadA)*%
X187960000Y-80065880D03*
%TO.P,IN3,LHDP,LHDP*%
%TO.N,LDP*%
X191470280Y-85150960D03*
%TD*%
D12*
%TO.P,J1,1,Pin_1*%
%TO.N,+170v*%
X205740000Y-64139000D03*
%TO.P,J1,2,Pin_2*%
%TO.N,GND*%
X203200000Y-60829000D03*
%TO.P,J1,3,Pin_3*%
%TO.N,RDP*%
X200660000Y-64139000D03*
%TO.P,J1,4,Pin_4*%
%TO.N,2_6*%
X198120000Y-60829000D03*
%TO.P,J1,5,Pin_5*%
%TO.N,2_2*%
X195580000Y-64139000D03*
%TO.P,J1,6,Pin_6*%
%TO.N,2_8*%
X193040000Y-60829000D03*
%TO.P,J1,7,Pin_7*%
%TO.N,2_9*%
X190500000Y-64139000D03*
%TO.P,J1,8,Pin_8*%
%TO.N,2_0*%
X187960000Y-60829000D03*
%TO.P,J1,9,Pin_9*%
%TO.N,2_1*%
X185420000Y-64139000D03*
%TO.P,J1,10,Pin_10*%
%TO.N,2_7*%
X182880000Y-60829000D03*
%TO.P,J1,11,Pin_11*%
%TO.N,2_3*%
X180340000Y-64139000D03*
%TO.P,J1,12,Pin_12*%
%TO.N,2_4*%
X177800000Y-60829000D03*
%TO.P,J1,13,Pin_13*%
%TO.N,2_5*%
X175260000Y-64139000D03*
%TO.P,J1,14,Pin_14*%
%TO.N,1_6*%
X172720000Y-60829000D03*
%TO.P,J1,15,Pin_15*%
%TO.N,1_2*%
X170180000Y-64139000D03*
%TO.P,J1,16,Pin_16*%
%TO.N,1_8*%
X167640000Y-60829000D03*
%TO.P,J1,17,Pin_17*%
%TO.N,1_9*%
X165100000Y-64139000D03*
%TO.P,J1,18,Pin_18*%
%TO.N,1_0*%
X162560000Y-60829000D03*
%TO.P,J1,19,Pin_19*%
%TO.N,1_1*%
X160020000Y-64139000D03*
%TO.P,J1,20,Pin_20*%
%TO.N,1_7*%
X157480000Y-60829000D03*
%TO.P,J1,21,Pin_21*%
%TO.N,1_3*%
X154940000Y-64139000D03*
%TO.P,J1,22,Pin_22*%
%TO.N,1_5*%
X152400000Y-60829000D03*
%TO.P,J1,23,Pin_23*%
%TO.N,1_4*%
X149860000Y-64139000D03*
%TD*%
%TO.P,J2,1,Pin_1*%
%TO.N,GND*%
X149860000Y-103501000D03*
%TO.P,J2,2,Pin_2*%
%TO.N,3_1*%
X152400000Y-106811000D03*
%TO.P,J2,3,Pin_3*%
%TO.N,3_7*%
X154940000Y-103501000D03*
%TO.P,J2,4,Pin_4*%
%TO.N,3_3*%
X157480000Y-106811000D03*
%TO.P,J2,5,Pin_5*%
%TO.N,3_4*%
X160020000Y-103501000D03*
%TO.P,J2,6,Pin_6*%
%TO.N,3_5*%
X162560000Y-106811000D03*
%TO.P,J2,7,Pin_7*%
%TO.N,3_6*%
X165100000Y-103501000D03*
%TO.P,J2,8,Pin_8*%
%TO.N,3_2*%
X167640000Y-106811000D03*
%TO.P,J2,9,Pin_9*%
%TO.N,LDP*%
X170180000Y-103501000D03*
%TO.P,J2,10,Pin_10*%
%TO.N,3_8*%
X172720000Y-106811000D03*
%TO.P,J2,11,Pin_11*%
%TO.N,3_9*%
X175260000Y-103501000D03*
%TO.P,J2,12,Pin_12*%
%TO.N,3_0*%
X177800000Y-106811000D03*
%TO.P,J2,13,Pin_13*%
%TO.N,4_1*%
X180340000Y-103501000D03*
%TO.P,J2,14,Pin_14*%
%TO.N,4_7*%
X182880000Y-106811000D03*
%TO.P,J2,15,Pin_15*%
%TO.N,4_3*%
X185420000Y-103501000D03*
%TO.P,J2,16,Pin_16*%
%TO.N,4_4*%
X187960000Y-106811000D03*
%TO.P,J2,17,Pin_17*%
%TO.N,4_5*%
X190500000Y-103501000D03*
%TO.P,J2,18,Pin_18*%
%TO.N,4_6*%
X193040000Y-106811000D03*
%TO.P,J2,19,Pin_19*%
%TO.N,4_2*%
X195580000Y-103501000D03*
%TO.P,J2,20,Pin_20*%
%TO.N,4_8*%
X198120000Y-106811000D03*
%TO.P,J2,21,Pin_21*%
%TO.N,4_9*%
X200660000Y-103501000D03*
%TO.P,J2,22,Pin_22*%
%TO.N,4_0*%
X203200000Y-106811000D03*
%TO.P,J2,23,Pin_23*%
%TO.N,GND*%
X205740000Y-103501000D03*
%TD*%
D13*
%TO.N,+170v*%
X203200000Y-75946000D03*
%TO.N,GND*%
X165100000Y-68961000D03*
X177038000Y-99060000D03*
X200660000Y-100965000D03*
X207518000Y-93980000D03*
X183388000Y-97790000D03*
X191516000Y-93726000D03*
X195961000Y-80899000D03*
X189103000Y-96774000D03*
X185801000Y-77724000D03*
X196850000Y-66421000D03*
X199517000Y-68834000D03*
X170180000Y-73406000D03*
X171323000Y-77978000D03*
X176149000Y-73406000D03*
X150622000Y-72771000D03*
X178054000Y-66167000D03*
X149860000Y-106680000D03*
X154940000Y-106680000D03*
X160020000Y-106680000D03*
X165100000Y-106680000D03*
X170180000Y-106680000D03*
X175260000Y-106680000D03*
X180340000Y-106680000D03*
X185420000Y-106680000D03*
X190500000Y-106680000D03*
X195580000Y-106680000D03*
X200660000Y-106680000D03*
X205740000Y-106680000D03*
X146050000Y-61976000D03*
X144018000Y-77470000D03*
X172466000Y-89154000D03*
X207772000Y-74422000D03*
X204216000Y-72644000D03*
X195580000Y-77724000D03*
X191516000Y-73660000D03*
X194056000Y-69342000D03*
X180340000Y-60960000D03*
X175260000Y-60960000D03*
X170180000Y-60960000D03*
X165100000Y-60960000D03*
X160020000Y-60960000D03*
X154940000Y-60960000D03*
X152400000Y-64262000D03*
X152400000Y-74295000D03*
X147574000Y-65024000D03*
X149352000Y-67564000D03*
X159639000Y-85217000D03*
X159639000Y-77216000D03*
X159639000Y-74549000D03*
X203200000Y-64262000D03*
X205740000Y-60706000D03*
X200660000Y-60706000D03*
X195580000Y-60706000D03*
X185420000Y-60960000D03*
X190500000Y-60960000D03*
%TO.N,RDP*%
X200660000Y-66802000D03*
X176530000Y-67564000D03*
%TO.N,+170v*%
X167640000Y-75946000D03*
X187960000Y-75946000D03*
X152400000Y-75946000D03*
%TD*%
D14*
%TO.N,+170v*%
X152400000Y-76237500D02*
X152400000Y-75946000D01*
D15*
%TO.N,Net-(IN1-PadA)*%
X152400000Y-80065880D02*
X152400000Y-77432500D01*
%TO.N,Net-(IN2-PadA)*%
X167640000Y-77559500D02*
X167640000Y-80065880D01*
D14*
%TO.N,+170v*%
X167640000Y-76364500D02*
X167640000Y-75946000D01*
D15*
%TO.N,Net-(IN3-PadA)*%
X187960000Y-80065880D02*
X187960000Y-77432500D01*
D14*
%TO.N,+170v*%
X187960000Y-76237500D02*
X187960000Y-75946000D01*
D15*
%TO.N,Net-(IN4-PadA)*%
X203200000Y-80065880D02*
X203200000Y-77432500D01*
D14*
%TO.N,+170v*%
X203200000Y-76237500D02*
X203200000Y-75946000D01*
%TO.N,4_0*%
X204942440Y-80497680D02*
X205511399Y-79928721D01*
X205511399Y-79928721D02*
X207436721Y-79928721D01*
X207436721Y-79928721D02*
X210185000Y-82677000D01*
X210185000Y-82677000D02*
X210185000Y-95377000D01*
X210185000Y-95377000D02*
X203200000Y-102362000D01*
X203200000Y-102362000D02*
X203200000Y-106811000D01*
%TO.N,4_9*%
X206288640Y-81688940D02*
X207418940Y-81688940D01*
X207418940Y-81688940D02*
X209042000Y-83312000D01*
X209042000Y-94361000D02*
X200660000Y-102743000D01*
X209042000Y-83312000D02*
X209042000Y-94361000D01*
X200660000Y-102743000D02*
X200660000Y-103501000D01*
%TO.N,4_8*%
X206926180Y-83367880D02*
X208153000Y-84594700D01*
X208153000Y-84594700D02*
X208153000Y-91440000D01*
X208153000Y-91440000D02*
X198120000Y-101473000D01*
X198120000Y-101473000D02*
X198120000Y-106811000D01*
%TO.N,4_2*%
X195580000Y-103501000D02*
X195580000Y-102743000D01*
X195580000Y-102743000D02*
X205689200Y-92633800D01*
X205689200Y-92633800D02*
X205689200Y-86629240D01*
%TO.N,4_6*%
X204096620Y-87464900D02*
X204096620Y-91559380D01*
X204096620Y-91559380D02*
X193040000Y-102616000D01*
X193040000Y-102616000D02*
X193040000Y-106811000D01*
%TO.N,4_1*%
X201457560Y-80497680D02*
X200888601Y-79928721D01*
X199471279Y-79928721D02*
X197104000Y-82296000D01*
X200888601Y-79928721D02*
X199471279Y-79928721D01*
X197104000Y-82296000D02*
X197104000Y-90043000D01*
X187833000Y-95250000D02*
X180340000Y-102743000D01*
X197104000Y-90043000D02*
X191897000Y-95250000D01*
X191897000Y-95250000D02*
X187833000Y-95250000D01*
X180340000Y-102743000D02*
X180340000Y-103501000D01*
%TO.N,4_7*%
X200111360Y-81688940D02*
X199393534Y-81688940D01*
X182880000Y-103251000D02*
X182880000Y-106811000D01*
X199393534Y-81688940D02*
X197993000Y-83089474D01*
X197993000Y-83089474D02*
X197993000Y-90424000D01*
X197993000Y-90424000D02*
X190119000Y-98298000D01*
X190119000Y-98298000D02*
X187833000Y-98298000D01*
X187833000Y-98298000D02*
X182880000Y-103251000D01*
%TO.N,4_3*%
X199473820Y-83367880D02*
X198882000Y-83959700D01*
X198882000Y-83959700D02*
X198882000Y-91059000D01*
X198882000Y-91059000D02*
X186440000Y-103501000D01*
X186440000Y-103501000D02*
X185420000Y-103501000D01*
%TO.N,4_4*%
X187960000Y-106811000D02*
X187960000Y-103251000D01*
X187960000Y-103251000D02*
X200710800Y-90500200D01*
X200710800Y-90500200D02*
X200710800Y-86629240D01*
%TO.N,4_5*%
X202303380Y-87464900D02*
X202303380Y-90939620D01*
X202303380Y-90939620D02*
X190500000Y-102743000D01*
X190500000Y-102743000D02*
X190500000Y-103501000D01*
%TO.N,3_0*%
X189702440Y-80497680D02*
X190271399Y-79928721D01*
X186309000Y-93091000D02*
X177800000Y-101600000D01*
X190271399Y-79928721D02*
X192577721Y-79928721D01*
X194691000Y-88646000D02*
X190246000Y-93091000D01*
X192577721Y-79928721D02*
X194691000Y-82042000D01*
X194691000Y-82042000D02*
X194691000Y-88646000D01*
X190246000Y-93091000D02*
X186309000Y-93091000D01*
X177800000Y-101600000D02*
X177800000Y-106811000D01*
%TO.N,3_9*%
X175260000Y-103501000D02*
X175260000Y-102489000D01*
X175260000Y-102489000D02*
X185674000Y-92075000D01*
X185674000Y-92075000D02*
X189992000Y-92075000D01*
X192758060Y-81696560D02*
X192758060Y-81688940D01*
X189992000Y-92075000D02*
X193802000Y-88265000D01*
X193802000Y-88265000D02*
X193802000Y-82740500D01*
X193802000Y-82740500D02*
X192758060Y-81696560D01*
X192758060Y-81688940D02*
X191048640Y-81688940D01*
%TO.N,3_8*%
X191686180Y-83367880D02*
X192913000Y-84594700D01*
X192913000Y-84594700D02*
X192913000Y-87884000D01*
X192913000Y-87884000D02*
X189484000Y-91313000D01*
X189484000Y-91313000D02*
X185293000Y-91313000D01*
X176530000Y-97663000D02*
X172720000Y-101473000D01*
X185293000Y-91313000D02*
X178943000Y-97663000D01*
X178943000Y-97663000D02*
X176530000Y-97663000D01*
X172720000Y-101473000D02*
X172720000Y-106811000D01*
%TO.N,3_2*%
X190449200Y-86629240D02*
X190449200Y-87807800D01*
X190449200Y-87807800D02*
X188619000Y-89638000D01*
X188619000Y-89638000D02*
X184174000Y-89638000D01*
X184174000Y-89638000D02*
X178308000Y-95504000D01*
X178308000Y-95504000D02*
X173736000Y-95504000D01*
X173736000Y-95504000D02*
X167640000Y-101600000D01*
X167640000Y-101600000D02*
X167640000Y-106811000D01*
%TO.N,LDP*%
X170180000Y-103501000D02*
X170180000Y-101473000D01*
X170180000Y-101473000D02*
X175260000Y-96393000D01*
X175260000Y-96393000D02*
X178816000Y-96393000D01*
X178816000Y-96393000D02*
X184821000Y-90388000D01*
X184821000Y-90388000D02*
X189139000Y-90388000D01*
X189139000Y-90388000D02*
X192039239Y-87487761D01*
X192039239Y-85719919D02*
X191470280Y-85150960D01*
X192039239Y-87487761D02*
X192039239Y-85719919D01*
%TO.N,3_6*%
X165100000Y-103501000D02*
X165100000Y-102743000D01*
X173228000Y-94615000D02*
X177800000Y-94615000D01*
X165100000Y-102743000D02*
X173228000Y-94615000D01*
X177800000Y-94615000D02*
X183527000Y-88888000D01*
X183527000Y-88888000D02*
X187433520Y-88888000D01*
X187433520Y-88888000D02*
X188856620Y-87464900D01*
%TO.N,3_5*%
X187063380Y-87464900D02*
X186390280Y-88138000D01*
X186390280Y-88138000D02*
X182753000Y-88138000D01*
X171770000Y-93726000D02*
X162560000Y-102936000D01*
X162560000Y-102936000D02*
X162560000Y-106811000D01*
X182753000Y-88138000D02*
X177165000Y-93726000D01*
X177165000Y-93726000D02*
X171770000Y-93726000D01*
%TO.N,3_4*%
X185470800Y-86629240D02*
X182483760Y-86629240D01*
X182483760Y-86629240D02*
X176276000Y-92837000D01*
X170053000Y-92837000D02*
X160020000Y-102870000D01*
X176276000Y-92837000D02*
X170053000Y-92837000D01*
X160020000Y-102870000D02*
X160020000Y-103501000D01*
%TO.N,3_3*%
X184233820Y-83367880D02*
X175647350Y-91954350D01*
X175647350Y-91954350D02*
X175641000Y-91948000D01*
X175641000Y-91948000D02*
X168468000Y-91948000D01*
X168468000Y-91948000D02*
X157480000Y-102936000D01*
X157480000Y-102936000D02*
X157480000Y-106811000D01*
%TO.N,3_7*%
X184871360Y-81688940D02*
X183868060Y-81688940D01*
X174498000Y-91059000D02*
X166751000Y-91059000D01*
X183868060Y-81688940D02*
X174498000Y-91059000D01*
X166751000Y-91059000D02*
X154940000Y-102870000D01*
X154940000Y-102870000D02*
X154940000Y-103501000D01*
%TO.N,3_1*%
X186217560Y-80497680D02*
X185648601Y-79928721D01*
X152400000Y-102936000D02*
X152400000Y-106811000D01*
X185648601Y-79928721D02*
X183850279Y-79928721D01*
X183850279Y-79928721D02*
X173609000Y-90170000D01*
X173609000Y-90170000D02*
X165166000Y-90170000D01*
X165166000Y-90170000D02*
X152400000Y-102936000D01*
%TO.N,2_5*%
X166743380Y-87464900D02*
X166070280Y-88138000D01*
X166070280Y-88138000D02*
X163322000Y-88138000D01*
X163322000Y-88138000D02*
X160794000Y-85610000D01*
X160794000Y-85610000D02*
X160794000Y-74753320D01*
X160794000Y-74753320D02*
X167983320Y-67564000D01*
X175260000Y-64770000D02*
X175260000Y-64139000D01*
X167983320Y-67564000D02*
X172466000Y-67564000D01*
X172466000Y-67564000D02*
X175260000Y-64770000D01*
%TO.N,2_0*%
X169382440Y-80497680D02*
X169435140Y-80444980D01*
X187960000Y-64643000D02*
X187960000Y-60829000D01*
X169435140Y-80444980D02*
X172158020Y-80444980D01*
X172158020Y-80444980D02*
X187960000Y-64643000D01*
%TO.N,2_9*%
X170728640Y-81688940D02*
X173581060Y-81688940D01*
X173581060Y-81688940D02*
X190500000Y-64770000D01*
X190500000Y-64770000D02*
X190500000Y-64139000D01*
%TO.N,2_8*%
X171366180Y-83367880D02*
X174315120Y-83367880D01*
X174315120Y-83367880D02*
X193040000Y-64643000D01*
X193040000Y-64643000D02*
X193040000Y-60829000D01*
%TO.N,2_2*%
X170129200Y-86629240D02*
X172450760Y-86629240D01*
X172450760Y-86629240D02*
X194941000Y-64139000D01*
X194941000Y-64139000D02*
X195580000Y-64139000D01*
%TO.N,2_6*%
X168536620Y-87464900D02*
X169209720Y-88138000D01*
X169209720Y-88138000D02*
X172720000Y-88138000D01*
X189484000Y-71374000D02*
X195580000Y-71374000D01*
X172720000Y-88138000D02*
X189484000Y-71374000D01*
X195580000Y-71374000D02*
X198120000Y-68834000D01*
X198120000Y-68834000D02*
X198120000Y-60829000D01*
%TO.N,2_1*%
X165897560Y-80497680D02*
X165897560Y-75656440D01*
X165897560Y-75656440D02*
X169926000Y-71628000D01*
X169926000Y-71628000D02*
X178562000Y-71628000D01*
X178562000Y-71628000D02*
X185420000Y-64770000D01*
X185420000Y-64770000D02*
X185420000Y-64139000D01*
%TO.N,2_7*%
X164551360Y-81688940D02*
X164551360Y-75777300D01*
X182880000Y-64704000D02*
X182880000Y-60829000D01*
X164551360Y-75777300D02*
X169716660Y-70612000D01*
X169716660Y-70612000D02*
X176972000Y-70612000D01*
X176972000Y-70612000D02*
X182880000Y-64704000D01*
%TO.N,2_3*%
X163913820Y-83367880D02*
X163056000Y-82510060D01*
X163056000Y-82510060D02*
X163056000Y-76212000D01*
X163056000Y-76212000D02*
X169407670Y-69860330D01*
X169407670Y-69860330D02*
X176023670Y-69860330D01*
X176023670Y-69860330D02*
X180340000Y-65544000D01*
X180340000Y-65544000D02*
X180340000Y-64139000D01*
%TO.N,RDP*%
X164129720Y-85150960D02*
X163325090Y-85150960D01*
X174983670Y-69110330D02*
X176530000Y-67564000D01*
X163325090Y-85150960D02*
X162306000Y-84131870D01*
X162306000Y-84131870D02*
X162306000Y-75692000D01*
X162306000Y-75692000D02*
X168887670Y-69110330D01*
X168887670Y-69110330D02*
X174983670Y-69110330D01*
%TO.N,2_4*%
X165150800Y-86629240D02*
X163742710Y-86629240D01*
X163742710Y-86629240D02*
X161544000Y-84430530D01*
X168402000Y-68326000D02*
X174178000Y-68326000D01*
X161544000Y-84430530D02*
X161544000Y-75184000D01*
X174178000Y-68326000D02*
X177800000Y-64704000D01*
X161544000Y-75184000D02*
X168402000Y-68326000D01*
X177800000Y-64704000D02*
X177800000Y-60829000D01*
%TO.N,1_6*%
X153296620Y-87464900D02*
X153715720Y-87884000D01*
X153715720Y-87884000D02*
X155702000Y-87884000D01*
X155702000Y-87884000D02*
X158496000Y-85090000D01*
X164604000Y-67806000D02*
X166680660Y-67806000D01*
X158496000Y-85090000D02*
X158496000Y-73914000D01*
X158496000Y-73914000D02*
X164604000Y-67806000D01*
X166680660Y-67806000D02*
X168192660Y-66294000D01*
X172720000Y-65532000D02*
X172720000Y-60829000D01*
X168192660Y-66294000D02*
X171958000Y-66294000D01*
X171958000Y-66294000D02*
X172720000Y-65532000D01*
%TO.N,1_2*%
X154889200Y-86629240D02*
X155693830Y-86629240D01*
X155693830Y-86629240D02*
X157734000Y-84589070D01*
X157734000Y-84589070D02*
X157734000Y-73450660D01*
X157734000Y-73450660D02*
X164128660Y-67056000D01*
X169287000Y-64139000D02*
X170180000Y-64139000D01*
X164128660Y-67056000D02*
X166370000Y-67056000D01*
X166370000Y-67056000D02*
X169287000Y-64139000D01*
%TO.N,1_8*%
X156126180Y-83367880D02*
X156972000Y-82522060D01*
X156972000Y-82522060D02*
X156972000Y-73152000D01*
X156972000Y-73152000D02*
X164055000Y-66069000D01*
X164055000Y-66069000D02*
X166275000Y-66069000D01*
X166275000Y-66069000D02*
X167640000Y-64704000D01*
X167640000Y-64704000D02*
X167640000Y-60829000D01*
%TO.N,RDP*%
X200660000Y-66802000D02*
X200660000Y-64139000D01*
%TO.N,2_3*%
X163913820Y-83367880D02*
X163068000Y-82522060D01*
X163068000Y-82522060D02*
X163068000Y-79502000D01*
X163068000Y-79502000D02*
X163322000Y-79248000D01*
%TO.N,1_1*%
X150657560Y-80497680D02*
X150657560Y-74132440D01*
X150657560Y-74132440D02*
X160020000Y-64770000D01*
X160020000Y-64770000D02*
X160020000Y-64139000D01*
%TO.N,1_0*%
X154142440Y-80497680D02*
X154142440Y-72933560D01*
X154142440Y-72933560D02*
X162560000Y-64516000D01*
X162560000Y-64516000D02*
X162560000Y-60829000D01*
%TO.N,1_9*%
X155488640Y-81688940D02*
X155488640Y-73111360D01*
X155488640Y-73111360D02*
X164461000Y-64139000D01*
X164461000Y-64139000D02*
X165100000Y-64139000D01*
%TO.N,1_3*%
X148673820Y-83367880D02*
X147828000Y-82522060D01*
X147828000Y-71882000D02*
X154940000Y-64770000D01*
X147828000Y-82522060D02*
X147828000Y-71882000D01*
X154940000Y-64770000D02*
X154940000Y-64139000D01*
%TO.N,1_4*%
X149910800Y-86629240D02*
X149106170Y-86629240D01*
X149106170Y-86629240D02*
X147066000Y-84589070D01*
X147066000Y-84589070D02*
X147066000Y-67564000D01*
X147066000Y-67564000D02*
X149860000Y-64770000D01*
%TO.N,1_5*%
X152400000Y-60829000D02*
X150065000Y-60829000D01*
X150065000Y-60829000D02*
X146304000Y-64590000D01*
X146304000Y-85090000D02*
X149087200Y-87873200D01*
X146304000Y-64590000D02*
X146304000Y-85090000D01*
X149087200Y-87873200D02*
X151095080Y-87873200D01*
X151095080Y-87873200D02*
X151503380Y-87464900D01*
%TO.N,1_7*%
X157480000Y-60829000D02*
X157480000Y-64516000D01*
X157480000Y-64516000D02*
X149311360Y-72684640D01*
X149311360Y-72684640D02*
X149311360Y-81688940D01*
D16*
%TO.N,1_4*%
X149860000Y-64139000D02*
X149860000Y-64770000D01*
%TO.N,+170v*%
X205740000Y-73406000D02*
X205740000Y-64139000D01*
X203200000Y-75946000D02*
X205740000Y-73406000D01*
%TD*%
%TA.AperFunction,Conductor*%
%TO.N,GND*%
G36*
X167595113Y-91751813D02*
G01*
X167620423Y-91795650D01*
X167611633Y-91845500D01*
X167599873Y-91860826D01*
X157017566Y-102443131D01*
X157015939Y-102444663D01*
X156970667Y-102484771D01*
X156936305Y-102534551D01*
X156934981Y-102536351D01*
X156897676Y-102583967D01*
X156897672Y-102583975D01*
X156891958Y-102596668D01*
X156885386Y-102608321D01*
X156877481Y-102619775D01*
X156877479Y-102619778D01*
X156856026Y-102676342D01*
X156855172Y-102678405D01*
X156830350Y-102733558D01*
X156830348Y-102733566D01*
X156827841Y-102747245D01*
X156824247Y-102760139D01*
X156819312Y-102773153D01*
X156819311Y-102773157D01*
X156812019Y-102833208D01*
X156811683Y-102835416D01*
X156800781Y-102894912D01*
X156800781Y-102894914D01*
X156800781Y-102894915D01*
X156801027Y-102898975D01*
X156804432Y-102955283D01*
X156804500Y-102957517D01*
X156804500Y-104929271D01*
X156787187Y-104976837D01*
X156758819Y-104997638D01*
X156677158Y-105031464D01*
X156551720Y-105127715D01*
X156551715Y-105127720D01*
X156455464Y-105253158D01*
X156394955Y-105399238D01*
X156379500Y-105516640D01*
X156379500Y-108105359D01*
X156394955Y-108222759D01*
X156394956Y-108222763D01*
X156455463Y-108368840D01*
X156554670Y-108498130D01*
X156553381Y-108499118D01*
X156572002Y-108539050D01*
X156558901Y-108587945D01*
X156517437Y-108616979D01*
X156498284Y-108619500D01*
X153381716Y-108619500D01*
X153334150Y-108602187D01*
X153308840Y-108558350D01*
X153317630Y-108508500D01*
X153325491Y-108498254D01*
X153325330Y-108498130D01*
X153367539Y-108443121D01*
X153424536Y-108368841D01*
X153485044Y-108222762D01*
X153500500Y-108105361D01*
X153500499Y-105516640D01*
X153485044Y-105399238D01*
X153424536Y-105253159D01*
X153383250Y-105199354D01*
X153328284Y-105127720D01*
X153328279Y-105127715D01*
X153202841Y-105031464D01*
X153121181Y-104997638D01*
X153083861Y-104963440D01*
X153075500Y-104929271D01*
X153075500Y-103246452D01*
X153092813Y-103198886D01*
X153097163Y-103194137D01*
X153713174Y-102578125D01*
X153759050Y-102556734D01*
X153807945Y-102569835D01*
X153836979Y-102611299D01*
X153839500Y-102630452D01*
X153839500Y-104795359D01*
X153854955Y-104912759D01*
X153854956Y-104912763D01*
X153915463Y-105058840D01*
X154011715Y-105184279D01*
X154011720Y-105184284D01*
X154031360Y-105199354D01*
X154137159Y-105280536D01*
X154283238Y-105341044D01*
X154400639Y-105356500D01*
X155479360Y-105356499D01*
X155596762Y-105341044D01*
X155742841Y-105280536D01*
X155868282Y-105184282D01*
X155964536Y-105058841D01*
X156025044Y-104912762D01*
X156040500Y-104795361D01*
X156040499Y-102755451D01*
X156057812Y-102707886D01*
X156062162Y-102703137D01*
X167009127Y-91756174D01*
X167055004Y-91734782D01*
X167061454Y-91734500D01*
X167547547Y-91734500D01*
X167595113Y-91751813D01*
G37*
%TD.AperFunction*%
%TA.AperFunction,Conductor*%
G36*
X170897113Y-93529813D02*
G01*
X170922423Y-93573650D01*
X170913633Y-93623500D01*
X170901873Y-93638826D01*
X162097566Y-102443131D01*
X162095939Y-102444663D01*
X162050667Y-102484771D01*
X162016305Y-102534551D01*
X162014981Y-102536351D01*
X161977676Y-102583967D01*
X161977672Y-102583975D01*
X161971958Y-102596668D01*
X161965386Y-102608321D01*
X161957481Y-102619775D01*
X161957479Y-102619778D01*
X161936026Y-102676342D01*
X161935172Y-102678405D01*
X161910350Y-102733558D01*
X161910348Y-102733566D01*
X161907841Y-102747245D01*
X161904247Y-102760139D01*
X161899312Y-102773153D01*
X161899311Y-102773157D01*
X161892019Y-102833208D01*
X161891683Y-102835416D01*
X161880781Y-102894912D01*
X161880781Y-102894914D01*
X161880781Y-102894915D01*
X161881027Y-102898975D01*
X161884432Y-102955283D01*
X161884500Y-102957517D01*
X161884500Y-104929271D01*
X161867187Y-104976837D01*
X161838819Y-104997638D01*
X161757158Y-105031464D01*
X161631720Y-105127715D01*
X161631715Y-105127720D01*
X161535464Y-105253158D01*
X161474955Y-105399238D01*
X161459500Y-105516640D01*
X161459500Y-108105359D01*
X161474955Y-108222759D01*
X161474956Y-108222763D01*
X161535463Y-108368840D01*
X161634670Y-108498130D01*
X161633381Y-108499118D01*
X161652002Y-108539050D01*
X161638901Y-108587945D01*
X161597437Y-108616979D01*
X161578284Y-108619500D01*
X158461716Y-108619500D01*
X158414150Y-108602187D01*
X158388840Y-108558350D01*
X158397630Y-108508500D01*
X158405491Y-108498254D01*
X158405330Y-108498130D01*
X158447539Y-108443121D01*
X158504536Y-108368841D01*
X158565044Y-108222762D01*
X158580500Y-108105361D01*
X158580499Y-105516640D01*
X158565044Y-105399238D01*
X158504536Y-105253159D01*
X158463250Y-105199354D01*
X158408284Y-105127720D01*
X158408279Y-105127715D01*
X158282841Y-105031464D01*
X158201181Y-104997638D01*
X158163861Y-104963440D01*
X158155500Y-104929271D01*
X158155500Y-103246452D01*
X158172813Y-103198886D01*
X158177163Y-103194137D01*
X158793174Y-102578125D01*
X158839050Y-102556734D01*
X158887945Y-102569835D01*
X158916979Y-102611299D01*
X158919500Y-102630452D01*
X158919500Y-104795359D01*
X158934955Y-104912759D01*
X158934956Y-104912763D01*
X158995463Y-105058840D01*
X159091715Y-105184279D01*
X159091720Y-105184284D01*
X159111360Y-105199354D01*
X159217159Y-105280536D01*
X159363238Y-105341044D01*
X159480639Y-105356500D01*
X160559360Y-105356499D01*
X160676762Y-105341044D01*
X160822841Y-105280536D01*
X160948282Y-105184282D01*
X161044536Y-105058841D01*
X161105044Y-104912762D01*
X161120500Y-104795361D01*
X161120499Y-102755451D01*
X161137812Y-102707886D01*
X161142162Y-102703137D01*
X170311126Y-93534174D01*
X170357003Y-93512782D01*
X170363453Y-93512500D01*
X170849547Y-93512500D01*
X170897113Y-93529813D01*
G37*
%TD.AperFunction*%
%TA.AperFunction,Conductor*%
G36*
X166932945Y-101951835D02*
G01*
X166961979Y-101993299D01*
X166964500Y-102012452D01*
X166964500Y-104929271D01*
X166947187Y-104976837D01*
X166918819Y-104997638D01*
X166837158Y-105031464D01*
X166711720Y-105127715D01*
X166711715Y-105127720D01*
X166615464Y-105253158D01*
X166554955Y-105399238D01*
X166539500Y-105516640D01*
X166539500Y-108105359D01*
X166554955Y-108222759D01*
X166554956Y-108222763D01*
X166615463Y-108368840D01*
X166714670Y-108498130D01*
X166713381Y-108499118D01*
X166732002Y-108539050D01*
X166718901Y-108587945D01*
X166677437Y-108616979D01*
X166658284Y-108619500D01*
X163541716Y-108619500D01*
X163494150Y-108602187D01*
X163468840Y-108558350D01*
X163477630Y-108508500D01*
X163485491Y-108498254D01*
X163485330Y-108498130D01*
X163527539Y-108443121D01*
X163584536Y-108368841D01*
X163645044Y-108222762D01*
X163660500Y-108105361D01*
X163660499Y-105516640D01*
X163645044Y-105399238D01*
X163584536Y-105253159D01*
X163543250Y-105199354D01*
X163488284Y-105127720D01*
X163488279Y-105127715D01*
X163362841Y-105031464D01*
X163281181Y-104997638D01*
X163243861Y-104963440D01*
X163235500Y-104929271D01*
X163235500Y-103246451D01*
X163252813Y-103198885D01*
X163257163Y-103194136D01*
X163873175Y-102578124D01*
X163919050Y-102556733D01*
X163967945Y-102569834D01*
X163996979Y-102611298D01*
X163999500Y-102630451D01*
X163999500Y-104795359D01*
X164014955Y-104912759D01*
X164014956Y-104912763D01*
X164075463Y-105058840D01*
X164171715Y-105184279D01*
X164171720Y-105184284D01*
X164191360Y-105199354D01*
X164297159Y-105280536D01*
X164443238Y-105341044D01*
X164560639Y-105356500D01*
X165639360Y-105356499D01*
X165756762Y-105341044D01*
X165902841Y-105280536D01*
X166028282Y-105184282D01*
X166124536Y-105058841D01*
X166185044Y-104912762D01*
X166200500Y-104795361D01*
X166200499Y-102628452D01*
X166217812Y-102580887D01*
X166222173Y-102576127D01*
X166581949Y-102216351D01*
X166838175Y-101960125D01*
X166884050Y-101938734D01*
X166932945Y-101951835D01*
G37*
%TD.AperFunction*%
%TA.AperFunction,Conductor*%
G36*
X174387113Y-96196813D02*
G01*
X174412423Y-96240650D01*
X174403633Y-96290500D01*
X174391873Y-96305826D01*
X169717566Y-100980131D01*
X169715939Y-100981663D01*
X169670667Y-101021771D01*
X169636305Y-101071551D01*
X169634981Y-101073351D01*
X169597676Y-101120967D01*
X169597672Y-101120975D01*
X169591958Y-101133668D01*
X169585386Y-101145321D01*
X169577481Y-101156775D01*
X169577479Y-101156778D01*
X169556026Y-101213342D01*
X169555172Y-101215405D01*
X169530350Y-101270558D01*
X169530348Y-101270566D01*
X169527841Y-101284245D01*
X169524247Y-101297139D01*
X169519312Y-101310153D01*
X169519311Y-101310157D01*
X169512019Y-101370208D01*
X169511683Y-101372416D01*
X169500781Y-101431912D01*
X169504432Y-101492283D01*
X169504500Y-101494517D01*
X169504500Y-101619271D01*
X169487187Y-101666837D01*
X169458819Y-101687638D01*
X169377158Y-101721464D01*
X169251720Y-101817715D01*
X169251715Y-101817720D01*
X169155464Y-101943158D01*
X169094955Y-102089238D01*
X169079500Y-102206640D01*
X169079500Y-104795359D01*
X169094955Y-104912759D01*
X169094956Y-104912763D01*
X169155463Y-105058840D01*
X169251715Y-105184279D01*
X169251720Y-105184284D01*
X169271360Y-105199354D01*
X169377159Y-105280536D01*
X169523238Y-105341044D01*
X169640639Y-105356500D01*
X170719360Y-105356499D01*
X170836762Y-105341044D01*
X170982841Y-105280536D01*
X171108282Y-105184282D01*
X171204536Y-105058841D01*
X171265044Y-104912762D01*
X171280500Y-104795361D01*
X171280499Y-102206640D01*
X171265044Y-102089238D01*
X171204536Y-101943159D01*
X171179439Y-101910452D01*
X171108284Y-101817720D01*
X171108279Y-101817715D01*
X170995463Y-101731148D01*
X170968265Y-101688456D01*
X170974872Y-101638271D01*
X170988182Y-101620117D01*
X175518126Y-97090174D01*
X175564003Y-97068782D01*
X175570453Y-97068500D01*
X175989801Y-97068500D01*
X176037367Y-97085813D01*
X176062677Y-97129650D01*
X176053887Y-97179500D01*
X176045187Y-97191575D01*
X176038661Y-97198941D01*
X176037130Y-97200567D01*
X172257566Y-100980131D01*
X172255939Y-100981663D01*
X172210667Y-101021771D01*
X172176305Y-101071551D01*
X172174981Y-101073351D01*
X172137676Y-101120967D01*
X172137672Y-101120975D01*
X172131958Y-101133668D01*
X172125386Y-101145321D01*
X172117481Y-101156775D01*
X172117479Y-101156778D01*
X172096026Y-101213342D01*
X172095172Y-101215405D01*
X172070350Y-101270558D01*
X172070348Y-101270566D01*
X172067841Y-101284245D01*
X172064247Y-101297139D01*
X172059312Y-101310153D01*
X172059311Y-101310157D01*
X172052019Y-101370208D01*
X172051683Y-101372416D01*
X172040781Y-101431912D01*
X172040781Y-101431914D01*
X172040781Y-101431915D01*
X172044432Y-101492300D01*
X172044499Y-101494517D01*
X172044499Y-104929271D01*
X172027186Y-104976837D01*
X171998819Y-104997638D01*
X171917157Y-105031464D01*
X171791720Y-105127715D01*
X171791715Y-105127720D01*
X171695464Y-105253158D01*
X171634955Y-105399238D01*
X171619500Y-105516640D01*
X171619500Y-108105359D01*
X171634955Y-108222759D01*
X171634956Y-108222763D01*
X171695463Y-108368840D01*
X171794670Y-108498130D01*
X171793381Y-108499118D01*
X171812002Y-108539050D01*
X171798901Y-108587945D01*
X171757437Y-108616979D01*
X171738284Y-108619500D01*
X168621716Y-108619500D01*
X168574150Y-108602187D01*
X168548840Y-108558350D01*
X168557630Y-108508500D01*
X168565491Y-108498254D01*
X168565330Y-108498130D01*
X168607539Y-108443121D01*
X168664536Y-108368841D01*
X168725044Y-108222762D01*
X168740500Y-108105361D01*
X168740499Y-105516640D01*
X168725044Y-105399238D01*
X168664536Y-105253159D01*
X168623250Y-105199354D01*
X168568284Y-105127720D01*
X168568279Y-105127715D01*
X168442841Y-105031464D01*
X168361181Y-104997638D01*
X168323861Y-104963440D01*
X168315500Y-104929271D01*
X168315500Y-101910452D01*
X168332813Y-101862886D01*
X168337174Y-101858126D01*
X173994127Y-96201174D01*
X174040003Y-96179782D01*
X174046453Y-96179500D01*
X174339547Y-96179500D01*
X174387113Y-96196813D01*
G37*
%TD.AperFunction*%
%TA.AperFunction,Conductor*%
G36*
X178324113Y-98355813D02*
G01*
X178349423Y-98399650D01*
X178340633Y-98449500D01*
X178328873Y-98464826D01*
X175169871Y-101623826D01*
X175123995Y-101645218D01*
X175117545Y-101645500D01*
X174720640Y-101645500D01*
X174603240Y-101660955D01*
X174603236Y-101660956D01*
X174457159Y-101721463D01*
X174331720Y-101817715D01*
X174331715Y-101817720D01*
X174235464Y-101943158D01*
X174174955Y-102089238D01*
X174159500Y-102206640D01*
X174159500Y-104795359D01*
X174174955Y-104912759D01*
X174174956Y-104912763D01*
X174235463Y-105058840D01*
X174331715Y-105184279D01*
X174331720Y-105184284D01*
X174351360Y-105199354D01*
X174457159Y-105280536D01*
X174603238Y-105341044D01*
X174720639Y-105356500D01*
X175799360Y-105356499D01*
X175916762Y-105341044D01*
X176062841Y-105280536D01*
X176188282Y-105184282D01*
X176284536Y-105058841D01*
X176345044Y-104912762D01*
X176360500Y-104795361D01*
X176360499Y-102374451D01*
X176377812Y-102326886D01*
X176382162Y-102322137D01*
X176998173Y-101706126D01*
X177044051Y-101684734D01*
X177092945Y-101697835D01*
X177121979Y-101739299D01*
X177124500Y-101758452D01*
X177124499Y-104929271D01*
X177107186Y-104976837D01*
X177078819Y-104997638D01*
X176997157Y-105031464D01*
X176871720Y-105127715D01*
X176871715Y-105127720D01*
X176775464Y-105253158D01*
X176714955Y-105399238D01*
X176699500Y-105516640D01*
X176699500Y-108105359D01*
X176714955Y-108222759D01*
X176714956Y-108222763D01*
X176775463Y-108368840D01*
X176874670Y-108498130D01*
X176873381Y-108499118D01*
X176892002Y-108539050D01*
X176878901Y-108587945D01*
X176837437Y-108616979D01*
X176818284Y-108619500D01*
X173701716Y-108619500D01*
X173654150Y-108602187D01*
X173628840Y-108558350D01*
X173637630Y-108508500D01*
X173645491Y-108498254D01*
X173645330Y-108498130D01*
X173687539Y-108443121D01*
X173744536Y-108368841D01*
X173805044Y-108222762D01*
X173820500Y-108105361D01*
X173820499Y-105516640D01*
X173805044Y-105399238D01*
X173744536Y-105253159D01*
X173703250Y-105199354D01*
X173648284Y-105127720D01*
X173648279Y-105127715D01*
X173522841Y-105031464D01*
X173441181Y-104997638D01*
X173403861Y-104963440D01*
X173395500Y-104929271D01*
X173395500Y-101783452D01*
X173412813Y-101735886D01*
X173417163Y-101731137D01*
X176788126Y-98360174D01*
X176834003Y-98338782D01*
X176840453Y-98338500D01*
X178276547Y-98338500D01*
X178324113Y-98355813D01*
G37*
%TD.AperFunction*%
%TA.AperFunction,Conductor*%
G36*
X202430282Y-59037813D02*
G01*
X202455592Y-59081650D01*
X202446802Y-59131500D01*
X202427063Y-59153740D01*
X202342811Y-59216811D01*
X202256646Y-59331911D01*
X202256645Y-59331912D01*
X202206403Y-59466619D01*
X202206402Y-59466624D01*
X202199999Y-59526171D01*
X202200000Y-60579000D01*
X204200000Y-60579000D01*
X204200000Y-59526171D01*
X204193597Y-59466624D01*
X204193596Y-59466619D01*
X204143354Y-59331912D01*
X204143353Y-59331911D01*
X204057188Y-59216811D01*
X203995260Y-59170451D01*
X203967557Y-59128086D01*
X203973566Y-59077825D01*
X204010477Y-59043186D01*
X204041077Y-59037226D01*
X204185275Y-59040093D01*
X204186631Y-59040148D01*
X205169660Y-59098855D01*
X205170988Y-59098961D01*
X206150884Y-59196702D01*
X206152338Y-59196877D01*
X207127466Y-59333483D01*
X207128908Y-59333714D01*
X208097878Y-59508987D01*
X208099252Y-59509264D01*
X208926921Y-59693233D01*
X209060490Y-59722923D01*
X209061919Y-59723270D01*
X209259953Y-59775630D01*
X210013941Y-59974985D01*
X210015275Y-59975367D01*
X210956508Y-60264723D01*
X210957863Y-60265169D01*
X211886863Y-60591722D01*
X211888222Y-60592231D01*
X212803455Y-60955440D01*
X212804782Y-60955997D01*
X213704896Y-61355324D01*
X213706162Y-61355916D01*
X214158463Y-61578500D01*
X214589690Y-61790714D01*
X214590984Y-61791382D01*
X215456508Y-62260953D01*
X215457737Y-62261651D01*
X216303935Y-62765276D01*
X216305130Y-62766020D01*
X217130646Y-63302895D01*
X217131794Y-63303674D01*
X217655809Y-63674923D01*
X217935292Y-63872929D01*
X217936476Y-63873804D01*
X218094788Y-63995698D01*
X218716691Y-64474541D01*
X218717812Y-64475441D01*
X219473544Y-65106736D01*
X219474595Y-65107650D01*
X220204659Y-65768514D01*
X220205645Y-65769443D01*
X220908833Y-66458787D01*
X220909845Y-66459818D01*
X221516757Y-67104058D01*
X221585048Y-67176549D01*
X221586035Y-67177640D01*
X221941306Y-67586149D01*
X222204761Y-67889084D01*
X222232220Y-67920657D01*
X222233148Y-67921770D01*
X222849294Y-68689905D01*
X222850149Y-68691016D01*
X223289133Y-69285229D01*
X223435239Y-69482999D01*
X223436089Y-69484200D01*
X223989245Y-70298840D01*
X223990041Y-70300063D01*
X224385351Y-70935187D01*
X224510361Y-71136034D01*
X224511113Y-71137298D01*
X224997780Y-71993283D01*
X224998482Y-71994576D01*
X225160138Y-72307219D01*
X225431421Y-72831882D01*
X225450739Y-72869242D01*
X225451375Y-72870534D01*
X225697108Y-73395994D01*
X225868513Y-73762517D01*
X225869102Y-73763844D01*
X226241554Y-74650528D01*
X226250433Y-74671666D01*
X226250976Y-74673034D01*
X226595918Y-75595314D01*
X226596406Y-75596702D01*
X226904413Y-76531979D01*
X226904845Y-76533385D01*
X226936959Y-76645753D01*
X227175419Y-77480143D01*
X227175786Y-77481531D01*
X227408512Y-78438327D01*
X227408832Y-78439764D01*
X227603327Y-79405015D01*
X227603589Y-79406463D01*
X227759559Y-80378706D01*
X227759763Y-80380163D01*
X227832150Y-80984035D01*
X227876959Y-81357850D01*
X227877100Y-81359264D01*
X227919908Y-81896351D01*
X227955335Y-82340851D01*
X227955422Y-82342320D01*
X227970548Y-82722465D01*
X227994569Y-83326221D01*
X227994598Y-83327655D01*
X227994598Y-84312344D01*
X227994569Y-84313779D01*
X227974440Y-84819698D01*
X227955422Y-85297679D01*
X227955335Y-85299148D01*
X227930463Y-85611208D01*
X227883065Y-86205910D01*
X227877103Y-86280710D01*
X227876958Y-86282154D01*
X227848906Y-86516178D01*
X227759763Y-87259836D01*
X227759559Y-87261293D01*
X227603589Y-88233536D01*
X227603327Y-88234984D01*
X227408832Y-89200235D01*
X227408512Y-89201672D01*
X227175786Y-90158468D01*
X227175415Y-90159868D01*
X227055300Y-90580163D01*
X226904845Y-91106614D01*
X226904413Y-91108020D01*
X226596406Y-92043297D01*
X226595918Y-92044685D01*
X226250976Y-92966965D01*
X226250433Y-92968333D01*
X225869110Y-93876137D01*
X225868513Y-93877482D01*
X225594858Y-94462650D01*
X225498980Y-94667672D01*
X225451389Y-94769437D01*
X225450739Y-94770757D01*
X224998482Y-95645423D01*
X224997780Y-95646716D01*
X224511113Y-96502701D01*
X224510361Y-96503965D01*
X223990047Y-97339926D01*
X223989245Y-97341159D01*
X223436089Y-98155799D01*
X223435239Y-98157000D01*
X222850158Y-98948971D01*
X222849275Y-98950117D01*
X222411547Y-99495824D01*
X222233163Y-99718212D01*
X222232220Y-99719342D01*
X221586035Y-100462359D01*
X221585048Y-100463450D01*
X220909863Y-101180162D01*
X220908833Y-101181212D01*
X220653099Y-101431912D01*
X220205671Y-101870530D01*
X220204632Y-101871509D01*
X219701573Y-102326886D01*
X219474620Y-102532327D01*
X219473515Y-102533287D01*
X219357199Y-102630452D01*
X218717812Y-103164558D01*
X218716665Y-103165479D01*
X217936476Y-103766195D01*
X217935292Y-103767070D01*
X217131823Y-104336305D01*
X217130605Y-104337132D01*
X216305162Y-104873959D01*
X216303912Y-104874737D01*
X215457759Y-105378335D01*
X215456480Y-105379062D01*
X214590998Y-105848609D01*
X214589690Y-105849285D01*
X213706197Y-106284067D01*
X213704864Y-106284690D01*
X212804811Y-106683990D01*
X212803455Y-106684559D01*
X211888222Y-107047768D01*
X211886844Y-107048284D01*
X210957883Y-107374823D01*
X210956485Y-107375283D01*
X210015314Y-107664621D01*
X210013899Y-107665026D01*
X209061919Y-107916729D01*
X209060490Y-107917076D01*
X208099296Y-108130726D01*
X208097854Y-108131016D01*
X207128911Y-108306284D01*
X207127458Y-108306517D01*
X206152342Y-108443121D01*
X206150881Y-108443297D01*
X205171035Y-108541034D01*
X205169610Y-108541147D01*
X204470275Y-108582912D01*
X204202363Y-108598912D01*
X204153850Y-108584466D01*
X204125972Y-108542216D01*
X204131774Y-108491930D01*
X204139244Y-108479996D01*
X204167404Y-108443297D01*
X204224536Y-108368841D01*
X204285044Y-108222762D01*
X204300500Y-108105361D01*
X204300499Y-105516640D01*
X204285044Y-105399238D01*
X204224536Y-105253159D01*
X204183250Y-105199354D01*
X204128284Y-105127720D01*
X204128279Y-105127715D01*
X204002841Y-105031464D01*
X203921181Y-104997638D01*
X203883861Y-104963440D01*
X203875500Y-104929271D01*
X203875500Y-103751000D01*
X204740000Y-103751000D01*
X204740000Y-104803828D01*
X204746402Y-104863375D01*
X204746403Y-104863380D01*
X204796645Y-104998087D01*
X204796646Y-104998088D01*
X204882811Y-105113188D01*
X204997911Y-105199353D01*
X204997912Y-105199354D01*
X205132619Y-105249596D01*
X205132624Y-105249597D01*
X205192171Y-105256000D01*
X205490000Y-105256000D01*
X205490000Y-103751000D01*
X205990000Y-103751000D01*
X205990000Y-105256000D01*
X206287829Y-105256000D01*
X206347375Y-105249597D01*
X206347380Y-105249596D01*
X206482087Y-105199354D01*
X206482088Y-105199353D01*
X206597188Y-105113188D01*
X206683353Y-104998088D01*
X206683354Y-104998087D01*
X206733596Y-104863380D01*
X206733597Y-104863375D01*
X206740000Y-104803828D01*
X206740000Y-103751000D01*
X205990000Y-103751000D01*
X205490000Y-103751000D01*
X204740000Y-103751000D01*
X203875500Y-103751000D01*
X203875500Y-103250999D01*
X204739999Y-103250999D01*
X204740000Y-103251000D01*
X205490000Y-103251000D01*
X205490000Y-101746000D01*
X205990000Y-101746000D01*
X205990000Y-103251000D01*
X206740000Y-103251000D01*
X206740000Y-102198171D01*
X206733597Y-102138624D01*
X206733596Y-102138619D01*
X206683354Y-102003912D01*
X206683353Y-102003911D01*
X206597188Y-101888811D01*
X206482088Y-101802646D01*
X206482087Y-101802645D01*
X206347380Y-101752403D01*
X206347375Y-101752402D01*
X206287829Y-101746000D01*
X205990000Y-101746000D01*
X205490000Y-101746000D01*
X205192171Y-101746000D01*
X205132624Y-101752402D01*
X205132619Y-101752403D01*
X204997912Y-101802645D01*
X204997911Y-101802646D01*
X204882811Y-101888811D01*
X204796646Y-102003911D01*
X204796645Y-102003912D01*
X204746403Y-102138619D01*
X204746402Y-102138624D01*
X204740000Y-102198171D01*
X204739999Y-103250999D01*
X203875500Y-103250999D01*
X203875500Y-102672452D01*
X203892813Y-102624886D01*
X203897174Y-102620126D01*
X206799088Y-99718212D01*
X210647456Y-95869843D01*
X210649023Y-95868367D01*
X210694332Y-95828229D01*
X210728698Y-95778439D01*
X210730010Y-95776655D01*
X210767326Y-95729028D01*
X210773036Y-95716341D01*
X210779616Y-95704674D01*
X210787517Y-95693227D01*
X210787518Y-95693226D01*
X210808970Y-95636661D01*
X210809820Y-95634610D01*
X210815272Y-95622493D01*
X210834650Y-95579439D01*
X210837159Y-95565745D01*
X210840752Y-95552857D01*
X210845688Y-95539845D01*
X210852983Y-95479759D01*
X210853315Y-95477585D01*
X210864219Y-95418085D01*
X210860568Y-95357715D01*
X210860500Y-95355481D01*
X210860500Y-82698512D01*
X210860568Y-82696278D01*
X210862582Y-82662975D01*
X210864219Y-82635915D01*
X210856413Y-82593321D01*
X210853315Y-82576412D01*
X210852982Y-82574234D01*
X210845688Y-82514155D01*
X210840751Y-82501138D01*
X210837158Y-82488252D01*
X210834650Y-82474561D01*
X210809822Y-82419396D01*
X210808971Y-82417342D01*
X210787518Y-82360774D01*
X210779613Y-82349322D01*
X210773032Y-82337653D01*
X210767326Y-82324974D01*
X210767325Y-82324973D01*
X210767325Y-82324972D01*
X210741068Y-82291457D01*
X210730012Y-82277344D01*
X210728688Y-82275545D01*
X210694332Y-82225771D01*
X210663297Y-82198276D01*
X210649068Y-82185670D01*
X210647440Y-82184138D01*
X207929589Y-79466288D01*
X207928057Y-79464660D01*
X207887951Y-79419390D01*
X207887948Y-79419388D01*
X207838166Y-79385026D01*
X207836373Y-79383706D01*
X207808625Y-79361967D01*
X207788749Y-79346395D01*
X207787080Y-79345644D01*
X207776052Y-79340679D01*
X207764396Y-79334105D01*
X207752944Y-79326201D01*
X207696384Y-79304749D01*
X207694321Y-79303895D01*
X207639162Y-79279071D01*
X207639153Y-79279068D01*
X207625476Y-79276562D01*
X207612578Y-79272967D01*
X207599565Y-79268032D01*
X207539511Y-79260740D01*
X207537303Y-79260404D01*
X207477808Y-79249502D01*
X207477806Y-79249502D01*
X207466016Y-79250215D01*
X207417436Y-79253153D01*
X207415202Y-79253221D01*
X205532928Y-79253221D01*
X205530694Y-79253153D01*
X205486600Y-79250486D01*
X205470314Y-79249501D01*
X205470313Y-79249501D01*
X205470311Y-79249501D01*
X205410800Y-79260406D01*
X205408594Y-79260742D01*
X205403625Y-79261345D01*
X205348551Y-79268032D01*
X205348550Y-79268033D01*
X205335539Y-79272967D01*
X205322645Y-79276562D01*
X205308959Y-79279070D01*
X205253804Y-79303893D01*
X205251741Y-79304747D01*
X205195177Y-79326200D01*
X205195169Y-79326204D01*
X205187453Y-79331530D01*
X205138471Y-79344298D01*
X205131825Y-79343365D01*
X205050809Y-79328220D01*
X205050806Y-79328220D01*
X204834074Y-79328220D01*
X204834070Y-79328220D01*
X204621028Y-79368045D01*
X204418939Y-79446336D01*
X204418923Y-79446343D01*
X204319022Y-79508199D01*
X204269467Y-79518520D01*
X204224871Y-79494572D01*
X204213825Y-79478268D01*
X204207466Y-79465498D01*
X204198555Y-79447601D01*
X204198554Y-79447600D01*
X204198554Y-79447599D01*
X204198552Y-79447597D01*
X204167489Y-79406463D01*
X204067944Y-79274645D01*
X204066104Y-79272968D01*
X204038091Y-79247430D01*
X203924644Y-79144011D01*
X203901157Y-79099174D01*
X203900500Y-79089340D01*
X203900500Y-78881016D01*
X203917813Y-78833450D01*
X203941621Y-78814722D01*
X203945015Y-78813038D01*
X203945021Y-78813037D01*
X204110753Y-78730842D01*
X204254940Y-78614940D01*
X204370842Y-78470753D01*
X204453037Y-78305021D01*
X204497683Y-78125495D01*
X204500500Y-78083954D01*
X204500500Y-77411046D01*
X204497683Y-77369505D01*
X204453037Y-77189979D01*
X204370842Y-77024247D01*
X204319554Y-76960442D01*
X204255987Y-76881362D01*
X204239679Y-76833442D01*
X204255987Y-76788638D01*
X204295519Y-76739456D01*
X204370842Y-76645753D01*
X204453037Y-76480021D01*
X204497683Y-76300495D01*
X204500500Y-76258954D01*
X204500500Y-75702163D01*
X204517813Y-75654597D01*
X204522174Y-75649837D01*
X205362793Y-74809218D01*
X206211828Y-73960182D01*
X206219951Y-73953163D01*
X206241258Y-73937302D01*
X206274374Y-73897834D01*
X206276546Y-73895464D01*
X206282885Y-73889127D01*
X206302218Y-73864675D01*
X206302885Y-73863857D01*
X206350267Y-73807390D01*
X206350270Y-73807386D01*
X206350273Y-73807383D01*
X206351669Y-73804600D01*
X206359762Y-73791900D01*
X206361689Y-73789464D01*
X206392864Y-73722606D01*
X206393287Y-73721732D01*
X206426388Y-73655825D01*
X206427106Y-73652792D01*
X206432050Y-73638571D01*
X206433362Y-73635758D01*
X206433365Y-73635749D01*
X206438747Y-73609677D01*
X206448276Y-73563526D01*
X206448497Y-73562536D01*
X206465500Y-73490797D01*
X206465500Y-73487680D01*
X206467029Y-73472714D01*
X206467072Y-73472501D01*
X206467659Y-73469663D01*
X206466371Y-73425418D01*
X206465516Y-73395994D01*
X206465500Y-73394918D01*
X206465500Y-66000016D01*
X206482813Y-65952450D01*
X206511180Y-65931650D01*
X206542841Y-65918536D01*
X206668282Y-65822282D01*
X206764536Y-65696841D01*
X206825044Y-65550762D01*
X206840500Y-65433361D01*
X206840499Y-62844640D01*
X206825044Y-62727238D01*
X206764536Y-62581159D01*
X206723250Y-62527354D01*
X206668284Y-62455720D01*
X206668279Y-62455715D01*
X206542841Y-62359464D01*
X206396761Y-62298955D01*
X206306675Y-62287095D01*
X206279361Y-62283500D01*
X206279359Y-62283500D01*
X205200640Y-62283500D01*
X205083240Y-62298955D01*
X205083236Y-62298956D01*
X204937159Y-62359463D01*
X204811720Y-62455715D01*
X204811715Y-62455720D01*
X204715464Y-62581158D01*
X204654955Y-62727238D01*
X204639500Y-62844640D01*
X204639500Y-65433359D01*
X204654955Y-65550759D01*
X204654956Y-65550763D01*
X204715463Y-65696840D01*
X204811715Y-65822279D01*
X204811720Y-65822284D01*
X204937156Y-65918534D01*
X204937159Y-65918536D01*
X204962176Y-65928898D01*
X204968817Y-65931649D01*
X205006138Y-65965846D01*
X205014499Y-66000016D01*
X205014499Y-73074836D01*
X204997186Y-73122402D01*
X204992825Y-73127162D01*
X203332163Y-74787826D01*
X203286287Y-74809218D01*
X203279837Y-74809500D01*
X202676041Y-74809500D01*
X202634509Y-74812316D01*
X202634504Y-74812317D01*
X202634505Y-74812317D01*
X202454979Y-74856963D01*
X202454976Y-74856964D01*
X202454977Y-74856964D01*
X202289245Y-74939159D01*
X202289242Y-74939161D01*
X202145062Y-75055057D01*
X202145057Y-75055062D01*
X202029161Y-75199242D01*
X202029159Y-75199245D01*
X202029158Y-75199246D01*
X202029158Y-75199247D01*
X201946963Y-75364979D01*
X201915380Y-75491977D01*
X201902316Y-75544509D01*
X201899500Y-75586041D01*
X201899500Y-76258958D01*
X201902316Y-76300490D01*
X201902316Y-76300493D01*
X201902317Y-76300495D01*
X201946963Y-76480021D01*
X202029158Y-76645753D01*
X202105101Y-76740230D01*
X202144013Y-76788638D01*
X202160320Y-76836559D01*
X202144013Y-76881362D01*
X202080446Y-76960442D01*
X202029158Y-77024247D01*
X201946963Y-77189979D01*
X201915380Y-77316977D01*
X201902316Y-77369509D01*
X201899500Y-77411041D01*
X201899500Y-78083958D01*
X201902316Y-78125490D01*
X201902316Y-78125493D01*
X201902317Y-78125495D01*
X201946963Y-78305021D01*
X202029158Y-78470753D01*
X202029159Y-78470754D01*
X202029161Y-78470757D01*
X202145057Y-78614937D01*
X202145062Y-78614942D01*
X202266245Y-78712352D01*
X202289247Y-78730842D01*
X202454979Y-78813037D01*
X202454982Y-78813037D01*
X202458378Y-78814722D01*
X202493299Y-78851366D01*
X202499499Y-78881017D01*
X202499499Y-79089326D01*
X202482186Y-79136892D01*
X202475352Y-79144013D01*
X202332058Y-79274642D01*
X202201447Y-79447597D01*
X202201442Y-79447604D01*
X202186173Y-79478269D01*
X202149473Y-79513131D01*
X202098950Y-79516246D01*
X202080976Y-79508199D01*
X202042549Y-79484406D01*
X201981066Y-79446338D01*
X201921416Y-79423229D01*
X201778971Y-79368045D01*
X201565929Y-79328220D01*
X201565926Y-79328220D01*
X201349194Y-79328220D01*
X201349188Y-79328220D01*
X201268173Y-79343365D01*
X201218236Y-79335087D01*
X201212542Y-79331528D01*
X201204824Y-79326201D01*
X201148264Y-79304749D01*
X201146201Y-79303895D01*
X201091042Y-79279071D01*
X201091033Y-79279068D01*
X201077356Y-79276562D01*
X201064458Y-79272967D01*
X201051445Y-79268032D01*
X200991391Y-79260740D01*
X200989183Y-79260404D01*
X200929688Y-79249502D01*
X200929686Y-79249502D01*
X200917896Y-79250215D01*
X200869316Y-79253153D01*
X200867082Y-79253221D01*
X199492798Y-79253221D01*
X199490564Y-79253153D01*
X199446305Y-79250476D01*
X199430194Y-79249502D01*
X199430193Y-79249502D01*
X199430191Y-79249502D01*
X199370695Y-79260404D01*
X199368487Y-79260740D01*
X199308436Y-79268032D01*
X199308432Y-79268033D01*
X199295418Y-79272968D01*
X199282524Y-79276562D01*
X199268845Y-79279069D01*
X199268837Y-79279071D01*
X199213684Y-79303893D01*
X199211621Y-79304747D01*
X199155057Y-79326200D01*
X199155054Y-79326202D01*
X199143600Y-79334107D01*
X199131947Y-79340679D01*
X199119254Y-79346393D01*
X199119246Y-79346397D01*
X199071630Y-79383702D01*
X199069830Y-79385026D01*
X199020050Y-79419388D01*
X198979942Y-79464660D01*
X198978410Y-79466287D01*
X196641566Y-81803131D01*
X196639939Y-81804663D01*
X196594667Y-81844771D01*
X196560305Y-81894551D01*
X196558981Y-81896351D01*
X196521676Y-81943967D01*
X196521672Y-81943975D01*
X196515958Y-81956668D01*
X196509386Y-81968321D01*
X196501481Y-81979775D01*
X196501479Y-81979778D01*
X196480026Y-82036342D01*
X196479172Y-82038405D01*
X196454350Y-82093558D01*
X196454348Y-82093566D01*
X196451841Y-82107245D01*
X196448247Y-82120139D01*
X196443312Y-82133153D01*
X196443311Y-82133157D01*
X196436019Y-82193208D01*
X196435683Y-82195416D01*
X196424781Y-82254912D01*
X196428432Y-82315283D01*
X196428500Y-82317517D01*
X196428500Y-89732546D01*
X196411187Y-89780112D01*
X196406826Y-89784872D01*
X191638873Y-94552826D01*
X191592997Y-94574218D01*
X191586547Y-94574500D01*
X187854519Y-94574500D01*
X187852285Y-94574432D01*
X187808026Y-94571755D01*
X187791915Y-94570781D01*
X187791914Y-94570781D01*
X187791912Y-94570781D01*
X187732416Y-94581683D01*
X187730208Y-94582019D01*
X187670157Y-94589311D01*
X187670153Y-94589312D01*
X187657139Y-94594247D01*
X187644245Y-94597841D01*
X187630566Y-94600348D01*
X187630558Y-94600350D01*
X187575405Y-94625172D01*
X187573342Y-94626026D01*
X187516778Y-94647479D01*
X187516775Y-94647481D01*
X187505321Y-94655386D01*
X187493668Y-94661958D01*
X187480975Y-94667672D01*
X187480971Y-94667674D01*
X187433344Y-94704987D01*
X187431556Y-94706302D01*
X187408915Y-94721930D01*
X187381770Y-94740668D01*
X187341671Y-94785930D01*
X187340139Y-94787557D01*
X180503871Y-101623826D01*
X180457995Y-101645218D01*
X180451545Y-101645500D01*
X179800640Y-101645500D01*
X179683240Y-101660955D01*
X179683236Y-101660956D01*
X179537159Y-101721463D01*
X179411720Y-101817715D01*
X179411715Y-101817720D01*
X179315464Y-101943158D01*
X179254955Y-102089238D01*
X179239500Y-102206640D01*
X179239500Y-104795359D01*
X179254955Y-104912759D01*
X179254956Y-104912763D01*
X179315463Y-105058840D01*
X179411715Y-105184279D01*
X179411720Y-105184284D01*
X179431360Y-105199354D01*
X179537159Y-105280536D01*
X179683238Y-105341044D01*
X179800639Y-105356500D01*
X180879360Y-105356499D01*
X180996762Y-105341044D01*
X181142841Y-105280536D01*
X181268282Y-105184282D01*
X181364536Y-105058841D01*
X181425044Y-104912762D01*
X181440500Y-104795361D01*
X181440499Y-102628451D01*
X181457812Y-102580886D01*
X181462161Y-102576138D01*
X188091127Y-95947174D01*
X188137004Y-95925782D01*
X188143454Y-95925500D01*
X191357547Y-95925500D01*
X191405113Y-95942813D01*
X191430423Y-95986650D01*
X191421633Y-96036500D01*
X191409873Y-96051826D01*
X189860873Y-97600826D01*
X189814997Y-97622218D01*
X189808547Y-97622500D01*
X187854519Y-97622500D01*
X187852285Y-97622432D01*
X187808026Y-97619755D01*
X187791915Y-97618781D01*
X187791914Y-97618781D01*
X187791912Y-97618781D01*
X187732416Y-97629683D01*
X187730208Y-97630019D01*
X187670157Y-97637311D01*
X187670153Y-97637312D01*
X187657139Y-97642247D01*
X187644245Y-97645841D01*
X187630566Y-97648348D01*
X187630558Y-97648350D01*
X187575405Y-97673172D01*
X187573342Y-97674026D01*
X187516778Y-97695479D01*
X187516775Y-97695481D01*
X187505321Y-97703386D01*
X187493668Y-97709958D01*
X187480975Y-97715672D01*
X187480967Y-97715676D01*
X187433351Y-97752981D01*
X187431551Y-97754305D01*
X187381771Y-97788667D01*
X187341663Y-97833939D01*
X187340131Y-97835566D01*
X182417566Y-102758131D01*
X182415939Y-102759663D01*
X182370667Y-102799771D01*
X182336305Y-102849551D01*
X182334981Y-102851351D01*
X182297676Y-102898967D01*
X182297672Y-102898975D01*
X182291958Y-102911668D01*
X182285386Y-102923321D01*
X182277481Y-102934775D01*
X182277479Y-102934778D01*
X182256026Y-102991342D01*
X182255172Y-102993405D01*
X182230350Y-103048558D01*
X182230348Y-103048566D01*
X182227841Y-103062245D01*
X182224247Y-103075139D01*
X182219312Y-103088153D01*
X182219311Y-103088157D01*
X182212019Y-103148208D01*
X182211683Y-103150416D01*
X182200781Y-103209912D01*
X182204432Y-103270283D01*
X182204500Y-103272517D01*
X182204500Y-104929271D01*
X182187187Y-104976837D01*
X182158819Y-104997638D01*
X182077158Y-105031464D01*
X181951720Y-105127715D01*
X181951715Y-105127720D01*
X181855464Y-105253158D01*
X181794955Y-105399238D01*
X181779500Y-105516640D01*
X181779500Y-108105359D01*
X181794955Y-108222759D01*
X181794956Y-108222763D01*
X181855463Y-108368840D01*
X181954670Y-108498130D01*
X181953381Y-108499118D01*
X181972002Y-108539050D01*
X181958901Y-108587945D01*
X181917437Y-108616979D01*
X181898284Y-108619500D01*
X178781716Y-108619500D01*
X178734150Y-108602187D01*
X178708840Y-108558350D01*
X178717630Y-108508500D01*
X178725491Y-108498254D01*
X178725330Y-108498130D01*
X178767539Y-108443121D01*
X178824536Y-108368841D01*
X178885044Y-108222762D01*
X178900500Y-108105361D01*
X178900499Y-105516640D01*
X178885044Y-105399238D01*
X178824536Y-105253159D01*
X178783250Y-105199354D01*
X178728284Y-105127720D01*
X178728279Y-105127715D01*
X178602841Y-105031464D01*
X178521181Y-104997638D01*
X178483861Y-104963440D01*
X178475500Y-104929271D01*
X178475500Y-101910453D01*
X178492813Y-101862887D01*
X178497174Y-101858127D01*
X186567128Y-93788174D01*
X186613004Y-93766782D01*
X186619454Y-93766500D01*
X190224481Y-93766500D01*
X190226715Y-93766568D01*
X190246795Y-93767782D01*
X190287085Y-93770219D01*
X190346588Y-93759314D01*
X190348759Y-93758983D01*
X190408845Y-93751688D01*
X190421857Y-93746752D01*
X190434745Y-93743159D01*
X190448439Y-93740650D01*
X190491493Y-93721272D01*
X190503610Y-93715820D01*
X190505661Y-93714970D01*
X190562226Y-93693518D01*
X190573673Y-93685616D01*
X190585341Y-93679036D01*
X190588905Y-93677431D01*
X190598028Y-93673326D01*
X190645655Y-93636010D01*
X190647442Y-93634696D01*
X190697223Y-93600336D01*
X190697222Y-93600336D01*
X190697229Y-93600332D01*
X190737367Y-93555023D01*
X190738843Y-93553456D01*
X195153465Y-89138835D01*
X195155032Y-89137359D01*
X195200332Y-89097229D01*
X195234693Y-89047446D01*
X195235993Y-89045678D01*
X195273326Y-88998028D01*
X195279036Y-88985341D01*
X195285616Y-88973674D01*
X195293517Y-88962227D01*
X195293518Y-88962226D01*
X195314970Y-88905661D01*
X195315820Y-88903610D01*
X195321272Y-88891493D01*
X195340650Y-88848439D01*
X195343159Y-88834745D01*
X195346752Y-88821857D01*
X195351688Y-88808845D01*
X195358983Y-88748759D01*
X195359315Y-88746585D01*
X195361875Y-88732616D01*
X195370219Y-88687085D01*
X195367726Y-88645865D01*
X195366568Y-88626715D01*
X195366500Y-88624481D01*
X195366500Y-82063517D01*
X195366568Y-82061283D01*
X195368076Y-82036342D01*
X195370219Y-82000915D01*
X195362413Y-81958321D01*
X195359315Y-81941412D01*
X195358982Y-81939234D01*
X195351688Y-81879155D01*
X195346751Y-81866138D01*
X195343158Y-81853252D01*
X195340650Y-81839561D01*
X195315822Y-81784394D01*
X195314975Y-81782351D01*
X195296756Y-81734312D01*
X195293518Y-81725773D01*
X195285612Y-81714318D01*
X195279035Y-81702656D01*
X195273328Y-81689977D01*
X195273326Y-81689972D01*
X195272517Y-81688940D01*
X195236013Y-81642347D01*
X195234696Y-81640557D01*
X195200332Y-81590771D01*
X195200330Y-81590769D01*
X195155059Y-81550662D01*
X195153431Y-81549130D01*
X193070589Y-79466288D01*
X193069057Y-79464660D01*
X193028951Y-79419390D01*
X193028948Y-79419388D01*
X192979166Y-79385026D01*
X192977373Y-79383706D01*
X192949625Y-79361967D01*
X192929749Y-79346395D01*
X192928080Y-79345644D01*
X192917052Y-79340679D01*
X192905396Y-79334105D01*
X192893944Y-79326201D01*
X192837384Y-79304749D01*
X192835321Y-79303895D01*
X192780162Y-79279071D01*
X192780153Y-79279068D01*
X192766476Y-79276562D01*
X192753578Y-79272967D01*
X192740565Y-79268032D01*
X192680511Y-79260740D01*
X192678303Y-79260404D01*
X192618808Y-79249502D01*
X192618806Y-79249502D01*
X192607016Y-79250215D01*
X192558436Y-79253153D01*
X192556202Y-79253221D01*
X190292928Y-79253221D01*
X190290694Y-79253153D01*
X190246600Y-79250486D01*
X190230314Y-79249501D01*
X190230313Y-79249501D01*
X190230311Y-79249501D01*
X190170800Y-79260406D01*
X190168594Y-79260742D01*
X190163625Y-79261345D01*
X190108551Y-79268032D01*
X190108550Y-79268033D01*
X190095539Y-79272967D01*
X190082645Y-79276562D01*
X190068959Y-79279070D01*
X190013804Y-79303893D01*
X190011741Y-79304747D01*
X189955177Y-79326200D01*
X189955169Y-79326204D01*
X189947453Y-79331530D01*
X189898471Y-79344298D01*
X189891825Y-79343365D01*
X189810809Y-79328220D01*
X189810806Y-79328220D01*
X189594074Y-79328220D01*
X189594070Y-79328220D01*
X189381028Y-79368045D01*
X189178939Y-79446336D01*
X189178923Y-79446343D01*
X189079022Y-79508199D01*
X189029467Y-79518520D01*
X188984871Y-79494572D01*
X188973825Y-79478268D01*
X188967466Y-79465498D01*
X188958555Y-79447601D01*
X188958554Y-79447600D01*
X188958554Y-79447599D01*
X188958552Y-79447597D01*
X188927489Y-79406463D01*
X188827944Y-79274645D01*
X188826104Y-79272968D01*
X188684647Y-79144013D01*
X188661158Y-79099173D01*
X188660500Y-79089326D01*
X188660500Y-78881017D01*
X188677813Y-78833451D01*
X188701621Y-78814722D01*
X188705015Y-78813038D01*
X188705021Y-78813037D01*
X188870753Y-78730842D01*
X189014940Y-78614940D01*
X189130842Y-78470753D01*
X189213037Y-78305021D01*
X189257683Y-78125495D01*
X189260500Y-78083954D01*
X189260500Y-77411046D01*
X189257683Y-77369505D01*
X189213037Y-77189979D01*
X189130842Y-77024247D01*
X189079554Y-76960442D01*
X189015987Y-76881362D01*
X188999679Y-76833442D01*
X189015987Y-76788638D01*
X189055519Y-76739456D01*
X189130842Y-76645753D01*
X189213037Y-76480021D01*
X189257683Y-76300495D01*
X189260500Y-76258954D01*
X189260500Y-75586046D01*
X189257683Y-75544505D01*
X189213037Y-75364979D01*
X189130842Y-75199247D01*
X189026940Y-75069988D01*
X189014942Y-75055062D01*
X189014937Y-75055057D01*
X188870757Y-74939161D01*
X188870754Y-74939159D01*
X188870753Y-74939158D01*
X188705021Y-74856963D01*
X188525495Y-74812317D01*
X188525493Y-74812316D01*
X188525490Y-74812316D01*
X188483959Y-74809500D01*
X188483954Y-74809500D01*
X187436046Y-74809500D01*
X187436041Y-74809500D01*
X187394509Y-74812316D01*
X187394504Y-74812317D01*
X187394505Y-74812317D01*
X187214979Y-74856963D01*
X187214976Y-74856964D01*
X187214977Y-74856964D01*
X187106228Y-74910898D01*
X187055922Y-74916522D01*
X187013771Y-74888494D01*
X186999497Y-74839929D01*
X187019779Y-74793551D01*
X187020988Y-74792312D01*
X189742126Y-72071174D01*
X189788003Y-72049782D01*
X189794453Y-72049500D01*
X195558481Y-72049500D01*
X195560715Y-72049568D01*
X195580795Y-72050782D01*
X195621085Y-72053219D01*
X195680588Y-72042314D01*
X195682759Y-72041983D01*
X195742845Y-72034688D01*
X195755857Y-72029752D01*
X195768745Y-72026159D01*
X195782439Y-72023650D01*
X195825493Y-72004272D01*
X195837610Y-71998820D01*
X195839661Y-71997970D01*
X195896226Y-71976518D01*
X195907673Y-71968616D01*
X195919341Y-71962036D01*
X195922905Y-71960431D01*
X195932028Y-71956326D01*
X195979655Y-71919010D01*
X195981442Y-71917696D01*
X196031223Y-71883336D01*
X196031222Y-71883336D01*
X196031229Y-71883332D01*
X196071367Y-71838023D01*
X196072843Y-71836456D01*
X198582465Y-69326835D01*
X198584032Y-69325359D01*
X198629332Y-69285229D01*
X198663723Y-69235402D01*
X198664984Y-69233688D01*
X198702325Y-69186028D01*
X198708032Y-69173344D01*
X198714612Y-69161678D01*
X198722518Y-69150226D01*
X198743975Y-69093646D01*
X198744817Y-69091612D01*
X198769650Y-69036439D01*
X198772159Y-69022745D01*
X198775752Y-69009857D01*
X198780688Y-68996845D01*
X198787983Y-68936759D01*
X198788315Y-68934585D01*
X198799219Y-68875085D01*
X198796866Y-68836197D01*
X198795568Y-68814720D01*
X198795500Y-68812486D01*
X198795500Y-65433359D01*
X199559500Y-65433359D01*
X199574955Y-65550759D01*
X199574956Y-65550763D01*
X199635463Y-65696840D01*
X199731715Y-65822279D01*
X199731720Y-65822284D01*
X199857156Y-65918534D01*
X199857159Y-65918536D01*
X199888817Y-65931649D01*
X199938818Y-65952360D01*
X199976139Y-65986557D01*
X199984500Y-66020727D01*
X199984500Y-66178036D01*
X199967187Y-66225602D01*
X199965493Y-66227551D01*
X199927466Y-66269784D01*
X199832819Y-66433719D01*
X199774327Y-66613738D01*
X199774326Y-66613742D01*
X199774326Y-66613744D01*
X199754540Y-66802000D01*
X199763905Y-66891109D01*
X199774327Y-66990261D01*
X199832819Y-67170280D01*
X199832820Y-67170282D01*
X199832821Y-67170284D01*
X199837068Y-67177640D01*
X199927464Y-67334213D01*
X199927467Y-67334216D01*
X200000530Y-67415361D01*
X200054131Y-67474890D01*
X200207266Y-67586149D01*
X200207271Y-67586152D01*
X200303118Y-67628826D01*
X200380197Y-67663144D01*
X200565354Y-67702500D01*
X200565355Y-67702500D01*
X200754645Y-67702500D01*
X200754646Y-67702500D01*
X200939803Y-67663144D01*
X201112730Y-67586151D01*
X201265871Y-67474888D01*
X201392533Y-67334216D01*
X201487179Y-67170284D01*
X201545674Y-66990256D01*
X201565460Y-66802000D01*
X201545674Y-66613744D01*
X201487179Y-66433716D01*
X201392533Y-66269784D01*
X201354504Y-66227549D01*
X201335544Y-66180619D01*
X201335499Y-66178086D01*
X201335499Y-66020726D01*
X201352812Y-65973161D01*
X201381181Y-65952360D01*
X201462841Y-65918536D01*
X201588282Y-65822282D01*
X201684536Y-65696841D01*
X201745044Y-65550762D01*
X201760500Y-65433361D01*
X201760499Y-62844640D01*
X201745044Y-62727238D01*
X201684536Y-62581159D01*
X201643250Y-62527354D01*
X201588284Y-62455720D01*
X201588279Y-62455715D01*
X201462841Y-62359464D01*
X201316761Y-62298955D01*
X201226675Y-62287095D01*
X201199361Y-62283500D01*
X201199359Y-62283500D01*
X200120640Y-62283500D01*
X200003240Y-62298955D01*
X200003236Y-62298956D01*
X199857159Y-62359463D01*
X199731720Y-62455715D01*
X199731715Y-62455720D01*
X199635464Y-62581158D01*
X199574955Y-62727238D01*
X199559500Y-62844640D01*
X199559500Y-65433359D01*
X198795500Y-65433359D01*
X198795500Y-62710727D01*
X198812813Y-62663161D01*
X198841182Y-62642360D01*
X198922841Y-62608536D01*
X199048282Y-62512282D01*
X199144536Y-62386841D01*
X199205044Y-62240762D01*
X199219385Y-62131828D01*
X202199999Y-62131828D01*
X202206402Y-62191375D01*
X202206403Y-62191380D01*
X202256645Y-62326087D01*
X202256646Y-62326088D01*
X202342811Y-62441188D01*
X202457911Y-62527353D01*
X202457912Y-62527354D01*
X202592619Y-62577596D01*
X202592624Y-62577597D01*
X202652171Y-62584000D01*
X202950000Y-62584000D01*
X202950000Y-61079000D01*
X203450000Y-61079000D01*
X203450000Y-62584000D01*
X203747829Y-62584000D01*
X203807375Y-62577597D01*
X203807380Y-62577596D01*
X203942087Y-62527354D01*
X203942088Y-62527353D01*
X204057188Y-62441188D01*
X204143353Y-62326088D01*
X204143354Y-62326087D01*
X204193596Y-62191380D01*
X204193597Y-62191375D01*
X204200000Y-62131828D01*
X204200000Y-61079000D01*
X203450000Y-61079000D01*
X202950000Y-61079000D01*
X202200000Y-61079000D01*
X202199999Y-62131828D01*
X199219385Y-62131828D01*
X199220500Y-62123361D01*
X199220499Y-59534640D01*
X199205044Y-59417238D01*
X199144536Y-59271159D01*
X199144535Y-59271158D01*
X199045330Y-59141870D01*
X199046618Y-59140881D01*
X199027998Y-59100950D01*
X199041099Y-59052055D01*
X199082563Y-59023021D01*
X199101716Y-59020500D01*
X202382716Y-59020500D01*
X202430282Y-59037813D01*
G37*
%TD.AperFunction*%
%TA.AperFunction,Conductor*%
G36*
X184287945Y-102884834D02*
G01*
X184316978Y-102926298D01*
X184319500Y-102945451D01*
X184319500Y-104795359D01*
X184334955Y-104912759D01*
X184334956Y-104912763D01*
X184395463Y-105058840D01*
X184491715Y-105184279D01*
X184491720Y-105184284D01*
X184511360Y-105199354D01*
X184617159Y-105280536D01*
X184763238Y-105341044D01*
X184880639Y-105356500D01*
X185959360Y-105356499D01*
X186076762Y-105341044D01*
X186222841Y-105280536D01*
X186348282Y-105184282D01*
X186444536Y-105058841D01*
X186505044Y-104912762D01*
X186520500Y-104795361D01*
X186520499Y-104237243D01*
X186537812Y-104189678D01*
X186581649Y-104164368D01*
X186585548Y-104163788D01*
X186602845Y-104161688D01*
X186615857Y-104156752D01*
X186628745Y-104153159D01*
X186642439Y-104150650D01*
X186685493Y-104131272D01*
X186697610Y-104125820D01*
X186699661Y-104124970D01*
X186756226Y-104103518D01*
X186767673Y-104095616D01*
X186779341Y-104089036D01*
X186782905Y-104087431D01*
X186792028Y-104083326D01*
X186839655Y-104046010D01*
X186841442Y-104044696D01*
X186891223Y-104010336D01*
X186891222Y-104010336D01*
X186891229Y-104010332D01*
X186931367Y-103965023D01*
X186932843Y-103963456D01*
X187158175Y-103738124D01*
X187204050Y-103716733D01*
X187252945Y-103729834D01*
X187281979Y-103771298D01*
X187284500Y-103790451D01*
X187284500Y-104929271D01*
X187267187Y-104976837D01*
X187238819Y-104997638D01*
X187157158Y-105031464D01*
X187031720Y-105127715D01*
X187031715Y-105127720D01*
X186935464Y-105253158D01*
X186874955Y-105399238D01*
X186859500Y-105516640D01*
X186859500Y-108105359D01*
X186874955Y-108222759D01*
X186874956Y-108222763D01*
X186935463Y-108368840D01*
X187034670Y-108498130D01*
X187033381Y-108499118D01*
X187052002Y-108539050D01*
X187038901Y-108587945D01*
X186997437Y-108616979D01*
X186978284Y-108619500D01*
X183861716Y-108619500D01*
X183814150Y-108602187D01*
X183788840Y-108558350D01*
X183797630Y-108508500D01*
X183805491Y-108498254D01*
X183805330Y-108498130D01*
X183847539Y-108443121D01*
X183904536Y-108368841D01*
X183965044Y-108222762D01*
X183980500Y-108105361D01*
X183980499Y-105516640D01*
X183965044Y-105399238D01*
X183904536Y-105253159D01*
X183863250Y-105199354D01*
X183808284Y-105127720D01*
X183808279Y-105127715D01*
X183682841Y-105031464D01*
X183601181Y-104997638D01*
X183563861Y-104963440D01*
X183555500Y-104929271D01*
X183555500Y-103561452D01*
X183572813Y-103513886D01*
X183577174Y-103509126D01*
X183876388Y-103209912D01*
X184193175Y-102893124D01*
X184239050Y-102871733D01*
X184287945Y-102884834D01*
G37*
%TD.AperFunction*%
%TA.AperFunction,Conductor*%
G36*
X203245199Y-88271535D02*
G01*
X203249836Y-88275425D01*
X203388844Y-88402147D01*
X203388845Y-88402148D01*
X203388849Y-88402151D01*
X203391568Y-88404204D01*
X203390330Y-88405842D01*
X203417395Y-88440168D01*
X203421119Y-88463348D01*
X203421120Y-91248926D01*
X203403807Y-91296492D01*
X203399446Y-91301252D01*
X192577566Y-102123131D01*
X192575939Y-102124663D01*
X192530667Y-102164771D01*
X192496305Y-102214551D01*
X192494981Y-102216351D01*
X192457676Y-102263967D01*
X192457672Y-102263975D01*
X192451958Y-102276668D01*
X192445386Y-102288321D01*
X192437481Y-102299775D01*
X192437479Y-102299778D01*
X192416026Y-102356342D01*
X192415172Y-102358405D01*
X192390350Y-102413558D01*
X192390348Y-102413566D01*
X192387841Y-102427245D01*
X192384247Y-102440139D01*
X192379312Y-102453153D01*
X192379311Y-102453157D01*
X192372019Y-102513208D01*
X192371683Y-102515416D01*
X192360781Y-102574912D01*
X192364432Y-102635283D01*
X192364500Y-102637517D01*
X192364500Y-104929271D01*
X192347187Y-104976837D01*
X192318819Y-104997638D01*
X192237158Y-105031464D01*
X192111720Y-105127715D01*
X192111715Y-105127720D01*
X192015464Y-105253158D01*
X191954955Y-105399238D01*
X191939500Y-105516640D01*
X191939500Y-108105359D01*
X191954955Y-108222759D01*
X191954956Y-108222763D01*
X192015463Y-108368840D01*
X192114670Y-108498130D01*
X192113381Y-108499118D01*
X192132002Y-108539050D01*
X192118901Y-108587945D01*
X192077437Y-108616979D01*
X192058284Y-108619500D01*
X188941716Y-108619500D01*
X188894150Y-108602187D01*
X188868840Y-108558350D01*
X188877630Y-108508500D01*
X188885491Y-108498254D01*
X188885330Y-108498130D01*
X188927539Y-108443121D01*
X188984536Y-108368841D01*
X189045044Y-108222762D01*
X189060500Y-108105361D01*
X189060499Y-105516640D01*
X189045044Y-105399238D01*
X188984536Y-105253159D01*
X188943250Y-105199354D01*
X188888284Y-105127720D01*
X188888279Y-105127715D01*
X188762841Y-105031464D01*
X188681181Y-104997638D01*
X188643861Y-104963440D01*
X188635500Y-104929271D01*
X188635500Y-103561452D01*
X188652813Y-103513886D01*
X188657163Y-103509137D01*
X189273174Y-102893125D01*
X189319050Y-102871734D01*
X189367945Y-102884835D01*
X189396979Y-102926299D01*
X189399500Y-102945452D01*
X189399500Y-104795359D01*
X189414955Y-104912759D01*
X189414956Y-104912763D01*
X189475463Y-105058840D01*
X189571715Y-105184279D01*
X189571720Y-105184284D01*
X189591360Y-105199354D01*
X189697159Y-105280536D01*
X189843238Y-105341044D01*
X189960639Y-105356500D01*
X191039360Y-105356499D01*
X191156762Y-105341044D01*
X191302841Y-105280536D01*
X191428282Y-105184282D01*
X191524536Y-105058841D01*
X191585044Y-104912762D01*
X191600500Y-104795361D01*
X191600499Y-102628451D01*
X191617812Y-102580886D01*
X191622162Y-102576137D01*
X202765836Y-91432463D01*
X202767403Y-91430987D01*
X202812712Y-91390849D01*
X202847078Y-91341059D01*
X202848390Y-91339275D01*
X202885706Y-91291648D01*
X202891416Y-91278961D01*
X202897996Y-91267294D01*
X202905897Y-91255847D01*
X202905898Y-91255846D01*
X202927350Y-91199281D01*
X202928200Y-91197230D01*
X202937254Y-91177112D01*
X202953030Y-91142059D01*
X202955539Y-91128365D01*
X202959132Y-91115477D01*
X202964068Y-91102465D01*
X202971363Y-91042379D01*
X202971695Y-91040205D01*
X202982599Y-90980705D01*
X202978948Y-90920335D01*
X202978880Y-90918101D01*
X202978880Y-88463348D01*
X202996193Y-88415782D01*
X203008898Y-88404821D01*
X203008432Y-88404204D01*
X203011150Y-88402151D01*
X203011150Y-88402150D01*
X203011156Y-88402147D01*
X203150148Y-88275438D01*
X203196962Y-88256189D01*
X203245199Y-88271535D01*
G37*
%TD.AperFunction*%
%TA.AperFunction,Conductor*%
G36*
X197412945Y-101951835D02*
G01*
X197441979Y-101993299D01*
X197444500Y-102012452D01*
X197444500Y-104929271D01*
X197427187Y-104976837D01*
X197398819Y-104997638D01*
X197317158Y-105031464D01*
X197191720Y-105127715D01*
X197191715Y-105127720D01*
X197095464Y-105253158D01*
X197034955Y-105399238D01*
X197019500Y-105516640D01*
X197019500Y-108105359D01*
X197034955Y-108222759D01*
X197034956Y-108222763D01*
X197095463Y-108368840D01*
X197194670Y-108498130D01*
X197193381Y-108499118D01*
X197212002Y-108539050D01*
X197198901Y-108587945D01*
X197157437Y-108616979D01*
X197138284Y-108619500D01*
X194021716Y-108619500D01*
X193974150Y-108602187D01*
X193948840Y-108558350D01*
X193957630Y-108508500D01*
X193965491Y-108498254D01*
X193965330Y-108498130D01*
X194007539Y-108443121D01*
X194064536Y-108368841D01*
X194125044Y-108222762D01*
X194140500Y-108105361D01*
X194140499Y-105516640D01*
X194125044Y-105399238D01*
X194064536Y-105253159D01*
X194023250Y-105199354D01*
X193968284Y-105127720D01*
X193968279Y-105127715D01*
X193842841Y-105031464D01*
X193761181Y-104997638D01*
X193723861Y-104963440D01*
X193715500Y-104929271D01*
X193715500Y-102926452D01*
X193732813Y-102878886D01*
X193737163Y-102874137D01*
X194353174Y-102258125D01*
X194399050Y-102236734D01*
X194447945Y-102249835D01*
X194476979Y-102291299D01*
X194479500Y-102310452D01*
X194479500Y-104795359D01*
X194494955Y-104912759D01*
X194494956Y-104912763D01*
X194555463Y-105058840D01*
X194651715Y-105184279D01*
X194651720Y-105184284D01*
X194671360Y-105199354D01*
X194777159Y-105280536D01*
X194923238Y-105341044D01*
X195040639Y-105356500D01*
X196119360Y-105356499D01*
X196236762Y-105341044D01*
X196382841Y-105280536D01*
X196508282Y-105184282D01*
X196604536Y-105058841D01*
X196665044Y-104912762D01*
X196680500Y-104795361D01*
X196680499Y-102628452D01*
X196697812Y-102580887D01*
X196702173Y-102576127D01*
X197061949Y-102216351D01*
X197318175Y-101960125D01*
X197364050Y-101938734D01*
X197412945Y-101951835D01*
G37*
%TD.AperFunction*%
%TA.AperFunction,Conductor*%
G36*
X208334945Y-92299835D02*
G01*
X208363979Y-92341299D01*
X208366500Y-92360452D01*
X208366500Y-94050545D01*
X208349187Y-94098111D01*
X208344826Y-94102871D01*
X200823871Y-101623826D01*
X200777995Y-101645218D01*
X200771545Y-101645500D01*
X200120640Y-101645500D01*
X200003240Y-101660955D01*
X200003236Y-101660956D01*
X199857159Y-101721463D01*
X199731720Y-101817715D01*
X199731715Y-101817720D01*
X199635464Y-101943158D01*
X199574955Y-102089238D01*
X199559500Y-102206640D01*
X199559500Y-104795359D01*
X199574955Y-104912759D01*
X199574956Y-104912763D01*
X199635463Y-105058840D01*
X199731715Y-105184279D01*
X199731720Y-105184284D01*
X199751360Y-105199354D01*
X199857159Y-105280536D01*
X200003238Y-105341044D01*
X200120639Y-105356500D01*
X201199360Y-105356499D01*
X201316762Y-105341044D01*
X201462841Y-105280536D01*
X201588282Y-105184282D01*
X201684536Y-105058841D01*
X201745044Y-104912762D01*
X201760500Y-104795361D01*
X201760499Y-102628451D01*
X201777812Y-102580886D01*
X201782162Y-102576137D01*
X209383175Y-94975124D01*
X209429050Y-94953733D01*
X209477945Y-94966834D01*
X209506979Y-95008298D01*
X209509500Y-95027451D01*
X209509500Y-95066545D01*
X209492187Y-95114111D01*
X209487826Y-95118871D01*
X202737566Y-101869131D01*
X202735939Y-101870663D01*
X202690667Y-101910771D01*
X202656305Y-101960551D01*
X202654981Y-101962351D01*
X202617676Y-102009967D01*
X202617672Y-102009975D01*
X202611958Y-102022668D01*
X202605386Y-102034321D01*
X202597481Y-102045775D01*
X202597479Y-102045778D01*
X202576026Y-102102342D01*
X202575172Y-102104405D01*
X202550350Y-102159558D01*
X202550348Y-102159566D01*
X202547841Y-102173245D01*
X202544247Y-102186139D01*
X202539312Y-102199153D01*
X202539311Y-102199157D01*
X202532019Y-102259208D01*
X202531683Y-102261416D01*
X202520781Y-102320912D01*
X202524432Y-102381283D01*
X202524500Y-102383517D01*
X202524500Y-104929271D01*
X202507187Y-104976837D01*
X202478819Y-104997638D01*
X202397158Y-105031464D01*
X202271720Y-105127715D01*
X202271715Y-105127720D01*
X202175464Y-105253158D01*
X202114955Y-105399238D01*
X202099500Y-105516640D01*
X202099500Y-108105359D01*
X202114955Y-108222759D01*
X202114956Y-108222763D01*
X202175463Y-108368840D01*
X202274670Y-108498130D01*
X202273381Y-108499118D01*
X202292002Y-108539050D01*
X202278901Y-108587945D01*
X202237437Y-108616979D01*
X202218284Y-108619500D01*
X199101716Y-108619500D01*
X199054150Y-108602187D01*
X199028840Y-108558350D01*
X199037630Y-108508500D01*
X199045491Y-108498254D01*
X199045330Y-108498130D01*
X199087539Y-108443121D01*
X199144536Y-108368841D01*
X199205044Y-108222762D01*
X199220500Y-108105361D01*
X199220499Y-105516640D01*
X199205044Y-105399238D01*
X199144536Y-105253159D01*
X199103250Y-105199354D01*
X199048284Y-105127720D01*
X199048279Y-105127715D01*
X198922841Y-105031464D01*
X198841180Y-104997638D01*
X198803860Y-104963440D01*
X198795499Y-104929275D01*
X198795499Y-101783451D01*
X198812812Y-101735886D01*
X198817162Y-101731137D01*
X208240175Y-92308125D01*
X208286050Y-92286734D01*
X208334945Y-92299835D01*
G37*
%TD.AperFunction*%
%TA.AperFunction,Conductor*%
G36*
X151446149Y-59055533D02*
G01*
X151474027Y-59097783D01*
X151468225Y-59148069D01*
X151460756Y-59160003D01*
X151410574Y-59225401D01*
X151375464Y-59271159D01*
X151375463Y-59271160D01*
X151375463Y-59271161D01*
X151314955Y-59417238D01*
X151299500Y-59534640D01*
X151299500Y-60079500D01*
X151282187Y-60127066D01*
X151238350Y-60152376D01*
X151225500Y-60153500D01*
X150086519Y-60153500D01*
X150084285Y-60153432D01*
X150040026Y-60150755D01*
X150023915Y-60149781D01*
X150023914Y-60149781D01*
X150023912Y-60149781D01*
X149964416Y-60160683D01*
X149962208Y-60161019D01*
X149902157Y-60168311D01*
X149902153Y-60168312D01*
X149889139Y-60173247D01*
X149876245Y-60176841D01*
X149862566Y-60179348D01*
X149862558Y-60179350D01*
X149807405Y-60204172D01*
X149805342Y-60205026D01*
X149748778Y-60226479D01*
X149748775Y-60226481D01*
X149737321Y-60234386D01*
X149725668Y-60240958D01*
X149712975Y-60246672D01*
X149712971Y-60246674D01*
X149665344Y-60283987D01*
X149663556Y-60285302D01*
X149640915Y-60300930D01*
X149613770Y-60319668D01*
X149573671Y-60364930D01*
X149572139Y-60366557D01*
X145841566Y-64097131D01*
X145839939Y-64098663D01*
X145794667Y-64138771D01*
X145760305Y-64188551D01*
X145758981Y-64190351D01*
X145721676Y-64237967D01*
X145721672Y-64237975D01*
X145715958Y-64250668D01*
X145709386Y-64262321D01*
X145701481Y-64273775D01*
X145701479Y-64273778D01*
X145680026Y-64330342D01*
X145679172Y-64332405D01*
X145654350Y-64387558D01*
X145654348Y-64387566D01*
X145651841Y-64401245D01*
X145648247Y-64414139D01*
X145643312Y-64427153D01*
X145643311Y-64427157D01*
X145636019Y-64487208D01*
X145635683Y-64489416D01*
X145624781Y-64548912D01*
X145628432Y-64609283D01*
X145628500Y-64611517D01*
X145628500Y-85068481D01*
X145628432Y-85070715D01*
X145624781Y-85131085D01*
X145635683Y-85190582D01*
X145636019Y-85192790D01*
X145643311Y-85252843D01*
X145643311Y-85252844D01*
X145648246Y-85265857D01*
X145651841Y-85278755D01*
X145654347Y-85292432D01*
X145654350Y-85292441D01*
X145679174Y-85347600D01*
X145680028Y-85349663D01*
X145701480Y-85406223D01*
X145709384Y-85417675D01*
X145715958Y-85429331D01*
X145718696Y-85435412D01*
X145721674Y-85442028D01*
X145731361Y-85454392D01*
X145758985Y-85489652D01*
X145760303Y-85491442D01*
X145765937Y-85499605D01*
X145794669Y-85541230D01*
X145839939Y-85581336D01*
X145841567Y-85582868D01*
X148594338Y-88335640D01*
X148595870Y-88337268D01*
X148635971Y-88382532D01*
X148685746Y-88416889D01*
X148687546Y-88418214D01*
X148715569Y-88440168D01*
X148735172Y-88455526D01*
X148741887Y-88458548D01*
X148747856Y-88461235D01*
X148759518Y-88467812D01*
X148770973Y-88475718D01*
X148778615Y-88478616D01*
X148827551Y-88497175D01*
X148829594Y-88498022D01*
X148884761Y-88522850D01*
X148898452Y-88525358D01*
X148911338Y-88528951D01*
X148924355Y-88533888D01*
X148984434Y-88541182D01*
X148986612Y-88541515D01*
X149003521Y-88544613D01*
X149046115Y-88552419D01*
X149087904Y-88549891D01*
X149106485Y-88548768D01*
X149108719Y-88548700D01*
X151049825Y-88548700D01*
X151076556Y-88553696D01*
X151094853Y-88560785D01*
X151181965Y-88594533D01*
X151181971Y-88594535D01*
X151395014Y-88634360D01*
X151611746Y-88634360D01*
X151824789Y-88594535D01*
X152026886Y-88516242D01*
X152211156Y-88402147D01*
X152350148Y-88275438D01*
X152396962Y-88256189D01*
X152445199Y-88271535D01*
X152449836Y-88275425D01*
X152588844Y-88402147D01*
X152773114Y-88516242D01*
X152945386Y-88582980D01*
X152975205Y-88594533D01*
X152975211Y-88594535D01*
X153188254Y-88634360D01*
X153404986Y-88634360D01*
X153618029Y-88594535D01*
X153692594Y-88565647D01*
X153714857Y-88560785D01*
X153735019Y-88559566D01*
X153737239Y-88559500D01*
X155680481Y-88559500D01*
X155682715Y-88559568D01*
X155702795Y-88560782D01*
X155743085Y-88563219D01*
X155802588Y-88552314D01*
X155804759Y-88551983D01*
X155864845Y-88544688D01*
X155877857Y-88539752D01*
X155890745Y-88536159D01*
X155904439Y-88533650D01*
X155947493Y-88514272D01*
X155959610Y-88508820D01*
X155961661Y-88507970D01*
X156018226Y-88486518D01*
X156029673Y-88478616D01*
X156041341Y-88472036D01*
X156050726Y-88467812D01*
X156054028Y-88466326D01*
X156101655Y-88429010D01*
X156103442Y-88427696D01*
X156135104Y-88405842D01*
X156153229Y-88393332D01*
X156193367Y-88348023D01*
X156194843Y-88346456D01*
X158958456Y-85582843D01*
X158960023Y-85581367D01*
X159005332Y-85541229D01*
X159039698Y-85491439D01*
X159041013Y-85489652D01*
X159078326Y-85442028D01*
X159084036Y-85429341D01*
X159090616Y-85417674D01*
X159098517Y-85406227D01*
X159098518Y-85406226D01*
X159119970Y-85349661D01*
X159120820Y-85347610D01*
X159126272Y-85335493D01*
X159145650Y-85292439D01*
X159148159Y-85278745D01*
X159151752Y-85265857D01*
X159156688Y-85252845D01*
X159163983Y-85192759D01*
X159164315Y-85190585D01*
X159165844Y-85182240D01*
X159175219Y-85131085D01*
X159171568Y-85070715D01*
X159171500Y-85068481D01*
X159171500Y-74224453D01*
X159188813Y-74176887D01*
X159193174Y-74172127D01*
X164862128Y-68503174D01*
X164908004Y-68481782D01*
X164914454Y-68481500D01*
X165931867Y-68481500D01*
X165979433Y-68498813D01*
X166004743Y-68542650D01*
X165995953Y-68592500D01*
X165984193Y-68607826D01*
X160331566Y-74260451D01*
X160329939Y-74261983D01*
X160284667Y-74302091D01*
X160250305Y-74351871D01*
X160248981Y-74353671D01*
X160211676Y-74401287D01*
X160211672Y-74401295D01*
X160205958Y-74413988D01*
X160199386Y-74425641D01*
X160191481Y-74437095D01*
X160191479Y-74437098D01*
X160170026Y-74493662D01*
X160169172Y-74495725D01*
X160144350Y-74550878D01*
X160144348Y-74550886D01*
X160141841Y-74564565D01*
X160138247Y-74577459D01*
X160133312Y-74590473D01*
X160133311Y-74590477D01*
X160126019Y-74650528D01*
X160125683Y-74652736D01*
X160114781Y-74712232D01*
X160118432Y-74772603D01*
X160118500Y-74774837D01*
X160118500Y-85588481D01*
X160118432Y-85590715D01*
X160114781Y-85651085D01*
X160125683Y-85710582D01*
X160126019Y-85712790D01*
X160133311Y-85772843D01*
X160133311Y-85772844D01*
X160138246Y-85785857D01*
X160141841Y-85798755D01*
X160144347Y-85812432D01*
X160144350Y-85812441D01*
X160169174Y-85867600D01*
X160170028Y-85869663D01*
X160191480Y-85926223D01*
X160199384Y-85937675D01*
X160205958Y-85949331D01*
X160210923Y-85960359D01*
X160211674Y-85962028D01*
X160221990Y-85975195D01*
X160248985Y-86009652D01*
X160250306Y-86011447D01*
X160283515Y-86059559D01*
X160284669Y-86061230D01*
X160329939Y-86101336D01*
X160331567Y-86102868D01*
X162829130Y-88600431D01*
X162830662Y-88602059D01*
X162870769Y-88647330D01*
X162870771Y-88647332D01*
X162920557Y-88681696D01*
X162922340Y-88683008D01*
X162969972Y-88720326D01*
X162976687Y-88723348D01*
X162982656Y-88726035D01*
X162994318Y-88732612D01*
X163005773Y-88740518D01*
X163021771Y-88746585D01*
X163062351Y-88761975D01*
X163064394Y-88762822D01*
X163119561Y-88787650D01*
X163133252Y-88790158D01*
X163146138Y-88793751D01*
X163159155Y-88798688D01*
X163219234Y-88805982D01*
X163221412Y-88806315D01*
X163235219Y-88808845D01*
X163280915Y-88817219D01*
X163322704Y-88814691D01*
X163341285Y-88813568D01*
X163343519Y-88813500D01*
X166048761Y-88813500D01*
X166050995Y-88813568D01*
X166071075Y-88814782D01*
X166111365Y-88817219D01*
X166170868Y-88806314D01*
X166173039Y-88805983D01*
X166233125Y-88798688D01*
X166246137Y-88793752D01*
X166259025Y-88790159D01*
X166272719Y-88787650D01*
X166315773Y-88768272D01*
X166327890Y-88762820D01*
X166329941Y-88761970D01*
X166386506Y-88740518D01*
X166397953Y-88732616D01*
X166409621Y-88726036D01*
X166413185Y-88724431D01*
X166422308Y-88720326D01*
X166469935Y-88683010D01*
X166471722Y-88681696D01*
X166521503Y-88647336D01*
X166521502Y-88647336D01*
X166521509Y-88647332D01*
X166521514Y-88647325D01*
X166524857Y-88644365D01*
X166526186Y-88645865D01*
X166564166Y-88625251D01*
X166588689Y-88625699D01*
X166635014Y-88634360D01*
X166851746Y-88634360D01*
X167064789Y-88594535D01*
X167266886Y-88516242D01*
X167451156Y-88402147D01*
X167590148Y-88275438D01*
X167636962Y-88256189D01*
X167685199Y-88271535D01*
X167689836Y-88275425D01*
X167828844Y-88402147D01*
X168013114Y-88516242D01*
X168185386Y-88582980D01*
X168215205Y-88594533D01*
X168215211Y-88594535D01*
X168428254Y-88634360D01*
X168644986Y-88634360D01*
X168691308Y-88625700D01*
X168741245Y-88633977D01*
X168754704Y-88644851D01*
X168755138Y-88644362D01*
X168758485Y-88647327D01*
X168758489Y-88647329D01*
X168758491Y-88647332D01*
X168808277Y-88681696D01*
X168810060Y-88683008D01*
X168857692Y-88720326D01*
X168864407Y-88723348D01*
X168870376Y-88726035D01*
X168882038Y-88732612D01*
X168893493Y-88740518D01*
X168909491Y-88746585D01*
X168950071Y-88761975D01*
X168952114Y-88762822D01*
X169007281Y-88787650D01*
X169020972Y-88790158D01*
X169033858Y-88793751D01*
X169046875Y-88798688D01*
X169106954Y-88805982D01*
X169109132Y-88806315D01*
X169122939Y-88808845D01*
X169168635Y-88817219D01*
X169210424Y-88814691D01*
X169229005Y-88813568D01*
X169231239Y-88813500D01*
X172698481Y-88813500D01*
X172700715Y-88813568D01*
X172720795Y-88814782D01*
X172761085Y-88817219D01*
X172820588Y-88806314D01*
X172822759Y-88805983D01*
X172882845Y-88798688D01*
X172895857Y-88793752D01*
X172908745Y-88790159D01*
X172922439Y-88787650D01*
X172965493Y-88768272D01*
X172977610Y-88762820D01*
X172979661Y-88761970D01*
X173036226Y-88740518D01*
X173047673Y-88732616D01*
X173059341Y-88726036D01*
X173062905Y-88724431D01*
X173072028Y-88720326D01*
X173119655Y-88683010D01*
X173121442Y-88681696D01*
X173171223Y-88647336D01*
X173171222Y-88647336D01*
X173171229Y-88647332D01*
X173211367Y-88602023D01*
X173212843Y-88600456D01*
X186642278Y-75171022D01*
X186688153Y-75149631D01*
X186737048Y-75162732D01*
X186766082Y-75204196D01*
X186761670Y-75254623D01*
X186760898Y-75256228D01*
X186706963Y-75364979D01*
X186675380Y-75491977D01*
X186662316Y-75544509D01*
X186659500Y-75586041D01*
X186659500Y-76258958D01*
X186662316Y-76300490D01*
X186662316Y-76300493D01*
X186662317Y-76300495D01*
X186706963Y-76480021D01*
X186789158Y-76645753D01*
X186865101Y-76740230D01*
X186904013Y-76788638D01*
X186920320Y-76836559D01*
X186904013Y-76881362D01*
X186840446Y-76960442D01*
X186789158Y-77024247D01*
X186706963Y-77189979D01*
X186675380Y-77316977D01*
X186662316Y-77369509D01*
X186659500Y-77411041D01*
X186659500Y-78083958D01*
X186662316Y-78125490D01*
X186662316Y-78125493D01*
X186662317Y-78125495D01*
X186706963Y-78305021D01*
X186789158Y-78470753D01*
X186789159Y-78470754D01*
X186789161Y-78470757D01*
X186905057Y-78614937D01*
X186905062Y-78614942D01*
X187026245Y-78712352D01*
X187049247Y-78730842D01*
X187214979Y-78813037D01*
X187214983Y-78813038D01*
X187218379Y-78814722D01*
X187253300Y-78851366D01*
X187259500Y-78881017D01*
X187259500Y-79089326D01*
X187242187Y-79136892D01*
X187235353Y-79144013D01*
X187092058Y-79274642D01*
X186961447Y-79447597D01*
X186961442Y-79447604D01*
X186946173Y-79478269D01*
X186909473Y-79513131D01*
X186858950Y-79516246D01*
X186840976Y-79508199D01*
X186802549Y-79484406D01*
X186741066Y-79446338D01*
X186681416Y-79423229D01*
X186538971Y-79368045D01*
X186325929Y-79328220D01*
X186325926Y-79328220D01*
X186109194Y-79328220D01*
X186109188Y-79328220D01*
X186028173Y-79343365D01*
X185978236Y-79335087D01*
X185972542Y-79331528D01*
X185964824Y-79326201D01*
X185908264Y-79304749D01*
X185906201Y-79303895D01*
X185851042Y-79279071D01*
X185851033Y-79279068D01*
X185837356Y-79276562D01*
X185824458Y-79272967D01*
X185811445Y-79268032D01*
X185751391Y-79260740D01*
X185749183Y-79260404D01*
X185689688Y-79249502D01*
X185689686Y-79249502D01*
X185677896Y-79250215D01*
X185629316Y-79253153D01*
X185627082Y-79253221D01*
X183871798Y-79253221D01*
X183869564Y-79253153D01*
X183825305Y-79250476D01*
X183809194Y-79249502D01*
X183809193Y-79249502D01*
X183809191Y-79249502D01*
X183749695Y-79260404D01*
X183747487Y-79260740D01*
X183687436Y-79268032D01*
X183687432Y-79268033D01*
X183674418Y-79272968D01*
X183661524Y-79276562D01*
X183647845Y-79279069D01*
X183647837Y-79279071D01*
X183592684Y-79303893D01*
X183590621Y-79304747D01*
X183534057Y-79326200D01*
X183534054Y-79326202D01*
X183522600Y-79334107D01*
X183510947Y-79340679D01*
X183498254Y-79346393D01*
X183498246Y-79346397D01*
X183450630Y-79383702D01*
X183448830Y-79385026D01*
X183399050Y-79419388D01*
X183358942Y-79464660D01*
X183357410Y-79466287D01*
X173350873Y-89472826D01*
X173304997Y-89494218D01*
X173298547Y-89494500D01*
X165187519Y-89494500D01*
X165185285Y-89494432D01*
X165141026Y-89491755D01*
X165124915Y-89490781D01*
X165124914Y-89490781D01*
X165124912Y-89490781D01*
X165065416Y-89501683D01*
X165063208Y-89502019D01*
X165003157Y-89509311D01*
X165003153Y-89509312D01*
X164990139Y-89514247D01*
X164977245Y-89517841D01*
X164963566Y-89520348D01*
X164963558Y-89520350D01*
X164908405Y-89545172D01*
X164906342Y-89546026D01*
X164849778Y-89567479D01*
X164849775Y-89567481D01*
X164838321Y-89575386D01*
X164826668Y-89581958D01*
X164813975Y-89587672D01*
X164813971Y-89587674D01*
X164766344Y-89624987D01*
X164764556Y-89626302D01*
X164741915Y-89641930D01*
X164714770Y-89660668D01*
X164674671Y-89705930D01*
X164673139Y-89707557D01*
X151937566Y-102443131D01*
X151935939Y-102444663D01*
X151890667Y-102484771D01*
X151856305Y-102534551D01*
X151854981Y-102536351D01*
X151817676Y-102583967D01*
X151817672Y-102583975D01*
X151811958Y-102596668D01*
X151805386Y-102608321D01*
X151797481Y-102619775D01*
X151797479Y-102619778D01*
X151776026Y-102676342D01*
X151775172Y-102678405D01*
X151750350Y-102733558D01*
X151750348Y-102733566D01*
X151747841Y-102747245D01*
X151744247Y-102760139D01*
X151739312Y-102773153D01*
X151739311Y-102773157D01*
X151732019Y-102833208D01*
X151731683Y-102835416D01*
X151720781Y-102894912D01*
X151720781Y-102894914D01*
X151720781Y-102894915D01*
X151721027Y-102898975D01*
X151724432Y-102955283D01*
X151724500Y-102957517D01*
X151724500Y-104929271D01*
X151707187Y-104976837D01*
X151678819Y-104997638D01*
X151597158Y-105031464D01*
X151471720Y-105127715D01*
X151471715Y-105127720D01*
X151375464Y-105253158D01*
X151314955Y-105399238D01*
X151299500Y-105516640D01*
X151299500Y-108105359D01*
X151314955Y-108222759D01*
X151314956Y-108222763D01*
X151375463Y-108368840D01*
X151460755Y-108479996D01*
X151475977Y-108528272D01*
X151456605Y-108575038D01*
X151411706Y-108598411D01*
X151397636Y-108598912D01*
X151178790Y-108585842D01*
X150430385Y-108541147D01*
X150428964Y-108541034D01*
X149449118Y-108443297D01*
X149447657Y-108443121D01*
X148472541Y-108306517D01*
X148471088Y-108306284D01*
X147502145Y-108131016D01*
X147500710Y-108130727D01*
X147272513Y-108080005D01*
X146539509Y-107917076D01*
X146538080Y-107916729D01*
X145712961Y-107698568D01*
X145586091Y-107665023D01*
X145584685Y-107664621D01*
X144643514Y-107375283D01*
X144642116Y-107374823D01*
X143713155Y-107048284D01*
X143711777Y-107047768D01*
X142796544Y-106684559D01*
X142795188Y-106683990D01*
X141895126Y-106284685D01*
X141893815Y-106284073D01*
X141645587Y-106161916D01*
X141010309Y-105849285D01*
X141009001Y-105848609D01*
X140180708Y-105399238D01*
X140143508Y-105379056D01*
X140142240Y-105378335D01*
X140079583Y-105341044D01*
X139296078Y-104874731D01*
X139294855Y-104873970D01*
X138469364Y-104337112D01*
X138468194Y-104336317D01*
X138008069Y-104010332D01*
X137664707Y-103767070D01*
X137663523Y-103766195D01*
X137643788Y-103751000D01*
X148860000Y-103751000D01*
X148860000Y-104803828D01*
X148866402Y-104863375D01*
X148866403Y-104863380D01*
X148916645Y-104998087D01*
X148916646Y-104998088D01*
X149002811Y-105113188D01*
X149117911Y-105199353D01*
X149117912Y-105199354D01*
X149252619Y-105249596D01*
X149252624Y-105249597D01*
X149312171Y-105256000D01*
X149610000Y-105256000D01*
X149610000Y-103751000D01*
X150110000Y-103751000D01*
X150110000Y-105256000D01*
X150407829Y-105256000D01*
X150467375Y-105249597D01*
X150467380Y-105249596D01*
X150602087Y-105199354D01*
X150602088Y-105199353D01*
X150717188Y-105113188D01*
X150803353Y-104998088D01*
X150803354Y-104998087D01*
X150853596Y-104863380D01*
X150853597Y-104863375D01*
X150860000Y-104803828D01*
X150860000Y-103751000D01*
X150110000Y-103751000D01*
X149610000Y-103751000D01*
X148860000Y-103751000D01*
X137643788Y-103751000D01*
X137327956Y-103507821D01*
X136994406Y-103251000D01*
X148860000Y-103251000D01*
X149610000Y-103251000D01*
X149610000Y-101746000D01*
X150110000Y-101746000D01*
X150110000Y-103251000D01*
X150860000Y-103251000D01*
X150860000Y-102198171D01*
X150853597Y-102138624D01*
X150853596Y-102138619D01*
X150803354Y-102003912D01*
X150803353Y-102003911D01*
X150717188Y-101888811D01*
X150602088Y-101802646D01*
X150602087Y-101802645D01*
X150467380Y-101752403D01*
X150467375Y-101752402D01*
X150407829Y-101746000D01*
X150110000Y-101746000D01*
X149610000Y-101746000D01*
X149312171Y-101746000D01*
X149252624Y-101752402D01*
X149252619Y-101752403D01*
X149117912Y-101802645D01*
X149117911Y-101802646D01*
X149002811Y-101888811D01*
X148916646Y-102003911D01*
X148916645Y-102003912D01*
X148866403Y-102138619D01*
X148866402Y-102138624D01*
X148860000Y-102198171D01*
X148860000Y-103251000D01*
X136994406Y-103251000D01*
X136883314Y-103165463D01*
X136882187Y-103164558D01*
X136632998Y-102956400D01*
X136126459Y-102533266D01*
X136125401Y-102532346D01*
X135395342Y-101871486D01*
X135394353Y-101870554D01*
X134691155Y-101181201D01*
X134690155Y-101180181D01*
X134014940Y-100463438D01*
X134013964Y-100462359D01*
X133642860Y-100035644D01*
X133367764Y-99719324D01*
X133366855Y-99718234D01*
X132750699Y-98950087D01*
X132749856Y-98948990D01*
X132164750Y-98156986D01*
X132163910Y-98155799D01*
X131610754Y-97341159D01*
X131609966Y-97339948D01*
X131089626Y-96503946D01*
X131088886Y-96502701D01*
X130976953Y-96305826D01*
X130602219Y-95646716D01*
X130601517Y-95645423D01*
X130149248Y-94770733D01*
X130148633Y-94769485D01*
X129731481Y-93877471D01*
X129730907Y-93876179D01*
X129349554Y-92968303D01*
X129349023Y-92966965D01*
X129254549Y-92714367D01*
X129004078Y-92044676D01*
X129003593Y-92043297D01*
X128992829Y-92010613D01*
X128702291Y-91128380D01*
X128695586Y-91108020D01*
X128695161Y-91106638D01*
X128424570Y-90159822D01*
X128424213Y-90158468D01*
X128341218Y-89817256D01*
X128191487Y-89201672D01*
X128191174Y-89200268D01*
X127996671Y-88234979D01*
X127996410Y-88233536D01*
X127840440Y-87261293D01*
X127840236Y-87259836D01*
X127815503Y-87053504D01*
X127723035Y-86282105D01*
X127722903Y-86280780D01*
X127644662Y-85299117D01*
X127644577Y-85297679D01*
X127644369Y-85292439D01*
X127605428Y-84313729D01*
X127605402Y-84312394D01*
X127605402Y-83327604D01*
X127605428Y-83326271D01*
X127644578Y-82342301D01*
X127644661Y-82340885D01*
X127722903Y-81359214D01*
X127723034Y-81357899D01*
X127840236Y-80380163D01*
X127840440Y-80378706D01*
X127974916Y-79540448D01*
X127996411Y-79406454D01*
X127996672Y-79405015D01*
X128000700Y-79385026D01*
X128191176Y-78439721D01*
X128191487Y-78438327D01*
X128277683Y-78083954D01*
X128424221Y-77481497D01*
X128424567Y-77480190D01*
X128695165Y-76533347D01*
X128695586Y-76531979D01*
X128729995Y-76427495D01*
X129003600Y-75596681D01*
X129004072Y-75595339D01*
X129349032Y-74673010D01*
X129349547Y-74671713D01*
X129730915Y-73763802D01*
X129731472Y-73762547D01*
X130148643Y-72870494D01*
X130149238Y-72869286D01*
X130601535Y-71994542D01*
X130602219Y-71993283D01*
X130611751Y-71976518D01*
X131088908Y-71137260D01*
X131089613Y-71136075D01*
X131609981Y-70300028D01*
X131610736Y-70298866D01*
X132132943Y-69529805D01*
X132163910Y-69484200D01*
X132164733Y-69483036D01*
X132749874Y-68690983D01*
X132750680Y-68689936D01*
X133366875Y-67921739D01*
X133367743Y-67920699D01*
X134013964Y-67177639D01*
X134014917Y-67176585D01*
X134690179Y-66459793D01*
X134691129Y-66458823D01*
X135394379Y-65769419D01*
X135395315Y-65768538D01*
X136125429Y-65107627D01*
X136126430Y-65106756D01*
X136882211Y-64475421D01*
X136883283Y-64474560D01*
X137663539Y-63873791D01*
X137664691Y-63872940D01*
X138468228Y-63303658D01*
X138469330Y-63302910D01*
X139294891Y-62766006D01*
X139296041Y-62765290D01*
X140142283Y-62261639D01*
X140143469Y-62260964D01*
X141009035Y-61791371D01*
X141010309Y-61790714D01*
X141893855Y-61355906D01*
X141895083Y-61355332D01*
X142795234Y-60955989D01*
X142796544Y-60955440D01*
X143711796Y-60592223D01*
X143713119Y-60591728D01*
X144642150Y-60265164D01*
X144643476Y-60264728D01*
X145584737Y-59975362D01*
X145586045Y-59974988D01*
X146538081Y-59723269D01*
X146539509Y-59722923D01*
X147500757Y-59509262D01*
X147502111Y-59508989D01*
X148471099Y-59333713D01*
X148472525Y-59333484D01*
X149447667Y-59196876D01*
X149449109Y-59196703D01*
X150429014Y-59098960D01*
X150430335Y-59098855D01*
X151397638Y-59041087D01*
X151446149Y-59055533D01*
G37*
%TD.AperFunction*%
%TA.AperFunction,Conductor*%
G36*
X192105850Y-59037813D02*
G01*
X192131160Y-59081650D01*
X192122370Y-59131500D01*
X192114508Y-59141745D01*
X192114670Y-59141870D01*
X192015464Y-59271158D01*
X191954955Y-59417238D01*
X191939500Y-59534640D01*
X191939500Y-62123359D01*
X191954955Y-62240759D01*
X191954956Y-62240763D01*
X192015463Y-62386840D01*
X192111715Y-62512279D01*
X192111720Y-62512284D01*
X192205183Y-62584000D01*
X192237159Y-62608536D01*
X192318818Y-62642360D01*
X192356139Y-62676557D01*
X192364500Y-62710727D01*
X192364500Y-64332545D01*
X192347187Y-64380111D01*
X192342826Y-64384871D01*
X191726825Y-65000872D01*
X191680949Y-65022264D01*
X191632054Y-65009163D01*
X191603020Y-64967699D01*
X191600499Y-64948546D01*
X191600499Y-62844640D01*
X191590099Y-62765637D01*
X191585044Y-62727238D01*
X191524536Y-62581159D01*
X191483250Y-62527354D01*
X191428284Y-62455720D01*
X191428279Y-62455715D01*
X191302841Y-62359464D01*
X191156761Y-62298955D01*
X191066675Y-62287095D01*
X191039361Y-62283500D01*
X191039359Y-62283500D01*
X189960640Y-62283500D01*
X189843240Y-62298955D01*
X189843236Y-62298956D01*
X189697159Y-62359463D01*
X189571720Y-62455715D01*
X189571715Y-62455720D01*
X189475464Y-62581158D01*
X189414955Y-62727238D01*
X189399500Y-62844640D01*
X189399500Y-64884545D01*
X189382187Y-64932111D01*
X189377826Y-64936871D01*
X173322933Y-80991766D01*
X173277057Y-81013158D01*
X173270607Y-81013440D01*
X172723512Y-81013440D01*
X172675946Y-80996127D01*
X172650636Y-80952290D01*
X172659426Y-80902440D01*
X172671186Y-80887114D01*
X180499609Y-73058691D01*
X188422465Y-65135835D01*
X188424032Y-65134359D01*
X188469332Y-65094229D01*
X188503723Y-65044402D01*
X188504984Y-65042688D01*
X188542325Y-64995028D01*
X188548032Y-64982344D01*
X188554612Y-64970678D01*
X188562518Y-64959226D01*
X188583975Y-64902646D01*
X188584817Y-64900612D01*
X188609650Y-64845439D01*
X188612159Y-64831745D01*
X188615752Y-64818857D01*
X188620688Y-64805845D01*
X188627983Y-64745759D01*
X188628315Y-64743585D01*
X188632922Y-64718444D01*
X188639219Y-64684085D01*
X188636866Y-64645197D01*
X188635568Y-64623720D01*
X188635500Y-64621486D01*
X188635500Y-62710727D01*
X188652813Y-62663161D01*
X188681182Y-62642360D01*
X188762841Y-62608536D01*
X188888282Y-62512282D01*
X188984536Y-62386841D01*
X189045044Y-62240762D01*
X189060500Y-62123361D01*
X189060499Y-59534640D01*
X189045044Y-59417238D01*
X188984536Y-59271159D01*
X188984535Y-59271158D01*
X188885330Y-59141870D01*
X188886618Y-59140881D01*
X188867998Y-59100950D01*
X188881099Y-59052055D01*
X188922563Y-59023021D01*
X188941716Y-59020500D01*
X192058284Y-59020500D01*
X192105850Y-59037813D01*
G37*
%TD.AperFunction*%
%TA.AperFunction,Conductor*%
G36*
X185522112Y-66011812D02*
G01*
X185547422Y-66055649D01*
X185538632Y-66105499D01*
X185526872Y-66120825D01*
X171899893Y-79747806D01*
X171854017Y-79769198D01*
X171847567Y-79769480D01*
X170334833Y-79769480D01*
X170287267Y-79752167D01*
X170275780Y-79740075D01*
X170250384Y-79706445D01*
X170173506Y-79636362D01*
X170090216Y-79560433D01*
X170018851Y-79516246D01*
X169905946Y-79446338D01*
X169846296Y-79423229D01*
X169703851Y-79368045D01*
X169490809Y-79328220D01*
X169490806Y-79328220D01*
X169274074Y-79328220D01*
X169274070Y-79328220D01*
X169061028Y-79368045D01*
X168858939Y-79446336D01*
X168858923Y-79446343D01*
X168759022Y-79508199D01*
X168709467Y-79518520D01*
X168664871Y-79494572D01*
X168653825Y-79478268D01*
X168647466Y-79465498D01*
X168638555Y-79447601D01*
X168638554Y-79447600D01*
X168638554Y-79447599D01*
X168638552Y-79447597D01*
X168607489Y-79406463D01*
X168507944Y-79274645D01*
X168506104Y-79272968D01*
X168364647Y-79144013D01*
X168341158Y-79099173D01*
X168340500Y-79089326D01*
X168340500Y-79008017D01*
X168357813Y-78960451D01*
X168381621Y-78941722D01*
X168385015Y-78940038D01*
X168385021Y-78940037D01*
X168550753Y-78857842D01*
X168694940Y-78741940D01*
X168810842Y-78597753D01*
X168893037Y-78432021D01*
X168937683Y-78252495D01*
X168940500Y-78210954D01*
X168940500Y-77538046D01*
X168937683Y-77496505D01*
X168893037Y-77316979D01*
X168810842Y-77151247D01*
X168810838Y-77151242D01*
X168695987Y-77008362D01*
X168679679Y-76960442D01*
X168695987Y-76915638D01*
X168760806Y-76835000D01*
X168810842Y-76772753D01*
X168893037Y-76607021D01*
X168937683Y-76427495D01*
X168940500Y-76385954D01*
X168940500Y-75713046D01*
X168937683Y-75671505D01*
X168893037Y-75491979D01*
X168810842Y-75326247D01*
X168754559Y-75256228D01*
X168694942Y-75182062D01*
X168694937Y-75182057D01*
X168550757Y-75066161D01*
X168550754Y-75066159D01*
X168550753Y-75066158D01*
X168385021Y-74983963D01*
X168205495Y-74939317D01*
X168205493Y-74939316D01*
X168205490Y-74939316D01*
X168163959Y-74936500D01*
X168163954Y-74936500D01*
X167751453Y-74936500D01*
X167703887Y-74919187D01*
X167678577Y-74875350D01*
X167687367Y-74825500D01*
X167699127Y-74810174D01*
X170184128Y-72325174D01*
X170230004Y-72303782D01*
X170236454Y-72303500D01*
X178540481Y-72303500D01*
X178542715Y-72303568D01*
X178562795Y-72304782D01*
X178603085Y-72307219D01*
X178662588Y-72296314D01*
X178664759Y-72295983D01*
X178724845Y-72288688D01*
X178737857Y-72283752D01*
X178750745Y-72280159D01*
X178764439Y-72277650D01*
X178807493Y-72258272D01*
X178819610Y-72252820D01*
X178821661Y-72251970D01*
X178878226Y-72230518D01*
X178889673Y-72222616D01*
X178901341Y-72216036D01*
X178904905Y-72214431D01*
X178914028Y-72210326D01*
X178961655Y-72173010D01*
X178963442Y-72171696D01*
X179013229Y-72137332D01*
X179053367Y-72092023D01*
X179054843Y-72090456D01*
X185129127Y-66016172D01*
X185175003Y-65994781D01*
X185181453Y-65994499D01*
X185474546Y-65994499D01*
X185522112Y-66011812D01*
G37*
%TD.AperFunction*%
%TA.AperFunction,Conductor*%
G36*
X159995113Y-66011812D02*
G01*
X160020423Y-66055649D01*
X160011633Y-66105499D01*
X159999873Y-66120825D01*
X153680006Y-72440691D01*
X153678379Y-72442223D01*
X153633107Y-72482331D01*
X153598745Y-72532111D01*
X153597421Y-72533911D01*
X153560116Y-72581527D01*
X153560112Y-72581535D01*
X153554398Y-72594228D01*
X153547826Y-72605881D01*
X153539921Y-72617335D01*
X153539919Y-72617338D01*
X153518466Y-72673902D01*
X153517612Y-72675965D01*
X153492790Y-72731118D01*
X153492788Y-72731126D01*
X153490281Y-72744805D01*
X153486687Y-72757699D01*
X153481752Y-72770713D01*
X153481751Y-72770717D01*
X153474459Y-72830768D01*
X153474123Y-72832976D01*
X153463221Y-72892472D01*
X153466872Y-72952843D01*
X153466940Y-72955077D01*
X153466940Y-74910278D01*
X153449627Y-74957844D01*
X153405790Y-74983154D01*
X153355940Y-74974364D01*
X153346579Y-74967955D01*
X153310756Y-74939160D01*
X153310754Y-74939159D01*
X153310753Y-74939158D01*
X153145021Y-74856963D01*
X152965495Y-74812317D01*
X152965493Y-74812316D01*
X152965490Y-74812316D01*
X152923959Y-74809500D01*
X152923954Y-74809500D01*
X151876046Y-74809500D01*
X151876041Y-74809500D01*
X151834509Y-74812316D01*
X151834504Y-74812317D01*
X151834505Y-74812317D01*
X151654979Y-74856963D01*
X151654976Y-74856964D01*
X151654977Y-74856964D01*
X151489245Y-74939159D01*
X151489243Y-74939160D01*
X151453421Y-74967955D01*
X151405501Y-74984262D01*
X151358310Y-74965950D01*
X151333930Y-74921590D01*
X151333060Y-74910278D01*
X151333060Y-74442892D01*
X151350373Y-74395326D01*
X151354723Y-74390577D01*
X159729127Y-66016172D01*
X159775003Y-65994781D01*
X159781453Y-65994499D01*
X159947547Y-65994499D01*
X159995113Y-66011812D01*
G37*
%TD.AperFunction*%
%TA.AperFunction,Conductor*%
G36*
X161625850Y-59037813D02*
G01*
X161651160Y-59081650D01*
X161642370Y-59131500D01*
X161634508Y-59141745D01*
X161634670Y-59141870D01*
X161535464Y-59271158D01*
X161474955Y-59417238D01*
X161459500Y-59534640D01*
X161459500Y-62123359D01*
X161474955Y-62240759D01*
X161474956Y-62240763D01*
X161535463Y-62386840D01*
X161631715Y-62512279D01*
X161631720Y-62512284D01*
X161725183Y-62584000D01*
X161757159Y-62608536D01*
X161838818Y-62642360D01*
X161876139Y-62676557D01*
X161884500Y-62710727D01*
X161884500Y-64205546D01*
X161867187Y-64253112D01*
X161862826Y-64257872D01*
X161246825Y-64873873D01*
X161200949Y-64895265D01*
X161152054Y-64882164D01*
X161123020Y-64840700D01*
X161120499Y-64821547D01*
X161120499Y-62844640D01*
X161110099Y-62765637D01*
X161105044Y-62727238D01*
X161044536Y-62581159D01*
X161003250Y-62527354D01*
X160948284Y-62455720D01*
X160948279Y-62455715D01*
X160822841Y-62359464D01*
X160676761Y-62298955D01*
X160586675Y-62287095D01*
X160559361Y-62283500D01*
X160559359Y-62283500D01*
X159480640Y-62283500D01*
X159363240Y-62298955D01*
X159363236Y-62298956D01*
X159217159Y-62359463D01*
X159091720Y-62455715D01*
X159091715Y-62455720D01*
X158995464Y-62581158D01*
X158934955Y-62727238D01*
X158919500Y-62844640D01*
X158919500Y-64884546D01*
X158902187Y-64932112D01*
X158897826Y-64936872D01*
X150195126Y-73639571D01*
X150193499Y-73641103D01*
X150148227Y-73681211D01*
X150121760Y-73719555D01*
X150080491Y-73748866D01*
X150030036Y-73744792D01*
X149994004Y-73709239D01*
X149986860Y-73677517D01*
X149986860Y-72995093D01*
X150004173Y-72947527D01*
X150008534Y-72942767D01*
X153954456Y-68996845D01*
X157942465Y-65008835D01*
X157944032Y-65007359D01*
X157989332Y-64967229D01*
X158023723Y-64917402D01*
X158024984Y-64915688D01*
X158062325Y-64868028D01*
X158068032Y-64855344D01*
X158074612Y-64843678D01*
X158082518Y-64832226D01*
X158103975Y-64775646D01*
X158104817Y-64773612D01*
X158129650Y-64718439D01*
X158132159Y-64704745D01*
X158135752Y-64691857D01*
X158140688Y-64678845D01*
X158147983Y-64618759D01*
X158148315Y-64616585D01*
X158149244Y-64611517D01*
X158159219Y-64557085D01*
X158156866Y-64518197D01*
X158155568Y-64496720D01*
X158155500Y-64494486D01*
X158155500Y-62710727D01*
X158172813Y-62663161D01*
X158201182Y-62642360D01*
X158282841Y-62608536D01*
X158408282Y-62512282D01*
X158504536Y-62386841D01*
X158565044Y-62240762D01*
X158580500Y-62123361D01*
X158580499Y-59534640D01*
X158565044Y-59417238D01*
X158504536Y-59271159D01*
X158504535Y-59271158D01*
X158405330Y-59141870D01*
X158406618Y-59140881D01*
X158387998Y-59100950D01*
X158401099Y-59052055D01*
X158442563Y-59023021D01*
X158461716Y-59020500D01*
X161578284Y-59020500D01*
X161625850Y-59037813D01*
G37*
%TD.AperFunction*%
%TA.AperFunction,Conductor*%
G36*
X187025850Y-59037813D02*
G01*
X187051160Y-59081650D01*
X187042370Y-59131500D01*
X187034508Y-59141745D01*
X187034670Y-59141870D01*
X186935464Y-59271158D01*
X186874955Y-59417238D01*
X186859500Y-59534640D01*
X186859500Y-62123359D01*
X186874955Y-62240759D01*
X186874956Y-62240763D01*
X186935463Y-62386840D01*
X187031715Y-62512279D01*
X187031720Y-62512284D01*
X187125183Y-62584000D01*
X187157159Y-62608536D01*
X187238818Y-62642360D01*
X187276139Y-62676557D01*
X187284500Y-62710727D01*
X187284500Y-64332545D01*
X187267187Y-64380111D01*
X187262826Y-64384871D01*
X186646825Y-65000872D01*
X186600949Y-65022264D01*
X186552054Y-65009163D01*
X186523020Y-64967699D01*
X186520499Y-64948546D01*
X186520499Y-62844640D01*
X186510099Y-62765637D01*
X186505044Y-62727238D01*
X186444536Y-62581159D01*
X186403250Y-62527354D01*
X186348284Y-62455720D01*
X186348279Y-62455715D01*
X186222841Y-62359464D01*
X186076761Y-62298955D01*
X185986675Y-62287095D01*
X185959361Y-62283500D01*
X185959359Y-62283500D01*
X184880640Y-62283500D01*
X184763240Y-62298955D01*
X184763236Y-62298956D01*
X184617159Y-62359463D01*
X184491720Y-62455715D01*
X184491715Y-62455720D01*
X184395464Y-62581158D01*
X184334955Y-62727238D01*
X184319500Y-62844640D01*
X184319500Y-64884546D01*
X184302187Y-64932112D01*
X184297826Y-64936872D01*
X178303873Y-70930826D01*
X178257997Y-70952218D01*
X178251547Y-70952500D01*
X177765453Y-70952500D01*
X177717887Y-70935187D01*
X177692577Y-70891350D01*
X177701367Y-70841500D01*
X177713127Y-70826174D01*
X179056302Y-69482999D01*
X183342456Y-65196843D01*
X183344023Y-65195367D01*
X183389332Y-65155229D01*
X183423698Y-65105439D01*
X183425010Y-65103655D01*
X183462326Y-65056028D01*
X183468036Y-65043341D01*
X183474616Y-65031674D01*
X183482517Y-65020227D01*
X183482518Y-65020226D01*
X183503970Y-64963661D01*
X183504820Y-64961610D01*
X183515953Y-64936872D01*
X183529650Y-64906439D01*
X183532159Y-64892745D01*
X183535752Y-64879857D01*
X183540688Y-64866845D01*
X183547983Y-64806759D01*
X183548315Y-64804585D01*
X183548315Y-64804584D01*
X183559219Y-64745085D01*
X183555568Y-64684715D01*
X183555500Y-64682481D01*
X183555500Y-62710727D01*
X183572813Y-62663161D01*
X183601182Y-62642360D01*
X183682841Y-62608536D01*
X183808282Y-62512282D01*
X183904536Y-62386841D01*
X183965044Y-62240762D01*
X183980500Y-62123361D01*
X183980499Y-59534640D01*
X183965044Y-59417238D01*
X183904536Y-59271159D01*
X183904535Y-59271158D01*
X183805330Y-59141870D01*
X183806618Y-59140881D01*
X183787998Y-59100950D01*
X183801099Y-59052055D01*
X183842563Y-59023021D01*
X183861716Y-59020500D01*
X186978284Y-59020500D01*
X187025850Y-59037813D01*
G37*
%TD.AperFunction*%
%TA.AperFunction,Conductor*%
G36*
X156545850Y-59037813D02*
G01*
X156571160Y-59081650D01*
X156562370Y-59131500D01*
X156554508Y-59141745D01*
X156554670Y-59141870D01*
X156455464Y-59271158D01*
X156394955Y-59417238D01*
X156379500Y-59534640D01*
X156379500Y-62123359D01*
X156394955Y-62240759D01*
X156394956Y-62240763D01*
X156455463Y-62386840D01*
X156551715Y-62512279D01*
X156551720Y-62512284D01*
X156645183Y-62584000D01*
X156677159Y-62608536D01*
X156758818Y-62642360D01*
X156796139Y-62676557D01*
X156804500Y-62710727D01*
X156804500Y-64205545D01*
X156787187Y-64253111D01*
X156782826Y-64257871D01*
X156166825Y-64873872D01*
X156120949Y-64895264D01*
X156072054Y-64882163D01*
X156043020Y-64840699D01*
X156040499Y-64821546D01*
X156040499Y-62844640D01*
X156030099Y-62765637D01*
X156025044Y-62727238D01*
X155964536Y-62581159D01*
X155923250Y-62527354D01*
X155868284Y-62455720D01*
X155868279Y-62455715D01*
X155742841Y-62359464D01*
X155596761Y-62298955D01*
X155506675Y-62287095D01*
X155479361Y-62283500D01*
X155479359Y-62283500D01*
X154400640Y-62283500D01*
X154283240Y-62298955D01*
X154283236Y-62298956D01*
X154137159Y-62359463D01*
X154011720Y-62455715D01*
X154011715Y-62455720D01*
X153915464Y-62581158D01*
X153854955Y-62727238D01*
X153839500Y-62844640D01*
X153839500Y-64884546D01*
X153822187Y-64932112D01*
X153817826Y-64936872D01*
X147867826Y-70886872D01*
X147821950Y-70908264D01*
X147773055Y-70895163D01*
X147744021Y-70853699D01*
X147741500Y-70834546D01*
X147741500Y-67874452D01*
X147758813Y-67826886D01*
X147763163Y-67822137D01*
X149569127Y-66016172D01*
X149615003Y-65994781D01*
X149621453Y-65994499D01*
X150399359Y-65994499D01*
X150399360Y-65994499D01*
X150516762Y-65979044D01*
X150662841Y-65918536D01*
X150788282Y-65822282D01*
X150884536Y-65696841D01*
X150945044Y-65550762D01*
X150960500Y-65433361D01*
X150960499Y-62844640D01*
X150945044Y-62727238D01*
X150884536Y-62581159D01*
X150843250Y-62527354D01*
X150788284Y-62455720D01*
X150788279Y-62455715D01*
X150662841Y-62359464D01*
X150516761Y-62298955D01*
X150426675Y-62287095D01*
X150399361Y-62283500D01*
X150399359Y-62283500D01*
X149744452Y-62283500D01*
X149696886Y-62266187D01*
X149671576Y-62222350D01*
X149680366Y-62172500D01*
X149692126Y-62157174D01*
X150323128Y-61526174D01*
X150369005Y-61504782D01*
X150375454Y-61504500D01*
X151225501Y-61504500D01*
X151273067Y-61521813D01*
X151298377Y-61565650D01*
X151299501Y-61578500D01*
X151299501Y-62123359D01*
X151314955Y-62240759D01*
X151314956Y-62240763D01*
X151375463Y-62386840D01*
X151471715Y-62512279D01*
X151471720Y-62512284D01*
X151491360Y-62527354D01*
X151597159Y-62608536D01*
X151743238Y-62669044D01*
X151860639Y-62684500D01*
X152939360Y-62684499D01*
X153056762Y-62669044D01*
X153202841Y-62608536D01*
X153328282Y-62512282D01*
X153424536Y-62386841D01*
X153485044Y-62240762D01*
X153500500Y-62123361D01*
X153500499Y-59534640D01*
X153485044Y-59417238D01*
X153424536Y-59271159D01*
X153424536Y-59271158D01*
X153325330Y-59141870D01*
X153326618Y-59140881D01*
X153307998Y-59100950D01*
X153321099Y-59052055D01*
X153362563Y-59023021D01*
X153381716Y-59020500D01*
X156498284Y-59020500D01*
X156545850Y-59037813D01*
G37*
%TD.AperFunction*%
%TA.AperFunction,Conductor*%
G36*
X197185850Y-59037813D02*
G01*
X197211160Y-59081650D01*
X197202370Y-59131500D01*
X197194508Y-59141745D01*
X197194670Y-59141870D01*
X197095464Y-59271158D01*
X197034955Y-59417238D01*
X197019500Y-59534640D01*
X197019500Y-62123359D01*
X197034955Y-62240759D01*
X197034956Y-62240763D01*
X197095463Y-62386840D01*
X197191715Y-62512279D01*
X197191720Y-62512284D01*
X197285183Y-62584000D01*
X197317159Y-62608536D01*
X197398818Y-62642360D01*
X197436139Y-62676557D01*
X197444500Y-62710727D01*
X197444500Y-68523546D01*
X197427187Y-68571112D01*
X197422826Y-68575872D01*
X195321873Y-70676826D01*
X195275997Y-70698218D01*
X195269547Y-70698500D01*
X189515453Y-70698500D01*
X189467887Y-70681187D01*
X189442577Y-70637350D01*
X189451367Y-70587500D01*
X189463127Y-70572174D01*
X191553801Y-68481500D01*
X194413594Y-65621706D01*
X194459469Y-65600315D01*
X194508364Y-65613416D01*
X194534286Y-65645714D01*
X194555464Y-65696841D01*
X194651715Y-65822279D01*
X194651720Y-65822284D01*
X194735345Y-65886451D01*
X194777159Y-65918536D01*
X194923238Y-65979044D01*
X195040639Y-65994500D01*
X196119360Y-65994499D01*
X196236762Y-65979044D01*
X196382841Y-65918536D01*
X196508282Y-65822282D01*
X196604536Y-65696841D01*
X196665044Y-65550762D01*
X196680500Y-65433361D01*
X196680499Y-62844640D01*
X196665044Y-62727238D01*
X196604536Y-62581159D01*
X196563250Y-62527354D01*
X196508284Y-62455720D01*
X196508279Y-62455715D01*
X196382841Y-62359464D01*
X196236761Y-62298955D01*
X196146675Y-62287095D01*
X196119361Y-62283500D01*
X196119359Y-62283500D01*
X195040640Y-62283500D01*
X194923240Y-62298955D01*
X194923236Y-62298956D01*
X194777159Y-62359463D01*
X194651720Y-62455715D01*
X194651715Y-62455720D01*
X194555464Y-62581158D01*
X194494955Y-62727238D01*
X194479500Y-62844640D01*
X194479500Y-63613197D01*
X194462187Y-63660763D01*
X194460941Y-63662209D01*
X194449678Y-63674923D01*
X194448147Y-63676549D01*
X193841826Y-64282871D01*
X193795950Y-64304263D01*
X193747055Y-64291162D01*
X193718022Y-64249698D01*
X193715500Y-64230545D01*
X193715500Y-62710727D01*
X193732813Y-62663161D01*
X193761182Y-62642360D01*
X193842841Y-62608536D01*
X193968282Y-62512282D01*
X194064536Y-62386841D01*
X194125044Y-62240762D01*
X194140500Y-62123361D01*
X194140499Y-59534640D01*
X194125044Y-59417238D01*
X194064536Y-59271159D01*
X194064535Y-59271158D01*
X193965330Y-59141870D01*
X193966618Y-59140881D01*
X193947998Y-59100950D01*
X193961099Y-59052055D01*
X194002563Y-59023021D01*
X194021716Y-59020500D01*
X197138284Y-59020500D01*
X197185850Y-59037813D01*
G37*
%TD.AperFunction*%
%TA.AperFunction,Conductor*%
G36*
X181945850Y-59037813D02*
G01*
X181971160Y-59081650D01*
X181962370Y-59131500D01*
X181954508Y-59141745D01*
X181954670Y-59141870D01*
X181855464Y-59271158D01*
X181794955Y-59417238D01*
X181779500Y-59534640D01*
X181779500Y-62123359D01*
X181794955Y-62240759D01*
X181794956Y-62240763D01*
X181855463Y-62386840D01*
X181951715Y-62512279D01*
X181951720Y-62512284D01*
X182045183Y-62584000D01*
X182077159Y-62608536D01*
X182158818Y-62642360D01*
X182196139Y-62676557D01*
X182204500Y-62710727D01*
X182204500Y-64393546D01*
X182187187Y-64441112D01*
X182182826Y-64445872D01*
X181566825Y-65061873D01*
X181520949Y-65083265D01*
X181472054Y-65070164D01*
X181443020Y-65028700D01*
X181440499Y-65009547D01*
X181440499Y-62844640D01*
X181430099Y-62765637D01*
X181425044Y-62727238D01*
X181364536Y-62581159D01*
X181323250Y-62527354D01*
X181268284Y-62455720D01*
X181268279Y-62455715D01*
X181142841Y-62359464D01*
X180996761Y-62298955D01*
X180906675Y-62287095D01*
X180879361Y-62283500D01*
X180879359Y-62283500D01*
X179800640Y-62283500D01*
X179683240Y-62298955D01*
X179683236Y-62298956D01*
X179537159Y-62359463D01*
X179411720Y-62455715D01*
X179411715Y-62455720D01*
X179315464Y-62581158D01*
X179254955Y-62727238D01*
X179239500Y-62844640D01*
X179239500Y-65433359D01*
X179254955Y-65550759D01*
X179254955Y-65550760D01*
X179254956Y-65550762D01*
X179272054Y-65592040D01*
X179274262Y-65642610D01*
X179256013Y-65672684D01*
X177534728Y-67393969D01*
X177488852Y-67415361D01*
X177439957Y-67402260D01*
X177412024Y-67364510D01*
X177357180Y-67195719D01*
X177357179Y-67195718D01*
X177357179Y-67195716D01*
X177304260Y-67104058D01*
X177262535Y-67031786D01*
X177262532Y-67031783D01*
X177135868Y-66891109D01*
X176982733Y-66779850D01*
X176982728Y-66779847D01*
X176871243Y-66730211D01*
X176834831Y-66695048D01*
X176829540Y-66644707D01*
X176849014Y-66610285D01*
X178262456Y-65196843D01*
X178264023Y-65195367D01*
X178309332Y-65155229D01*
X178343698Y-65105439D01*
X178345010Y-65103655D01*
X178382326Y-65056028D01*
X178388036Y-65043341D01*
X178394616Y-65031674D01*
X178402517Y-65020227D01*
X178402518Y-65020226D01*
X178423970Y-64963661D01*
X178424820Y-64961610D01*
X178435953Y-64936872D01*
X178449650Y-64906439D01*
X178452156Y-64892758D01*
X178455751Y-64879860D01*
X178460688Y-64866845D01*
X178467980Y-64806780D01*
X178468315Y-64804584D01*
X178479220Y-64745088D01*
X178479220Y-64745085D01*
X178475568Y-64684704D01*
X178475500Y-64682470D01*
X178475500Y-62710727D01*
X178492813Y-62663161D01*
X178521182Y-62642360D01*
X178602841Y-62608536D01*
X178728282Y-62512282D01*
X178824536Y-62386841D01*
X178885044Y-62240762D01*
X178900500Y-62123361D01*
X178900499Y-59534640D01*
X178885044Y-59417238D01*
X178824536Y-59271159D01*
X178824535Y-59271158D01*
X178725330Y-59141870D01*
X178726618Y-59140881D01*
X178707998Y-59100950D01*
X178721099Y-59052055D01*
X178762563Y-59023021D01*
X178781716Y-59020500D01*
X181898284Y-59020500D01*
X181945850Y-59037813D01*
G37*
%TD.AperFunction*%
%TA.AperFunction,Conductor*%
G36*
X148727945Y-63207836D02*
G01*
X148756979Y-63249300D01*
X148759500Y-63268453D01*
X148759500Y-64884546D01*
X148742187Y-64932112D01*
X148737826Y-64936872D01*
X147105826Y-66568872D01*
X147059950Y-66590264D01*
X147011055Y-66577163D01*
X146982021Y-66535699D01*
X146979500Y-66516546D01*
X146979500Y-64900453D01*
X146996813Y-64852887D01*
X147001174Y-64848127D01*
X148633174Y-63216127D01*
X148679050Y-63194735D01*
X148727945Y-63207836D01*
G37*
%TD.AperFunction*%
%TA.AperFunction,Conductor*%
G36*
X171785850Y-59037813D02*
G01*
X171811160Y-59081650D01*
X171802370Y-59131500D01*
X171794508Y-59141745D01*
X171794670Y-59141870D01*
X171695464Y-59271158D01*
X171634955Y-59417238D01*
X171619500Y-59534640D01*
X171619500Y-62123359D01*
X171634955Y-62240759D01*
X171634956Y-62240763D01*
X171695463Y-62386840D01*
X171791715Y-62512279D01*
X171791720Y-62512284D01*
X171885183Y-62584000D01*
X171917159Y-62608536D01*
X171998818Y-62642360D01*
X172036139Y-62676557D01*
X172044500Y-62710727D01*
X172044500Y-65221547D01*
X172027187Y-65269113D01*
X172022826Y-65273873D01*
X171699873Y-65596826D01*
X171653997Y-65618218D01*
X171647547Y-65618500D01*
X171340507Y-65618500D01*
X171292941Y-65601187D01*
X171267631Y-65557350D01*
X171267140Y-65534841D01*
X171270200Y-65511599D01*
X171280500Y-65433361D01*
X171280499Y-62844640D01*
X171265044Y-62727238D01*
X171204536Y-62581159D01*
X171163250Y-62527354D01*
X171108284Y-62455720D01*
X171108279Y-62455715D01*
X170982841Y-62359464D01*
X170836761Y-62298955D01*
X170746675Y-62287095D01*
X170719361Y-62283500D01*
X170719359Y-62283500D01*
X169640640Y-62283500D01*
X169523240Y-62298955D01*
X169523236Y-62298956D01*
X169377159Y-62359463D01*
X169251720Y-62455715D01*
X169251715Y-62455720D01*
X169155464Y-62581158D01*
X169094955Y-62727238D01*
X169079500Y-62844640D01*
X169079500Y-63443781D01*
X169062187Y-63491347D01*
X169035873Y-63511260D01*
X169029402Y-63514173D01*
X169027336Y-63515029D01*
X168970773Y-63536482D01*
X168959321Y-63544386D01*
X168947668Y-63550958D01*
X168934975Y-63556672D01*
X168934967Y-63556676D01*
X168887351Y-63593981D01*
X168885551Y-63595305D01*
X168835771Y-63629667D01*
X168795663Y-63674939D01*
X168794131Y-63676566D01*
X168441826Y-64028871D01*
X168395950Y-64050263D01*
X168347055Y-64037162D01*
X168318021Y-63995698D01*
X168315500Y-63976545D01*
X168315500Y-62710727D01*
X168332813Y-62663161D01*
X168361182Y-62642360D01*
X168442841Y-62608536D01*
X168568282Y-62512282D01*
X168664536Y-62386841D01*
X168725044Y-62240762D01*
X168740500Y-62123361D01*
X168740499Y-59534640D01*
X168725044Y-59417238D01*
X168664536Y-59271159D01*
X168664535Y-59271158D01*
X168565330Y-59141870D01*
X168566618Y-59140881D01*
X168547998Y-59100950D01*
X168561099Y-59052055D01*
X168602563Y-59023021D01*
X168621716Y-59020500D01*
X171738284Y-59020500D01*
X171785850Y-59037813D01*
G37*
%TD.AperFunction*%
%TA.AperFunction,Conductor*%
G36*
X176865850Y-59037813D02*
G01*
X176891160Y-59081650D01*
X176882370Y-59131500D01*
X176874508Y-59141745D01*
X176874670Y-59141870D01*
X176775464Y-59271158D01*
X176714955Y-59417238D01*
X176699500Y-59534640D01*
X176699500Y-62123359D01*
X176714955Y-62240759D01*
X176714956Y-62240763D01*
X176775463Y-62386840D01*
X176871715Y-62512279D01*
X176871720Y-62512284D01*
X176965183Y-62584000D01*
X176997159Y-62608536D01*
X177078818Y-62642360D01*
X177116139Y-62676557D01*
X177124500Y-62710727D01*
X177124500Y-64393546D01*
X177107187Y-64441112D01*
X177102826Y-64445872D01*
X176486825Y-65061872D01*
X176440948Y-65083264D01*
X176392054Y-65070163D01*
X176363020Y-65028699D01*
X176360499Y-65009546D01*
X176360499Y-62844640D01*
X176350099Y-62765637D01*
X176345044Y-62727238D01*
X176284536Y-62581159D01*
X176243250Y-62527354D01*
X176188284Y-62455720D01*
X176188279Y-62455715D01*
X176062841Y-62359464D01*
X175916761Y-62298955D01*
X175826675Y-62287095D01*
X175799361Y-62283500D01*
X175799359Y-62283500D01*
X174720640Y-62283500D01*
X174603240Y-62298955D01*
X174603236Y-62298956D01*
X174457159Y-62359463D01*
X174331720Y-62455715D01*
X174331715Y-62455720D01*
X174235464Y-62581158D01*
X174174955Y-62727238D01*
X174159500Y-62844640D01*
X174159500Y-64884545D01*
X174142187Y-64932111D01*
X174137826Y-64936871D01*
X173521826Y-65552872D01*
X173475950Y-65574264D01*
X173427055Y-65561163D01*
X173398022Y-65519699D01*
X173395500Y-65500546D01*
X173395500Y-62710727D01*
X173412813Y-62663161D01*
X173441182Y-62642360D01*
X173522841Y-62608536D01*
X173648282Y-62512282D01*
X173744536Y-62386841D01*
X173805044Y-62240762D01*
X173820500Y-62123361D01*
X173820499Y-59534640D01*
X173805044Y-59417238D01*
X173744536Y-59271159D01*
X173744536Y-59271158D01*
X173645330Y-59141870D01*
X173646618Y-59140881D01*
X173627998Y-59100950D01*
X173641099Y-59052055D01*
X173682563Y-59023021D01*
X173701716Y-59020500D01*
X176818284Y-59020500D01*
X176865850Y-59037813D01*
G37*
%TD.AperFunction*%
%TA.AperFunction,Conductor*%
G36*
X166705850Y-59037813D02*
G01*
X166731160Y-59081650D01*
X166722370Y-59131500D01*
X166714508Y-59141745D01*
X166714670Y-59141870D01*
X166615464Y-59271158D01*
X166554955Y-59417238D01*
X166539500Y-59534640D01*
X166539500Y-62123359D01*
X166554955Y-62240759D01*
X166554956Y-62240763D01*
X166615463Y-62386840D01*
X166711715Y-62512279D01*
X166711720Y-62512284D01*
X166805183Y-62584000D01*
X166837159Y-62608536D01*
X166918818Y-62642360D01*
X166956139Y-62676557D01*
X166964500Y-62710727D01*
X166964500Y-64393546D01*
X166947187Y-64441112D01*
X166942826Y-64445872D01*
X166326825Y-65061872D01*
X166280948Y-65083264D01*
X166232054Y-65070163D01*
X166203020Y-65028699D01*
X166200499Y-65009546D01*
X166200499Y-62844640D01*
X166190099Y-62765637D01*
X166185044Y-62727238D01*
X166124536Y-62581159D01*
X166083250Y-62527354D01*
X166028284Y-62455720D01*
X166028279Y-62455715D01*
X165902841Y-62359464D01*
X165756761Y-62298955D01*
X165666675Y-62287095D01*
X165639361Y-62283500D01*
X165639359Y-62283500D01*
X164560640Y-62283500D01*
X164443240Y-62298955D01*
X164443236Y-62298956D01*
X164297159Y-62359463D01*
X164171720Y-62455715D01*
X164171715Y-62455720D01*
X164075464Y-62581158D01*
X164014955Y-62727238D01*
X163999500Y-62844640D01*
X163999500Y-63613197D01*
X163982187Y-63660763D01*
X163980941Y-63662209D01*
X163969678Y-63674923D01*
X163968147Y-63676549D01*
X163361826Y-64282871D01*
X163315950Y-64304263D01*
X163267055Y-64291162D01*
X163238022Y-64249698D01*
X163235500Y-64230545D01*
X163235500Y-62710727D01*
X163252813Y-62663161D01*
X163281182Y-62642360D01*
X163362841Y-62608536D01*
X163488282Y-62512282D01*
X163584536Y-62386841D01*
X163645044Y-62240762D01*
X163660500Y-62123361D01*
X163660499Y-59534640D01*
X163645044Y-59417238D01*
X163584536Y-59271159D01*
X163584535Y-59271158D01*
X163485330Y-59141870D01*
X163486618Y-59140881D01*
X163467998Y-59100950D01*
X163481099Y-59052055D01*
X163522563Y-59023021D01*
X163541716Y-59020500D01*
X166658284Y-59020500D01*
X166705850Y-59037813D01*
G37*
%TD.AperFunction*%
%TD*%
M02*
