%TF.GenerationSoftware,KiCad,Pcbnew,7.0.5*%
%TF.CreationDate,2023-07-04T20:42:27-04:00*%
%TF.ProjectId,Nixie Clock,4e697869-6520-4436-9c6f-636b2e6b6963,rev?*%
%TF.SameCoordinates,Original*%
%TF.FileFunction,Legend,Bot*%
%TF.FilePolarity,Positive*%
%FSLAX46Y46*%
G04 Gerber Fmt 4.6, Leading zero omitted, Abs format (unit mm)*
G04 Created by KiCad (PCBNEW 7.0.5) date 2023-07-04 20:42:27*
%MOMM*%
%LPD*%
G01*
G04 APERTURE LIST*
%ADD10C,0.150000*%
%ADD11C,0.120000*%
%ADD12C,0.100000*%
G04 APERTURE END LIST*
D10*
%TO.C,J1*%
X225260819Y-83486666D02*
X225975104Y-83486666D01*
X225975104Y-83486666D02*
X226117961Y-83439047D01*
X226117961Y-83439047D02*
X226213200Y-83343809D01*
X226213200Y-83343809D02*
X226260819Y-83200952D01*
X226260819Y-83200952D02*
X226260819Y-83105714D01*
X226260819Y-84486666D02*
X226260819Y-83915238D01*
X226260819Y-84200952D02*
X225260819Y-84200952D01*
X225260819Y-84200952D02*
X225403676Y-84105714D01*
X225403676Y-84105714D02*
X225498914Y-84010476D01*
X225498914Y-84010476D02*
X225546533Y-83915238D01*
%TO.C,U6*%
X214338819Y-97602095D02*
X215148342Y-97602095D01*
X215148342Y-97602095D02*
X215243580Y-97649714D01*
X215243580Y-97649714D02*
X215291200Y-97697333D01*
X215291200Y-97697333D02*
X215338819Y-97792571D01*
X215338819Y-97792571D02*
X215338819Y-97983047D01*
X215338819Y-97983047D02*
X215291200Y-98078285D01*
X215291200Y-98078285D02*
X215243580Y-98125904D01*
X215243580Y-98125904D02*
X215148342Y-98173523D01*
X215148342Y-98173523D02*
X214338819Y-98173523D01*
X214338819Y-99078285D02*
X214338819Y-98887809D01*
X214338819Y-98887809D02*
X214386438Y-98792571D01*
X214386438Y-98792571D02*
X214434057Y-98744952D01*
X214434057Y-98744952D02*
X214576914Y-98649714D01*
X214576914Y-98649714D02*
X214767390Y-98602095D01*
X214767390Y-98602095D02*
X215148342Y-98602095D01*
X215148342Y-98602095D02*
X215243580Y-98649714D01*
X215243580Y-98649714D02*
X215291200Y-98697333D01*
X215291200Y-98697333D02*
X215338819Y-98792571D01*
X215338819Y-98792571D02*
X215338819Y-98983047D01*
X215338819Y-98983047D02*
X215291200Y-99078285D01*
X215291200Y-99078285D02*
X215243580Y-99125904D01*
X215243580Y-99125904D02*
X215148342Y-99173523D01*
X215148342Y-99173523D02*
X214910247Y-99173523D01*
X214910247Y-99173523D02*
X214815009Y-99125904D01*
X214815009Y-99125904D02*
X214767390Y-99078285D01*
X214767390Y-99078285D02*
X214719771Y-98983047D01*
X214719771Y-98983047D02*
X214719771Y-98792571D01*
X214719771Y-98792571D02*
X214767390Y-98697333D01*
X214767390Y-98697333D02*
X214815009Y-98649714D01*
X214815009Y-98649714D02*
X214910247Y-98602095D01*
D11*
%TO.C,C4*%
X136658236Y-73664400D02*
X136442564Y-73664400D01*
X136658236Y-72944400D02*
X136442564Y-72944400D01*
D12*
%TO.C,PD1*%
X139049207Y-64354970D02*
X139366707Y-64904897D01*
X139366707Y-64904897D02*
X142446293Y-63126897D01*
D11*
%TO.C,C6*%
X138121349Y-64738589D02*
X138013513Y-64551811D01*
X138744887Y-64378589D02*
X138637051Y-64191811D01*
%TO.C,C5*%
X139564164Y-71471200D02*
X139779836Y-71471200D01*
X139564164Y-72191200D02*
X139779836Y-72191200D01*
%TO.C,J1*%
X229706000Y-79120000D02*
X229706000Y-88520000D01*
X227806000Y-79120000D02*
X229706000Y-79120000D01*
X223906000Y-79120000D02*
X225906000Y-79120000D01*
X227806000Y-88520000D02*
X229706000Y-88520000D01*
X223906000Y-88520000D02*
X225906000Y-88520000D01*
%TO.C,C1*%
X208852580Y-96334000D02*
X208571420Y-96334000D01*
X208852580Y-95314000D02*
X208571420Y-95314000D01*
%TO.C,R3*%
X138837641Y-73684400D02*
X138530359Y-73684400D01*
X138837641Y-72924400D02*
X138530359Y-72924400D01*
%TO.C,C3*%
X137249780Y-72341200D02*
X136968620Y-72341200D01*
X137249780Y-71321200D02*
X136968620Y-71321200D01*
%TO.C,R1*%
X219609641Y-82676000D02*
X219302359Y-82676000D01*
X219609641Y-81916000D02*
X219302359Y-81916000D01*
%TO.C,D1*%
X213832000Y-84470000D02*
X213832000Y-83170000D01*
X216952000Y-83170000D02*
X216952000Y-85170000D01*
%TO.C,C2*%
X209984000Y-99122620D02*
X209984000Y-99403780D01*
X208964000Y-99122620D02*
X208964000Y-99403780D01*
%TO.C,R5*%
X179817500Y-100838724D02*
X179817500Y-100329276D01*
X180862500Y-100838724D02*
X180862500Y-100329276D01*
%TO.C,Q1*%
X204851000Y-69560000D02*
X204201000Y-69560000D01*
X204851000Y-69560000D02*
X205501000Y-69560000D01*
X204851000Y-72680000D02*
X203176000Y-72680000D01*
X204851000Y-72680000D02*
X205501000Y-72680000D01*
%TO.C,U6*%
X210784000Y-101708000D02*
X216794000Y-101708000D01*
X213034000Y-94888000D02*
X216794000Y-94888000D01*
X216794000Y-94888000D02*
X216794000Y-96148000D01*
X216794000Y-101708000D02*
X216794000Y-100448000D01*
%TO.C,R4*%
X205754500Y-66801276D02*
X205754500Y-67310724D01*
X204709500Y-66801276D02*
X204709500Y-67310724D01*
%TO.C,U5*%
X154682000Y-74620000D02*
X154682000Y-76120000D01*
X153682000Y-74620000D02*
X154682000Y-74620000D01*
X135632000Y-74620000D02*
X135632000Y-74220000D01*
X135632000Y-74620000D02*
X128832000Y-74620000D01*
X128832000Y-74620000D02*
X128832000Y-93020000D01*
X154682000Y-93020000D02*
X154682000Y-91520000D01*
X154682000Y-93020000D02*
X153682000Y-93020000D01*
X128832000Y-93020000D02*
X135032000Y-93020000D01*
%TO.C,R2*%
X219609641Y-85724000D02*
X219302359Y-85724000D01*
X219609641Y-84964000D02*
X219302359Y-84964000D01*
%TO.C,Q2*%
X180340000Y-97064000D02*
X180990000Y-97064000D01*
X180340000Y-97064000D02*
X179690000Y-97064000D01*
X180340000Y-93944000D02*
X182015000Y-93944000D01*
X180340000Y-93944000D02*
X179690000Y-93944000D01*
%TD*%
M02*
