%TF.GenerationSoftware,KiCad,Pcbnew,7.0.5*%
%TF.CreationDate,2023-07-04T20:49:23-04:00*%
%TF.ProjectId,Nixie Clock,4e697869-6520-4436-9c6f-636b2e6b6963,rev?*%
%TF.SameCoordinates,Original*%
%TF.FileFunction,Legend,Top*%
%TF.FilePolarity,Positive*%
%FSLAX46Y46*%
G04 Gerber Fmt 4.6, Leading zero omitted, Abs format (unit mm)*
G04 Created by KiCad (PCBNEW 7.0.5) date 2023-07-04 20:49:23*
%MOMM*%
%LPD*%
G01*
G04 APERTURE LIST*
%ADD10C,0.200000*%
G04 APERTURE END LIST*
D10*
%TO.C,IN2*%
X167640000Y-81026000D02*
X167386000Y-81280000D01*
X167640000Y-81026000D02*
X167640000Y-81788000D01*
X167640000Y-81026000D02*
X167894000Y-81280000D01*
X167640000Y-86614000D02*
X167640000Y-85852000D01*
X163068001Y-83669261D02*
G75*
G03*
X172212017Y-83670394I4571999J-71999D01*
G01*
%TO.C,IN1*%
X152400000Y-81026000D02*
X152146000Y-81280000D01*
X152400000Y-81026000D02*
X152400000Y-81788000D01*
X152400000Y-81026000D02*
X152654000Y-81280000D01*
X152400000Y-86614000D02*
X152400000Y-85852000D01*
X147828001Y-83669261D02*
G75*
G03*
X156972017Y-83670394I4571999J-71999D01*
G01*
%TO.C,IN4*%
X203200000Y-81026000D02*
X202946000Y-81280000D01*
X203200000Y-81026000D02*
X203200000Y-81788000D01*
X203200000Y-81026000D02*
X203454000Y-81280000D01*
X203200000Y-86614000D02*
X203200000Y-85852000D01*
X198628001Y-83669261D02*
G75*
G03*
X207772017Y-83670394I4571999J-71999D01*
G01*
%TO.C,IN3*%
X187960000Y-81026000D02*
X187706000Y-81280000D01*
X187960000Y-81026000D02*
X187960000Y-81788000D01*
X187960000Y-81026000D02*
X188214000Y-81280000D01*
X187960000Y-86614000D02*
X187960000Y-85852000D01*
X183388001Y-83669261D02*
G75*
G03*
X192532017Y-83670394I4571999J-71999D01*
G01*
%TD*%
M02*
