M48
; DRILL file {KiCad 7.0.5} date Tue Jul  4 20:49:25 2023
; FORMAT={-:-/ absolute / inch / decimal}
; #@! TF.CreationDate,2023-07-04T20:49:25-04:00
; #@! TF.GenerationSoftware,Kicad,Pcbnew,7.0.5
; #@! TF.FileFunction,Plated,1,2,PTH
FMAT,2
INCH
; #@! TA.AperFunction,Plated,PTH,ViaDrill
T1C0.0098
; #@! TA.AperFunction,Plated,PTH,ComponentDrill
T2C0.0248
%
G90
G05
T1
X5.67Y-3.05
X5.75Y-2.44
X5.9Y-4.2
X5.93Y-2.865
X6.0Y-2.925
X6.0Y-2.99
X6.1Y-2.4
X6.1Y-4.2
X6.285Y-2.935
X6.285Y-3.04
X6.285Y-3.355
X6.3Y-2.4
X6.3Y-4.2
X6.5Y-2.4
X6.5Y-2.715
X6.5Y-4.2
X6.6Y-2.99
X6.7Y-2.4
X6.7Y-2.89
X6.7Y-4.2
X6.745Y-3.07
X6.79Y-3.51
X6.9Y-2.4
X6.9Y-4.2
X6.935Y-2.89
X6.95Y-2.66
X6.97Y-3.9
X7.01Y-2.605
X7.1Y-2.4
X7.1Y-4.2
X7.22Y-3.85
X7.3Y-2.4
X7.3Y-4.2
X7.315Y-3.06
X7.4Y-2.99
X7.445Y-3.81
X7.5Y-2.4
X7.5Y-4.2
X7.54Y-2.9
X7.54Y-3.69
X7.64Y-2.73
X7.7Y-2.39
X7.7Y-3.06
X7.7Y-4.2
X7.715Y-3.185
X7.75Y-2.615
X7.855Y-2.71
X7.9Y-2.39
X7.9Y-2.63
X7.9Y-3.975
X7.9Y-4.2
X8.0Y-2.53
X8.0Y-2.99
X8.04Y-2.86
X8.1Y-2.39
X8.1Y-4.2
X8.17Y-3.7
X8.18Y-2.93
T2
X5.8533Y-3.2822
X5.8618Y-3.3524
X5.8784Y-3.2161
X5.902Y-3.4106
X5.9314Y-3.1692
X5.9647Y-3.4435
X6.0Y-3.1522
X6.0353Y-3.4435
X6.0686Y-3.1692
X6.098Y-3.4106
X6.1216Y-3.2161
X6.1382Y-3.3524
X6.1467Y-3.2822
X6.4533Y-3.2822
X6.4618Y-3.3524
X6.4784Y-3.2161
X6.502Y-3.4106
X6.5314Y-3.1692
X6.5647Y-3.4435
X6.6Y-3.1522
X6.6353Y-3.4435
X6.6686Y-3.1692
X6.698Y-3.4106
X6.7216Y-3.2161
X6.7382Y-3.3524
X6.7467Y-3.2822
X7.2533Y-3.2822
X7.2618Y-3.3524
X7.2784Y-3.2161
X7.302Y-3.4106
X7.3314Y-3.1692
X7.3647Y-3.4435
X7.4Y-3.1522
X7.4353Y-3.4435
X7.4686Y-3.1692
X7.498Y-3.4106
X7.5216Y-3.2161
X7.5382Y-3.3524
X7.5467Y-3.2822
X7.8533Y-3.2822
X7.8618Y-3.3524
X7.8784Y-3.2161
X7.902Y-3.4106
X7.9314Y-3.1692
X7.9647Y-3.4435
X8.0Y-3.1522
X8.0353Y-3.4435
X8.0686Y-3.1692
X8.098Y-3.4106
X8.1216Y-3.2161
X8.1382Y-3.3524
X8.1467Y-3.2822
T0
M30
