M48
; DRILL file {KiCad 7.0.5} date Tue Jul  4 20:42:28 2023
; FORMAT={-:-/ absolute / inch / decimal}
; #@! TF.CreationDate,2023-07-04T20:42:28-04:00
; #@! TF.GenerationSoftware,Kicad,Pcbnew,7.0.5
; #@! TF.FileFunction,Plated,1,4,PTH
FMAT,2
INCH
; #@! TA.AperFunction,Plated,PTH,ComponentDrill
T1C0.0079
; #@! TA.AperFunction,Plated,PTH,ViaDrill
T2C0.0098
; #@! TA.AperFunction,Plated,PTH,ComponentDrill
T3C0.0236
; #@! TA.AperFunction,Plated,PTH,ComponentDrill
T4C0.0315
; #@! TA.AperFunction,Plated,PTH,ComponentDrill
T5C0.0394
%
G90
G05
T1
X5.6217Y-3.2134
X5.6217Y-3.2685
X5.6493Y-3.1858
X5.6493Y-3.2409
X5.6493Y-3.2961
X5.6769Y-3.2134
X5.6769Y-3.2685
X5.7044Y-3.1858
X5.7044Y-3.2409
X5.7044Y-3.2961
X5.732Y-3.2134
X5.732Y-3.2685
T2
X5.36Y-3.965
X5.385Y-3.33
X5.4229Y-3.2929
X5.445Y-3.375
X5.45Y-3.32
X5.45Y-3.855
X5.465Y-3.035
X5.47Y-3.275
X5.5Y-2.584
X5.522Y-3.454
X5.528Y-2.549
X5.57Y-3.855
X5.572Y-3.506
X5.587Y-2.575
X5.588Y-2.539
X5.59Y-3.402
X5.598Y-2.721
X5.616Y-2.471
X5.635Y-2.503
X5.646Y-3.464
X5.67Y-3.55
X5.673Y-2.484
X5.71Y-3.85
X5.778Y-3.436
X5.78Y-3.725
X5.848Y-3.006
X5.878Y-2.778
X5.92Y-3.346
X5.936Y-2.9
X5.9528Y-3.0293
X5.9528Y-3.0628
X5.97Y-3.178
X5.97Y-3.575
X6.01Y-3.445
X6.015Y-3.565
X6.13Y-3.15
X6.13Y-3.25
X6.135Y-3.095
X6.135Y-3.655
X6.14Y-2.63
X6.164Y-2.782
X6.17Y-2.9
X6.175Y-3.95
X6.205Y-3.54
X6.295Y-3.825
X6.335Y-4.035
X6.4Y-3.83
X6.446Y-2.888
X6.455Y-3.25
X6.46Y-3.45
X6.475Y-3.15
X6.485Y-3.725
X6.49Y-3.38
X6.5Y-2.765
X6.5Y-3.005
X6.515Y-3.09
X6.515Y-3.45
X6.565Y-3.15
X6.59Y-2.875
X6.605Y-2.575
X6.645Y-3.095
X6.69Y-3.25
X6.695Y-2.775
X6.705Y-3.535
X6.725Y-2.875
X6.725Y-4.04
X6.805Y-2.58
X6.825Y-2.745
X6.84Y-3.855
X6.86Y-3.8
X6.89Y-3.015
X6.94Y-2.582
X6.95Y-3.875
X7.015Y-3.81
X7.055Y-3.66
X7.135Y-3.855
X7.14Y-2.63
X7.165Y-4.025
X7.17Y-3.25
X7.195Y-3.565
X7.205Y-3.46
X7.265Y-2.8
X7.27Y-3.05
X7.305Y-3.56
X7.345Y-2.865
X7.345Y-3.83
X7.35Y-3.44
X7.395Y-4.04
X7.4Y-3.045
X7.465Y-3.56
X7.475Y-3.43
X7.495Y-3.25
X7.5Y-2.78
X7.5Y-2.875
X7.555Y-3.35
X7.565Y-3.05
X7.59Y-3.545
X7.595Y-3.155
X7.6Y-3.435
X7.605Y-2.575
X7.605Y-3.265
X7.65Y-3.38
X7.68Y-2.775
X7.685Y-3.175
X7.7Y-3.335
X7.705Y-2.875
X7.705Y-3.795
X7.71Y-3.445
X7.715Y-3.03
X7.745Y-3.565
X7.77Y-4.035
X7.82Y-2.585
X7.84Y-2.745
X7.88Y-3.015
X7.894Y-3.326
X7.91Y-3.25
X7.925Y-4.045
X7.94Y-2.565
X7.94Y-3.88
X7.965Y-3.74
X8.065Y-2.54
X8.11Y-3.38
X8.115Y-3.28
X8.145Y-2.72
X8.15Y-3.85
X8.17Y-3.87
X8.315Y-3.255
X8.3591Y-3.2833
X8.3591Y-3.3167
X8.415Y-3.415
X8.485Y-3.22
X8.52Y-3.44
X8.57Y-3.35
X8.58Y-3.255
T4
X6.2494Y-3.6504
X6.2494Y-3.9504
X6.2506Y-2.6496
X6.2506Y-2.9496
X6.3494Y-3.6504
X6.3494Y-3.9504
X6.3506Y-2.6496
X6.3506Y-2.9496
X6.4494Y-3.6504
X6.4494Y-3.9504
X6.4506Y-2.6496
X6.4506Y-2.9496
X6.5494Y-3.6504
X6.5494Y-3.9504
X6.5506Y-2.6496
X6.5506Y-2.9496
X6.6494Y-3.6504
X6.6494Y-3.9504
X6.6506Y-2.6496
X6.6506Y-2.9496
X6.7494Y-3.6504
X6.7494Y-3.9504
X6.7506Y-2.6496
X6.7506Y-2.9496
X6.8494Y-3.6504
X6.8494Y-3.9504
X6.8506Y-2.6496
X6.8506Y-2.9496
X6.9494Y-3.6504
X6.9494Y-3.9504
X6.9506Y-2.6496
X6.9506Y-2.9496
X7.2494Y-3.6504
X7.2494Y-3.9504
X7.2506Y-2.6496
X7.2506Y-2.9496
X7.3494Y-3.6504
X7.3494Y-3.9504
X7.3506Y-2.6496
X7.3506Y-2.9496
X7.4494Y-3.6504
X7.4494Y-3.9504
X7.4506Y-2.6496
X7.4506Y-2.9496
X7.5494Y-3.6504
X7.5494Y-3.9504
X7.5506Y-2.6496
X7.5506Y-2.9496
X7.6494Y-3.6504
X7.6494Y-3.9504
X7.6506Y-2.6496
X7.6506Y-2.9496
X7.7494Y-3.6504
X7.7494Y-3.9504
X7.7506Y-2.6496
X7.7506Y-2.9496
X7.8494Y-3.6504
X7.8494Y-3.9504
X7.8506Y-2.6496
X7.8506Y-2.9496
X7.9494Y-3.6504
X7.9494Y-3.9504
X7.9506Y-2.6496
X7.9506Y-2.9496
T5
X5.465Y-3.935
X5.565Y-3.935
X5.665Y-3.935
X5.765Y-3.935
X5.9Y-2.46
X5.9Y-4.14
X6.0Y-2.46
X6.0Y-4.14
X6.1Y-2.46
X6.1Y-4.14
X6.2Y-2.46
X6.2Y-4.14
X6.3Y-2.46
X6.3Y-4.14
X6.4Y-2.46
X6.4Y-4.14
X6.5Y-2.46
X6.5Y-4.14
X6.6Y-2.46
X6.6Y-4.14
X6.7Y-2.46
X6.7Y-4.14
X6.8Y-2.46
X6.8Y-4.14
X6.9Y-2.46
X6.9Y-4.14
X7.0Y-2.46
X7.0Y-4.14
X7.1Y-2.46
X7.1Y-4.14
X7.2Y-2.46
X7.2Y-4.14
X7.3Y-2.46
X7.3Y-4.14
X7.4Y-2.46
X7.4Y-4.14
X7.5Y-2.46
X7.5Y-4.14
X7.6Y-2.46
X7.6Y-4.14
X7.7Y-2.46
X7.7Y-4.14
X7.8Y-2.46
X7.8Y-4.14
X7.9Y-2.46
X7.9Y-4.14
X8.0Y-2.46
X8.0Y-4.14
X8.1Y-2.46
X8.1Y-4.14
X8.28Y-3.01
X8.28Y-3.61
X8.58Y-3.61
X8.78Y-3.01
T3
G00X8.7884Y-3.1299
M15
G01X8.7451Y-3.1299
M16
G05
G00X8.7884Y-3.4701
M15
G01X8.7451Y-3.4701
M16
G05
G00X8.9431Y-3.1299
M15
G01X8.9195Y-3.1299
M16
G05
G00X8.9431Y-3.4701
M15
G01X8.9195Y-3.4701
M16
G05
T0
M30
