%TF.GenerationSoftware,KiCad,Pcbnew,7.0.5*%
%TF.CreationDate,2023-07-04T20:42:27-04:00*%
%TF.ProjectId,Nixie Clock,4e697869-6520-4436-9c6f-636b2e6b6963,rev?*%
%TF.SameCoordinates,Original*%
%TF.FileFunction,Paste,Bot*%
%TF.FilePolarity,Positive*%
%FSLAX46Y46*%
G04 Gerber Fmt 4.6, Leading zero omitted, Abs format (unit mm)*
G04 Created by KiCad (PCBNEW 7.0.5) date 2023-07-04 20:42:27*
%MOMM*%
%LPD*%
G01*
G04 APERTURE LIST*
G04 Aperture macros list*
%AMRoundRect*
0 Rectangle with rounded corners*
0 $1 Rounding radius*
0 $2 $3 $4 $5 $6 $7 $8 $9 X,Y pos of 4 corners*
0 Add a 4 corners polygon primitive as box body*
4,1,4,$2,$3,$4,$5,$6,$7,$8,$9,$2,$3,0*
0 Add four circle primitives for the rounded corners*
1,1,$1+$1,$2,$3*
1,1,$1+$1,$4,$5*
1,1,$1+$1,$6,$7*
1,1,$1+$1,$8,$9*
0 Add four rect primitives between the rounded corners*
20,1,$1+$1,$2,$3,$4,$5,0*
20,1,$1+$1,$4,$5,$6,$7,0*
20,1,$1+$1,$6,$7,$8,$9,0*
20,1,$1+$1,$8,$9,$2,$3,0*%
G04 Aperture macros list end*
%ADD10RoundRect,0.140000X0.140000X0.170000X-0.140000X0.170000X-0.140000X-0.170000X0.140000X-0.170000X0*%
%ADD11RoundRect,0.300000X-0.539711X0.034808X-0.239711X-0.484808X0.539711X-0.034808X0.239711X0.484808X0*%
%ADD12RoundRect,0.055000X-0.196375X-0.049869X-0.141375X-0.145131X0.196375X0.049869X0.141375X0.145131X0*%
%ADD13RoundRect,0.140000X0.217224X-0.036244X0.077224X0.206244X-0.217224X0.036244X-0.077224X-0.206244X0*%
%ADD14RoundRect,0.140000X-0.140000X-0.170000X0.140000X-0.170000X0.140000X0.170000X-0.140000X0.170000X0*%
%ADD15R,1.450000X0.600000*%
%ADD16R,1.450000X0.300000*%
%ADD17RoundRect,0.225000X0.225000X0.250000X-0.225000X0.250000X-0.225000X-0.250000X0.225000X-0.250000X0*%
%ADD18RoundRect,0.135000X0.135000X0.185000X-0.135000X0.185000X-0.135000X-0.185000X0.135000X-0.185000X0*%
%ADD19R,1.000000X0.700000*%
%ADD20R,0.600000X0.700000*%
%ADD21RoundRect,0.225000X-0.250000X0.225000X-0.250000X-0.225000X0.250000X-0.225000X0.250000X0.225000X0*%
%ADD22RoundRect,0.237500X0.237500X-0.250000X0.237500X0.250000X-0.237500X0.250000X-0.237500X-0.250000X0*%
%ADD23RoundRect,0.150000X-0.587500X-0.150000X0.587500X-0.150000X0.587500X0.150000X-0.587500X0.150000X0*%
%ADD24R,2.000000X1.500000*%
%ADD25R,2.000000X3.800000*%
%ADD26RoundRect,0.237500X-0.237500X0.250000X-0.237500X-0.250000X0.237500X-0.250000X0.237500X0.250000X0*%
%ADD27R,0.900000X0.900000*%
%ADD28R,0.900000X1.500000*%
%ADD29R,1.500000X0.900000*%
%ADD30RoundRect,0.150000X0.587500X0.150000X-0.587500X0.150000X-0.587500X-0.150000X0.587500X-0.150000X0*%
G04 APERTURE END LIST*
D10*
%TO.C,C4*%
X137030400Y-73304400D03*
X136070400Y-73304400D03*
%TD*%
D11*
%TO.C,PD1*%
X140462000Y-63246000D03*
D12*
X139616148Y-64320941D03*
X139362148Y-63881000D03*
X139108148Y-63441059D03*
X141307852Y-62171059D03*
X141561852Y-62611000D03*
X141815852Y-63050941D03*
%TD*%
D13*
%TO.C,C6*%
X138619200Y-64880892D03*
X138139200Y-64049508D03*
%TD*%
D14*
%TO.C,C5*%
X139192000Y-71831200D03*
X140152000Y-71831200D03*
%TD*%
D15*
%TO.C,J1*%
X221761000Y-80570000D03*
X221761000Y-81370000D03*
D16*
X221761000Y-82570000D03*
X221761000Y-83570000D03*
X221761000Y-84070000D03*
X221761000Y-85070000D03*
D15*
X221761000Y-86270000D03*
X221761000Y-87070000D03*
X221761000Y-87070000D03*
X221761000Y-86270000D03*
D16*
X221761000Y-85570000D03*
X221761000Y-84570000D03*
X221761000Y-83070000D03*
X221761000Y-82070000D03*
D15*
X221761000Y-81370000D03*
X221761000Y-80570000D03*
%TD*%
D17*
%TO.C,C1*%
X209487000Y-95824000D03*
X207937000Y-95824000D03*
%TD*%
D18*
%TO.C,R3*%
X139194000Y-73304400D03*
X138174000Y-73304400D03*
%TD*%
D17*
%TO.C,C3*%
X137884200Y-71831200D03*
X136334200Y-71831200D03*
%TD*%
D18*
%TO.C,R1*%
X219966000Y-82296000D03*
X218946000Y-82296000D03*
%TD*%
D19*
%TO.C,D1*%
X216142000Y-84820000D03*
D20*
X214442000Y-84820000D03*
X214442000Y-82820000D03*
X216342000Y-82820000D03*
%TD*%
D21*
%TO.C,C2*%
X209474000Y-98488200D03*
X209474000Y-100038200D03*
%TD*%
D22*
%TO.C,R5*%
X180340000Y-101496500D03*
X180340000Y-99671500D03*
%TD*%
D23*
%TO.C,Q1*%
X203913500Y-72070000D03*
X203913500Y-70170000D03*
X205788500Y-71120000D03*
%TD*%
D24*
%TO.C,U6*%
X211734000Y-100598000D03*
X211734000Y-98298000D03*
D25*
X218034000Y-98298000D03*
D24*
X211734000Y-95998000D03*
%TD*%
D26*
%TO.C,R4*%
X205232000Y-66143500D03*
X205232000Y-67968500D03*
%TD*%
D27*
%TO.C,U5*%
X145592000Y-80920000D03*
X144192000Y-80920000D03*
X142792000Y-80920000D03*
X145592000Y-82320000D03*
X144192000Y-82320000D03*
X142792000Y-82320000D03*
X145592000Y-83720000D03*
X144192000Y-83720000D03*
X142792000Y-83720000D03*
D28*
X136472000Y-75070000D03*
X137742000Y-75070000D03*
X139012000Y-75070000D03*
X140282000Y-75070000D03*
X141552000Y-75070000D03*
X142822000Y-75070000D03*
X144092000Y-75070000D03*
X145362000Y-75070000D03*
X146632000Y-75070000D03*
X147902000Y-75070000D03*
X149172000Y-75070000D03*
X150442000Y-75070000D03*
X151712000Y-75070000D03*
X152982000Y-75070000D03*
D29*
X154232000Y-76835000D03*
X154232000Y-78105000D03*
X154232000Y-79375000D03*
X154232000Y-80645000D03*
X154232000Y-81915000D03*
X154232000Y-83185000D03*
X154232000Y-84455000D03*
X154232000Y-85725000D03*
X154232000Y-86995000D03*
X154232000Y-88265000D03*
X154232000Y-89535000D03*
X154232000Y-90805000D03*
D28*
X152982000Y-92570000D03*
X151712000Y-92570000D03*
X150442000Y-92570000D03*
X149172000Y-92570000D03*
X147902000Y-92570000D03*
X146632000Y-92570000D03*
X145362000Y-92570000D03*
X144092000Y-92570000D03*
X142822000Y-92570000D03*
X141552000Y-92570000D03*
X140282000Y-92570000D03*
X139012000Y-92570000D03*
X137742000Y-92570000D03*
X136472000Y-92570000D03*
%TD*%
D18*
%TO.C,R2*%
X219966000Y-85344000D03*
X218946000Y-85344000D03*
%TD*%
D30*
%TO.C,Q2*%
X181277500Y-94554000D03*
X181277500Y-96454000D03*
X179402500Y-95504000D03*
%TD*%
M02*
